<svg xmlns="http://www.w3.org/2000/svg" viewBox="0 0 16 16" width="16" height="16"><title>circle 04</title><g class="nc-icon-wrapper" fill="#5616ff"><g class="nc-loop_circle-04-16"> <path fill="#5616ff" d="M8,16c-1.644043,0-3.2236328-0.4951172-4.5683594-1.4321289 c-0.453125-0.3154297-0.5644531-0.9389648-0.2485352-1.3920898c0.3164062-0.4521484,0.9399414-0.5644531,1.3920898-0.2485352 C5.5825195,13.6289062,6.7670898,14,8,14c3.3085938,0,6-2.6914062,6-6s-2.6914062-6-6-6S2,4.6914062,2,8 c0,0.5844727,0.0834961,1.1616211,0.2490234,1.7158203c0.1577148,0.5292969-0.1435547,1.0864258-0.6728516,1.2441406 c-0.5283203,0.1572266-1.0864258-0.1435547-1.2441406-0.6728516C0.1118164,9.5473633,0,8.777832,0,8c0-4.4111328,3.5888672-8,8-8 s8,3.5888672,8,8S12.4111328,16,8,16z" transform="rotate(83.14400000000023 8 8)"/> </g> <script>!function(){function t(t){this.element=t,this.circle=this.element.getElementsByTagName("path")[0],this.animationId,this.start=null,this.init()}if(!window.requestAnimationFrame){var i=null;window.requestAnimationFrame=function(t,n){var e=(new Date).getTime();i||(i=e);var a=Math.max(0,16-(e-i)),o=window.setTimeout(function(){t(e+a)},a);return i=e+a,o}}t.prototype.init=function(){var t=this;this.animationId=window.requestAnimationFrame(t.triggerAnimation.bind(t))},t.prototype.reset=function(){var t=this;window.cancelAnimationFrame(t.animationId)},t.prototype.triggerAnimation=function(t){var i=this;this.start||(this.start=t);var n=t-this.start;720>n||(this.start=this.start+720),this.circle.setAttribute("transform","rotate("+Math.min(n/2,360)+" 8 8)");if(document.documentElement.contains(this.element))window.requestAnimationFrame(i.triggerAnimation.bind(i))};var n=document.getElementsByClassName("nc-loop_circle-04-16"),e=[];if(n)for(var a=0;n.length>a;a++)!function(i){e.push(new t(n[i]))}(a);document.addEventListener("visibilitychange",function(){"hidden"==document.visibilityState?e.forEach(function(t){t.reset()}):e.forEach(function(t){t.init()})})}();</script></g></svg>