<svg width="198" height="181" viewBox="0 0 198 181" fill="none" xmlns="http://www.w3.org/2000/svg">
<path d="M54.0002 5.8999H2.2002V80.9999H54.0002V5.8999Z" fill="#E1F6F8"/>
<path d="M23.9001 47.6999C24.5001 46.0999 24.8001 44.3999 24.8001 42.4999C24.8001 38.9999 23.6001 35.6999 21.5001 33.0999C19.8001 30.8999 19.0001 27.9999 19.7001 25.2999C19.9001 24.4999 20.0001 23.6999 20.0001 22.7999C20.0001 16.6999 14.7001 11.8999 8.5001 12.5999C6.0001 12.8999 3.7001 14.0999 2.1001 15.8999V80.8999H28.6001C30.0001 78.2999 30.8001 75.3999 31.0001 72.2999C31.3001 66.2999 29.2001 60.7999 25.5001 56.7999C23.4001 54.3999 22.7001 50.7999 23.9001 47.6999Z" fill="#C2EDF1"/>
<path d="M28.1001 0.899902V86.7999" stroke="white" stroke-width="1.027" stroke-miterlimit="10"/>
<path d="M0.100098 30.7998H56.7001" stroke="white" stroke-width="1.027" stroke-miterlimit="10"/>
<path d="M0.100098 56.2H56.7001" stroke="white" stroke-width="1.027" stroke-miterlimit="10"/>
<path d="M113.4 180.1C159.737 180.1 197.3 179.294 197.3 178.3C197.3 177.306 159.737 176.5 113.4 176.5C67.0633 176.5 29.5 177.306 29.5 178.3C29.5 179.294 67.0633 180.1 113.4 180.1Z" fill="#E1F6F8"/>
<path d="M65.7 109.2H36C33.3 109.2 31 111.4 31 114.2V157.6C31 160.3 33.2 162.6 36 162.6H65.6C68.3 162.6 70.6 160.4 70.6 157.6V114.2C70.6 111.4 68.4 109.2 65.7 109.2Z" fill="#CBF0F3"/>
<path d="M77.4002 109.2H49.2002C46.5002 109.2 44.2002 111.4 44.2002 114.2V157.6C44.2002 160.3 46.4002 162.6 49.2002 162.6H77.4002C80.1002 162.6 82.4002 160.4 82.4002 157.6V114.2C82.3002 111.4 80.1002 109.2 77.4002 109.2Z" fill="#97E0E7"/>
<path d="M138.9 161.9L139.9 167.1L141.9 177.2C142 177.9 142.6 178.4 143.3 178.4H145.4C146.2 178.4 146.9 177.7 146.9 176.9V161.9H138.9Z" fill="#008FCD"/>
<path d="M146.9 161.9H138.9L139.8 166.3L146.9 166.4V161.9Z" fill="#0069D1"/>
<path d="M174.6 161.9H182.6V176.9C182.6 177.7 181.9 178.4 181.1 178.4H179C178.3 178.4 177.7 177.9 177.6 177.2L174.6 161.9Z" fill="#004CBC"/>
<path d="M86.5 161.9H78.5V176.9C78.5 177.7 79.2 178.4 80 178.4H82.1C82.8 178.4 83.4 177.9 83.5 177.2L86.5 161.9Z" fill="#004CBC"/>
<path d="M42.8003 161.9V176.9C42.8003 177.7 43.5003 178.4 44.3003 178.4H46.4003C47.1003 178.4 47.7003 177.9 47.8003 177.2L49.8003 167.1L50.8003 161.9H42.8003Z" fill="#008FCD"/>
<path d="M50.2003 165.1L50.8003 161.9H42.8003V165L50.2003 165.1Z" fill="#0069D1"/>
<path d="M181.6 136.8L190.5 98.0998C191.9 91.4998 186.1 84.2998 180 84.2998H99.8002C93.7002 84.2998 87.6002 89.1998 86.2002 95.2998L76.7002 136.7H181.6V136.8Z" fill="#CBF0F3"/>
<path d="M172 84.2998H89.2001C83.1001 84.2998 77.0001 89.1998 75.6001 95.2998L66.1001 136.7H171L180.5 95.2998C181.9 89.1998 178.1 84.2998 172 84.2998Z" fill="#CBF0F3"/>
<path d="M83.2002 133.2H61.2002C59.5002 133.2 58.1002 132 57.7002 130.4L54.4002 116.2C53.9002 114 55.2002 112.3 57.4002 112.3H77.8002C80.0002 112.3 82.1002 114 82.6002 116.2L85.8002 129.9C86.2002 131.6 84.9002 133.2 83.2002 133.2Z" fill="white"/>
<path d="M154 133.3H41.2002V162.6H154V133.3Z" fill="#CBF0F3"/>
<path d="M123.6 93.8998L144.2 82.8998L141.8 96.0998C141.8 96.0998 126.1 104.7 120.8 103.8C115.2 102.8 112 82.9998 111.4 78.2998C111.3 77.6998 111.7 77.1998 112.2 76.9998L117.9 75.2998L123.6 93.8998Z" fill="#79D4E7"/>
<path d="M112.8 78.5997H112.3C111.5 78.5997 110.9 77.9997 110.7 77.2997L109.7 71.4997C109.5 70.4997 109.9 69.4997 110.7 68.7997L112.3 67.3997L113.3 69.4997L112.8 78.5997Z" fill="#FF7254"/>
<path d="M119.6 79.3997H114C113.2 79.3997 112.5 78.7998 112.4 77.9998L112.2 76.8997L110.3 65.5998V65.3997C110.2 64.5997 110.7 63.9998 111.5 63.9998H117.1C117.9 63.9998 118.6 64.5998 118.7 65.2998V65.5998L120.6 76.8997L120.8 77.8997C120.9 78.7997 120.3 79.3997 119.6 79.3997Z" fill="black"/>
<path d="M120 77.1997H113.3L111.5 66.3997H118.2L120 77.1997Z" fill="#38BFDB"/>
<path d="M110.8 68.7998L111.6 68.1998C112 67.8998 112.6 67.9998 112.9 68.4998C113.1 68.8998 113 69.3998 112.7 69.6998L110.9 71.0998L110.5 69.5998L110.8 68.7998Z" fill="#FF7254"/>
<path d="M110.9 70.8998L111.8 70.1998C112.2 69.8998 112.8 69.9998 113.1 70.4998C113.3 70.8998 113.2 71.3998 112.9 71.6998L111.1 73.0998L110.7 71.5998L110.9 70.8998Z" fill="#FF7254"/>
<path d="M111.1 72.7997L112 72.0997C112.4 71.7997 113 71.8996 113.3 72.3996C113.5 72.7996 113.4 73.2997 113.1 73.5997L111.3 74.9997L110.9 73.4997L111.1 72.7997Z" fill="#FF7254"/>
<path d="M121.001 74.9997L120.501 76.4997L120.101 74.2997L118.301 72.7997C117.901 72.4997 117.901 71.8997 118.101 71.5997C118.401 71.1997 118.901 71.1997 119.301 71.3997L120.301 72.1997C120.901 72.6997 121.101 73.3997 121.001 74.0997V74.9997Z" fill="#FF7254"/>
<path d="M142.7 83.8999L131 101.3C134.4 99.8999 137.7 98.2999 139.7 97.1999L142.7 83.8999Z" fill="#38BFDB"/>
<path d="M157.9 81.6997H148.7C144 81.6997 138.1 86.3997 137.8 89.8997C137.5 92.5997 139.8 95.1997 139.8 95.1997L130 123.4H162.4L163.2 111.7C164.6 105.9 165.8 96.7997 166.4 92.3997C166.9 88.5997 165.2 84.7997 162 82.8997C160.6 82.1997 159.2 81.6997 157.9 81.6997Z" fill="#79D4E7"/>
<path fill-rule="evenodd" clip-rule="evenodd" d="M150.5 87.2997C153.2 87.6997 156.9 84.9997 158.8 83.3997C159.3 82.9997 159.4 82.2997 159.1 81.7997C158.7 81.6997 158.3 81.6997 157.9 81.6997H148.7C148.3 81.6997 148 81.6997 147.6 81.7997C147.2 82.0997 147 82.5997 147 82.9997C146.9 83.8997 147.6 86.7997 150.5 87.2997Z" fill="#FF7254"/>
<path d="M104.3 168.7L103.3 171.7C102.9 173 101.8 174 100.5 174.5L96.8004 175.8C96.3004 176 95.9004 176.5 95.9004 177C95.9004 177.7 96.5004 178.3 97.2004 178.3H106.2C107.4 178.3 108.4 177.5 108.6 176.3L110 170.1L104.3 168.7Z" fill="#004CBC"/>
<path d="M107.9 175.1C106.7 175.1 105.7 176.1 105.7 177.3C105.7 177.7 105.8 178 105.9 178.3H106.2C107.4 178.3 108.4 177.5 108.6 176.3L108.8 175.3C108.6 175.2 108.3 175.1 107.9 175.1Z" fill="#326FC9"/>
<path d="M88.4004 141.5L85.5004 144.1C84.8004 144.7 83.9004 145.1 82.9004 145L78.3004 144.9C77.7004 144.9 77.2004 145.2 76.9004 145.8C76.6004 146.5 77.0004 147.4 77.8004 147.6L85.7004 150.3C86.9004 150.7 88.3004 150.4 89.1004 149.4L93.0004 145.1L88.4004 141.5Z" fill="#004CBC"/>
<path d="M89.1004 149.5L89.5004 149C89.1004 148.2 88.3004 147.7 87.4004 147.8C86.2004 147.9 85.2004 148.9 85.3004 150.2V150.3L85.7004 150.4C86.9004 150.7 88.2004 150.4 89.1004 149.5Z" fill="#326FC9"/>
<path d="M144.601 133.3H123.401C123.401 133.3 121.601 139.4 119.101 147.6C119.001 147.9 118.901 148.2 118.801 148.6C116.101 157.3 112.801 164 110.201 171L103.601 169.5C105.001 161.4 106.001 156.5 107.401 147.6C108.101 142.7 109.001 137.7 110.001 132.4C111.001 129.1 112.401 126.6 114.201 124.7C116.201 122.7 118.601 121.4 121.301 120.6C125.401 119.4 130.301 119.1 135.701 119.1H135.801C138.601 119.1 141.501 119.2 144.501 119.2L144.601 133.3Z" fill="#FFB612"/>
<path d="M162.7 119C162.2 127 156.5 133.1 147.6 133.1H142.8V119H162.7Z" fill="#FFB612"/>
<path d="M145.8 131.5L128.6 119.1C128.6 119.1 123.6 123 116.8 128.2C116.5 128.4 116.3 128.6 116 128.8C108.7 134.4 100 141.5 93.0005 146.8L87.5005 142.1C94.5005 134.8 100.5 128.2 107.2 121.4C110.6 117.9 114.2 114.3 118.2 110.6C120.9 108.5 123.6 107.3 126.1 106.8C128.9 106.3 131.6 106.7 134.3 107.6C138.4 109 142.4 111.7 146.8 114.8L146.9 114.9C149.2 116.5 151.5 118.3 154 120L145.8 131.5Z" fill="#FFB612"/>
<path d="M128.601 119.1L139.801 130C141.901 132 144.701 133.2 147.601 133.2H135.401L128.601 119.1Z" fill="#FF9C12"/>
<path fill-rule="evenodd" clip-rule="evenodd" d="M153.9 58.3998C153.9 58.3998 167.7 57.4998 165.8 80.5998H142.5C142.4 80.5998 141.2 57.5998 153.9 58.3998Z" fill="black"/>
<path fill-rule="evenodd" clip-rule="evenodd" d="M157.1 81.9999L149.6 82.1999L151.2 72.1999L157.7 70.3999L157.1 81.9999Z" fill="#FF7254"/>
<path d="M150.5 76.1997L150 79.0997C150 79.0997 154.8 76.1997 154.9 76.1997H150.5Z" fill="#F25A37"/>
<path fill-rule="evenodd" clip-rule="evenodd" d="M144.6 71.7999C144.9 74.6999 146.2 76.6999 149.7 77.0999H149.8C150 77.0999 151.6 77.1999 152.1 77.0999C153.9 76.7999 155.7 76.3998 157.2 74.9998C157.6 74.6998 157.9 73.6999 158.3 73.2999C158.4 73.1999 158.5 72.9998 158.6 72.8998C158.7 72.6998 158.9 72.4999 159 72.2999C159.1 72.1999 159.2 71.9998 159.2 71.8998C159.8 70.7998 160.2 69.5998 160.3 68.3998C160.5 65.7998 160.2 63.7999 159.4 62.2999C158.9 61.2999 158.2 60.5999 157.4 60.0999C156.9 59.7999 156.4 59.5998 155.8 59.3998C155.5 59.2998 155.3 59.2998 155 59.1998C154.7 59.1998 154.5 59.0999 154.2 59.0999C154.2 59.0999 154.2 59.0999 154.1 59.0999H154C153.7 59.0999 153.4 59.0999 153.2 59.0999C152.9 59.0999 152.5 59.0999 152.2 59.0999C152 59.0999 151.7 59.0998 151.5 59.1998H151.4C151.3 59.1998 151.3 59.1998 151.2 59.1998C151 59.2998 150.8 59.2998 150.6 59.3998H150.5C150.3 59.4998 150.1 59.4999 149.9 59.5999C149.8 59.6999 149.6 59.6999 149.4 59.7999C149.2 59.8999 149.1 59.9999 148.9 60.0999C148.8 60.1999 148.6 60.2998 148.5 60.3998C148.1 60.6998 147.7 60.9998 147.4 61.3998C147.3 61.4998 147.2 61.5998 147.1 61.6998C147 61.7998 147 61.7998 146.9 61.8998C145.4 63.7998 144.6 66.4998 144.5 69.1998C144.5 69.2998 144.5 69.3999 144.5 69.5999C144.5 70.2999 144.6 71.0999 144.6 71.7999Z" fill="#FF7254"/>
<path fill-rule="evenodd" clip-rule="evenodd" d="M152.9 58.7998C153.2 59.1998 153.3 60.9998 153.5 62.8998C153.8 65.7998 157.8 69.1998 157.5 74.7998C159.1 73.7998 160.8 69.6998 160.8 68.5998C161 65.9998 160.7 63.6998 159.9 62.1998C159.4 61.1998 158.6 60.2998 157.7 59.7998C157.2 59.4998 156.4 59.1998 155.8 59.0998C155.5 58.9998 155 58.8998 154.7 58.8998C154.5 58.7998 153.2 58.8998 152.9 58.7998Z" fill="black"/>
<path d="M157 70.8998C157.994 70.8998 158.8 70.0939 158.8 69.0998C158.8 68.1057 157.994 67.2998 157 67.2998C156.006 67.2998 155.2 68.1057 155.2 69.0998C155.2 70.0939 156.006 70.8998 157 70.8998Z" fill="#FF7254"/>
<path fill-rule="evenodd" clip-rule="evenodd" d="M152.9 58.9998C152.6 58.9998 152.2 58.9998 151.9 58.9998C151.6 58.9998 151.3 59.0998 151.1 59.0998C151 59.0998 151 59.0998 150.9 59.0998C150.7 59.0998 150.5 59.1998 150.3 59.2998H150.2C148.8 59.7998 147.7 60.5998 146.7 61.7998C148.1 63.9998 157.1 66.5998 157.1 66.6998L157.5 60.0998C156.2 59.1998 154.5 59.0998 153.9 58.9998H153.8C153.5 59.0998 153.2 59.0998 152.9 58.9998Z" fill="black"/>
<path d="M150.6 71.6997L147.8 71.7997" stroke="black" stroke-width="0.5" stroke-miterlimit="10" stroke-linecap="round"/>
<path d="M157.1 106.2L152.6 106.3C151.2 106.3 149.9 107.1 149.2 108.3L148.7 109.3H150.3L150.4 109.2V109.3H151.1H152.7H153.5H155.1H155.8H160.5C160.2 107.5 158.8 106.1 157.1 106.2Z" fill="#FF7254"/>
<path d="M176.6 109.2H149.9C147.2 109.2 144.9 111.4 144.9 114.2V157.6C144.9 160.3 147.1 162.6 149.9 162.6H176.6C179.3 162.6 181.6 160.4 181.6 157.6V114.2C181.6 111.4 179.4 109.2 176.6 109.2Z" fill="#CBF0F3"/>
<path d="M189.701 109.2H163C160.3 109.2 158 111.4 158 114.2V157.6C158 160.3 160.2 162.6 163 162.6H189.701C192.401 162.6 194.701 160.4 194.701 157.6V114.2C194.701 111.4 192.5 109.2 189.701 109.2Z" fill="#97E0E7"/>
<path d="M165.4 99.0997L161.8 94.6997L159.6 103.8L164.7 103.4C164.9 102 165.2 100.5 165.4 99.0997Z" fill="#38BFDB"/>
<path d="M148.8 109.1L148.2 110.3C147.9 110.8 148.2 111.5 148.8 111.7C149.3 111.9 149.8 111.7 150.1 111.2L151.3 108.9L149.5 108.8L148.8 109.1Z" fill="#FF7254"/>
<path d="M151 109.1L150.4 110.3C150.1 110.8 150.4 111.5 151 111.7C151.5 111.9 152 111.7 152.3 111.2L153.5 108.9L151.7 108.8L151 109.1Z" fill="#FF7254"/>
<path d="M153.2 109.1L152.6 110.3C152.3 110.8 152.6 111.5 153.2 111.7C153.7 111.9 154.2 111.7 154.5 111.2L155.7 108.9L153.9 108.8L153.2 109.1Z" fill="#FF7254"/>
<path d="M177.5 102.6L164.7 85.5999L161.1 94.7999L168.7 103.2L157.7 103.4L156.3 109.2H175C177.9 109.2 179.3 105.2 177.5 102.6Z" fill="#79D4E7"/>
<path d="M85.2002 55.0998H110.2C114.1 55.0998 117.2 51.9998 117.2 48.0998V23.2998C117.2 19.3998 114.1 16.2998 110.2 16.2998H85.2002C81.3002 16.2998 78.2002 19.3998 78.2002 23.2998V48.0998C78.2002 51.9998 81.3002 55.0998 85.2002 55.0998Z" fill="#004CBC"/>
<path d="M85.2002 55.0998H110.2C114.1 55.0998 117.2 51.9998 117.2 48.0998V23.2998C117.2 19.3998 114.1 16.2998 110.2 16.2998H85.2002C81.3002 16.2998 78.2002 19.3998 78.2002 23.2998V48.0998C78.2002 51.9998 81.3002 55.0998 85.2002 55.0998Z" fill="#004CBC"/>
<path d="M109.2 53.1997V60.8997C109.2 61.7997 108.2 62.1997 107.6 61.5997L99.2002 53.1997H109.2Z" fill="#004CBC"/>
<path d="M96.0004 24.4998H99.3004C100.1 24.4998 100.7 25.0998 100.6 25.8998L99.9004 38.2998C99.9004 38.9998 99.3004 39.5998 98.6004 39.5998H96.7004C96.0004 39.5998 95.4004 38.9998 95.4004 38.2998L94.7004 25.8998C94.6004 25.1998 95.2004 24.4998 96.0004 24.4998Z" fill="white"/>
<path d="M97.7006 46.4998C99.1365 46.4998 100.301 45.3357 100.301 43.8998C100.301 42.4639 99.1365 41.2998 97.7006 41.2998C96.2646 41.2998 95.1006 42.4639 95.1006 43.8998C95.1006 45.3357 96.2646 46.4998 97.7006 46.4998Z" fill="white"/>
</svg>
