<svg width="286" height="228" viewBox="0 0 286 228" fill="none" xmlns="http://www.w3.org/2000/svg">
<path d="M270.922 18.1266L12.6618 37.5617C5.52238 38.1007 0 44.0502 0 51.21V179.455C0 187.012 6.13259 193.144 13.689 193.144H271.959C279.516 193.144 285.648 187.012 285.648 179.455V31.7749C285.638 23.8117 278.865 17.5265 270.922 18.1266Z" fill="#FDEAE3"/>
<path d="M208.915 87.9851C217.436 87.9851 224.343 78.6371 224.343 67.1058C224.343 55.5745 217.436 46.2266 208.915 46.2266C200.394 46.2266 193.487 55.5745 193.487 67.1058C193.487 78.6371 200.394 87.9851 208.915 87.9851Z" stroke="white" stroke-width="0.875287" stroke-miterlimit="10" stroke-linecap="round" stroke-linejoin="round"/>
<path d="M266.427 73.5645H238.449V111.53H266.427V73.5645Z" stroke="#F3C8BC" stroke-width="0.875287" stroke-miterlimit="10" stroke-linecap="round" stroke-linejoin="round"/>
<path d="M262.634 77.4189H241.887V107.97H262.634V77.4189Z" stroke="white" stroke-width="0.875287" stroke-miterlimit="10" stroke-linecap="round" stroke-linejoin="round"/>
<path d="M208.763 194.863H168.407V122.808H195.887C202.996 122.808 208.763 128.574 208.763 135.683V194.863Z" fill="#FF9D14"/>
<path d="M192.785 123.509C199.823 123.509 205.538 129.214 205.538 136.262V194.873H165.58V123.519" stroke="#5616FF" stroke-width="0.875287" stroke-miterlimit="10" stroke-linecap="round" stroke-linejoin="round"/>
<path d="M113.488 195.402C113.488 195.402 87.0867 197.283 85.6832 195.402C71.7196 176.689 69.6348 159.918 69.6348 159.918L80.2015 139.974L97.1958 173.18C97.1958 173.18 109.288 136.496 111.851 131.94C114.577 127.099 122.306 118.2 130.178 118.2" fill="#9A86FF"/>
<path d="M78.9515 162.389C77.5175 163.468 76.0123 164.8 74.2122 164.718C72.1375 164.637 70.6222 162.684 69.9103 160.742C69.2797 159.033 69.0255 157.152 69.4424 155.372C69.8594 153.602 71.0188 151.965 72.6664 151.182C73.8156 150.643 75.1174 150.541 76.3785 150.551C79.2668 150.572 87.7283 151.182 87.7894 155.321C87.8402 159.074 81.3211 160.61 78.9515 162.389Z" fill="#5616FF" stroke="#5616FF" stroke-width="0.875287" stroke-miterlimit="10" stroke-linecap="round" stroke-linejoin="round"/>
<path d="M87.5448 155.484L73.6016 155.759L77.1814 163.692C77.7917 163.285 78.3815 162.817 78.951 162.39C81.1885 160.712 87.138 159.237 87.7279 155.922L87.5448 155.484Z" fill="white" stroke="#5616FF" stroke-width="0.875287" stroke-miterlimit="10" stroke-linecap="round" stroke-linejoin="round"/>
<path d="M108.119 195.402C108.119 195.402 89.2733 199.948 84.3001 193.51C73.2553 179.221 69.6348 159.928 69.6348 159.928L80.2015 139.985L97.1958 173.19C97.1958 173.19 99.0366 167.963 101.294 161.098C104.884 150.185 110 135.235 112.604 130.547C114.709 126.753 118.167 122.767 123.74 120.112" stroke="#5616FF" stroke-width="0.875287" stroke-miterlimit="10" stroke-linecap="round" stroke-linejoin="round"/>
<path d="M80.2021 139.975C80.2021 139.975 100.39 178.357 99.8305 179.862L80.2021 139.975Z" fill="#9A86FF"/>
<path d="M80.2021 139.975C80.2021 139.975 100.39 178.357 99.8305 179.862" stroke="#5616FF" stroke-width="0.875287" stroke-miterlimit="10" stroke-linecap="round" stroke-linejoin="round"/>
<path d="M115.533 144.307L110.275 195.331C110.265 195.422 187.08 195.402 187.08 195.402L183.561 127.913C182.422 122.035 172.892 117.804 166.841 117.397L159.997 116.624L127.951 118.556" fill="#9A86FF"/>
<path d="M184.862 152.931C183.245 152.758 181.557 153.297 180.367 154.406L179.015 156.216C180.581 158.657 180.967 161.83 180.032 164.576C179.554 166 178.75 167.596 179.513 168.888C180.042 169.793 181.161 170.159 181.893 170.922C182.534 171.593 182.828 172.509 183.093 173.393C183.622 175.112 184.14 176.841 184.669 178.56C184.812 179.028 185.015 179.546 185.473 179.699C185.747 179.79 186.002 179.719 186.246 179.567L184.862 152.931Z" fill="#5616FF"/>
<path d="M115.533 144.307C115.533 153.135 110.275 186.371 110.275 195.331C110.275 203.233 187.08 195.402 187.08 195.402L183.988 126.092C179.34 122.096 173.97 118.19 166.831 117.397L159.986 116.624L127.94 118.556" stroke="#5616FF" stroke-width="0.875287" stroke-miterlimit="10" stroke-linecap="round" stroke-linejoin="round"/>
<path d="M135.354 118.343L135.955 99.66L156.641 94.4834L157.332 116.685L142.88 171.756L136.107 171.736L135.354 118.343Z" fill="white" stroke="#5616FF" stroke-width="0.875287" stroke-miterlimit="10" stroke-linecap="round" stroke-linejoin="round"/>
<path d="M148.26 99.752L151.382 101.481C148.667 108.183 135.659 116.624 135.659 116.624L134.927 104.603H136.859L140.47 103.84L147.365 101.532L148.26 99.752Z" fill="#5616FF"/>
<path d="M158.43 92.7752L156.01 78.8726C154.627 70.8484 147.009 65.4684 138.985 66.8515L137.48 67.1058C129.456 68.4889 124.584 79.0048 126.018 87.5376L127.971 98.7552C129.018 105.264 132.476 109.007 140.012 109.068C145.535 109.108 150.498 105.996 152.044 102.905L156 96.9958L156.203 94.1583L158.43 92.7752Z" fill="white"/>
<path d="M125.794 83.5508C125.733 84.9034 125.804 86.2459 126.028 87.5375L127.981 98.7551C129.028 105.264 132.486 109.007 140.022 109.068C144.162 109.098 147.996 107.359 150.304 105.183" stroke="#5616FF" stroke-width="0.875287" stroke-miterlimit="10" stroke-linecap="round" stroke-linejoin="round"/>
<path d="M158.43 92.7752L156.01 78.8726C154.626 70.8484 147.009 65.4684 138.985 66.8515L137.48 67.1058C133.422 67.8075 130.167 70.8382 128.133 74.7741" stroke="#5616FF" stroke-width="0.875287" stroke-miterlimit="10" stroke-linecap="round" stroke-linejoin="round"/>
<path d="M157.871 89.7449L156 78.873" stroke="#5616FF" stroke-width="0.875287" stroke-miterlimit="10" stroke-linecap="round" stroke-linejoin="round"/>
<path d="M126.018 87.5381L127.524 96.1522" stroke="#FF9D14" stroke-width="0.875287" stroke-miterlimit="10" stroke-linecap="round" stroke-linejoin="round"/>
<path d="M95.335 153.135H83.2935C80.8934 153.135 78.3102 151.193 77.5271 148.803L68.6486 121.933C67.8553 119.533 69.1571 117.601 71.5572 117.601H83.1715C85.5716 117.601 87.504 118.465 88.2972 120.865L97.8165 148.813C98.5996 151.193 97.7249 153.135 95.335 153.135Z" fill="white" stroke="#5616FF" stroke-width="0.875287" stroke-miterlimit="10" stroke-linecap="round" stroke-linejoin="round"/>
<path d="M92.2738 153.135H80.6595C78.2593 153.135 75.6761 151.193 74.893 148.803L66.0145 121.933C65.2213 119.533 66.523 117.601 68.9232 117.601H80.5375C82.9376 117.601 85.0835 119.004 85.8768 121.404L95.1824 148.813C95.9757 151.193 94.6739 153.135 92.2738 153.135Z" fill="#5616FF" stroke="#5616FF" stroke-width="0.875287" stroke-miterlimit="10" stroke-linecap="round" stroke-linejoin="round"/>
<path d="M76.1642 138.795L81.6967 156.268L75.5438 156.349C70.4181 156.349 68.2213 153.837 66.9907 150.501L64.6719 143.484C63.5125 138.653 65.3635 135.663 68.4044 133.822L69.6756 133.039L71.5774 138.795H76.2252" fill="white"/>
<path d="M76.1642 138.795L81.6967 156.268L75.5438 156.349C70.4181 156.349 68.2213 153.837 66.9907 150.501L64.6719 143.484C63.5125 138.653 65.3635 135.663 68.4044 133.822L69.6756 133.039L71.5774 138.795H76.2252" stroke="#5616FF" stroke-width="0.875287" stroke-miterlimit="10" stroke-linecap="round" stroke-linejoin="round"/>
<path d="M77.0898 149.901H84.6666C86.4464 149.901 87.8905 151.346 87.8905 153.125C87.8905 154.905 86.4464 156.349 84.6666 156.349H78.0357" fill="white"/>
<path d="M77.0898 149.901H84.6666C86.4464 149.901 87.8905 151.346 87.8905 153.125C87.8905 154.905 86.4464 156.349 84.6666 156.349H78.0357" stroke="#5616FF" stroke-width="0.875287" stroke-miterlimit="10" stroke-linecap="round" stroke-linejoin="round"/>
<path d="M75.7878 144.725H82.3272C84.0765 144.725 85.4901 146.138 85.4901 147.888C85.4901 149.637 84.0765 151.05 82.3272 151.05H76.2658" fill="white"/>
<path d="M75.7878 144.725H82.3272C84.0765 144.725 85.4901 146.138 85.4901 147.888C85.4901 149.637 84.0765 151.05 82.3272 151.05H76.2658" stroke="#5616FF" stroke-width="0.875287" stroke-miterlimit="10" stroke-linecap="round" stroke-linejoin="round"/>
<path d="M70.0723 139.009H80.7102C82.4798 139.009 83.9036 140.443 83.9036 142.202C83.9036 143.972 82.4696 145.396 80.7102 145.396H74.1098" fill="white"/>
<path d="M70.0723 139.009H80.7102C82.4798 139.009 83.9036 140.443 83.9036 142.202C83.9036 143.972 82.4696 145.396 80.7102 145.396H74.1098" stroke="#5616FF" stroke-width="0.875287" stroke-miterlimit="10" stroke-linecap="round" stroke-linejoin="round"/>
<path d="M138.182 173.404L157.566 115.933L157.444 111.875L164.288 114.529C167.604 115.963 167.878 120.662 166.994 123.205L149.328 173.689" fill="#9A86FF"/>
<path d="M138.182 173.404L157.566 115.933L157.444 111.875L162.946 113.695C169.048 115.862 167.746 121.689 166.272 125.249L149.328 173.689" stroke="#5616FF" stroke-width="0.875287" stroke-miterlimit="10" stroke-linecap="round" stroke-linejoin="round"/>
<path d="M141.965 195.402L135.222 114.092L129.293 116.38C127.045 117.245 125.642 119.492 125.855 121.892L131.968 195.453L141.965 195.402Z" fill="#9A86FF"/>
<path d="M141.965 190.897L135.222 114.092L131.347 115.587C128.733 116.634 125.774 118.668 125.845 123.52L131.53 190.937" stroke="#5616FF" stroke-width="0.875287" stroke-miterlimit="10" stroke-linecap="round" stroke-linejoin="round"/>
<path d="M154.281 85.2493L154.657 89.6326C154.749 90.3649 154.271 91.0361 153.549 91.1989H153.529C152.623 91.4023 151.739 90.8022 151.586 89.8869L150.691 84.4967C150.691 84.4967 146.908 83.8458 144.07 79.7168C143.145 78.3743 141.365 77.9573 139.911 78.6794C136.127 80.5304 129.741 82.0051 123.628 81.8932C121.655 81.8627 119.876 80.9067 118.34 80.1541C113.601 77.8658 114.028 65.9363 124.096 68.7941C124.096 68.7941 122.205 65.143 123.852 63.0276C125.154 61.3597 128.937 60.7495 132.334 61.3495C134.765 61.7767 136.534 62.7327 139.229 64.8175C139.229 64.8175 140.582 61.6851 144.07 61.8682C147.416 62.0411 151.627 63.587 154.627 67.8584C155.725 69.4246 157.149 71.7332 157.617 73.9401C160.759 88.9716 158.278 93.6804 158.278 93.6804" fill="white"/>
<path d="M154.281 85.2493L154.657 89.6326C154.749 90.3649 154.271 91.0361 153.549 91.1989H153.529C152.623 91.4023 151.739 90.8022 151.586 89.8869L150.691 84.4967C150.691 84.4967 146.908 83.8458 144.07 79.7168C143.145 78.3743 141.365 77.9573 139.911 78.6794C136.127 80.5304 129.741 82.0051 123.628 81.8932C121.655 81.8627 119.876 80.9067 118.34 80.1541C113.601 77.8658 114.028 65.9363 124.096 68.7941C124.096 68.7941 122.205 65.143 123.852 63.0276C125.154 61.3597 128.937 60.7495 132.334 61.3495C134.765 61.7767 136.534 62.7327 139.229 64.8175C139.229 64.8175 140.582 61.6851 144.07 61.8682C147.416 62.0411 151.627 63.587 154.627 67.8584C155.725 69.4246 157.149 71.7332 157.617 73.9401C160.759 88.9716 158.278 93.6804 158.278 93.6804" stroke="#FF9D14" stroke-width="0.875287" stroke-miterlimit="10" stroke-linecap="round" stroke-linejoin="round"/>
<path d="M144.172 137.341C142.758 136.538 140.196 138.226 139.87 140.107C139.718 140.992 139.707 141.917 140.053 142.751C140.399 143.575 141.101 144.277 141.975 144.48C142.85 144.684 143.857 144.297 144.274 143.494C144.416 143.229 144.477 142.894 144.335 142.629C144.182 142.334 143.826 142.212 143.491 142.182C142.718 142.111 141.925 142.467 141.457 143.087C140.735 144.033 140.867 145.375 141.213 146.514C141.528 147.552 142.006 148.538 142.616 149.433" stroke="#FF9D14" stroke-width="0.875287" stroke-miterlimit="10" stroke-linecap="round" stroke-linejoin="round"/>
<path d="M156 94.4839C158.695 94.4839 161.614 92.4397 161.614 89.7446C161.614 87.0495 159.427 84.7918 156.732 84.863C155.736 84.8935 155.064 85.2088 154.617 85.6054" fill="white"/>
<path d="M156.732 94.6263C159.427 94.6263 161.614 92.4397 161.614 89.7446C161.614 87.0495 159.427 84.7918 156.732 84.863C154.068 84.9342 153.742 87.1004 153.742 87.1004" stroke="#5616FF" stroke-width="0.875287" stroke-miterlimit="10" stroke-linecap="round" stroke-linejoin="round"/>
<path d="M112.604 149.342L114.261 155.027" stroke="#5616FF" stroke-width="0.875287" stroke-miterlimit="10" stroke-linecap="round" stroke-linejoin="round"/>
<path d="M233.74 227.743H12.9875L34.6397 193.134H255.393L233.74 227.743Z" fill="white"/>
<path d="M179.747 156.338L197.941 178.316L181.71 178.621C179.706 178.662 177.977 180.045 177.509 181.987L172.882 195.473H211.864C222.35 195.473 228.696 183.94 223.123 175.061C211.671 156.796 196.131 135.357 181.628 124.19" fill="#9A86FF"/>
<path d="M178.435 154.762L197.941 178.316L181.71 178.621C179.706 178.662 177.977 180.045 177.509 181.987L172.882 195.473H211.864C222.35 195.473 228.696 183.94 223.123 175.061C211.671 156.796 196.131 135.357 181.628 124.19" stroke="#5616FF" stroke-width="0.875287" stroke-miterlimit="10" stroke-linecap="round" stroke-linejoin="round"/>
<path d="M170.147 186.696L164.34 190.429C163.435 191.008 162.957 192.056 163.109 193.124C163.302 194.476 164.462 195.473 165.825 195.473H167.93" fill="white"/>
<path d="M170.147 186.696L164.34 190.429C163.435 191.008 162.957 192.056 163.109 193.124C163.302 194.476 164.462 195.473 165.825 195.473H167.93" stroke="#5616FF" stroke-width="0.875287" stroke-miterlimit="10" stroke-linecap="round" stroke-linejoin="round"/>
<path d="M192.623 190.063L191.738 187.185C190.538 183.269 186.927 180.604 182.839 180.604H177.754C175.354 180.604 173.127 181.855 171.876 183.9L166.424 192.788C165.702 193.968 166.546 195.494 167.94 195.494H188.616C191.433 195.483 193.446 192.758 192.623 190.063Z" fill="white" stroke="#5616FF" stroke-width="0.875287" stroke-miterlimit="10" stroke-linecap="round" stroke-linejoin="round"/>
<path d="M174.682 186.371L170.746 192.778C170.024 193.958 170.868 195.484 172.262 195.484" fill="white"/>
<path d="M174.682 186.371L170.746 192.778C170.024 193.958 170.868 195.484 172.262 195.484" stroke="#5616FF" stroke-width="0.875287" stroke-miterlimit="10" stroke-linecap="round" stroke-linejoin="round"/>
<path d="M179.747 186.696L176.015 192.778C175.292 193.958 176.137 195.483 177.53 195.483" fill="white"/>
<path d="M179.747 186.696L176.015 192.778C175.292 193.958 176.137 195.483 177.53 195.483" stroke="#5616FF" stroke-width="0.875287" stroke-miterlimit="10" stroke-linecap="round" stroke-linejoin="round"/>
<path d="M182.137 191.537H183.581C184.669 191.537 185.554 192.422 185.554 193.51C185.554 194.598 184.669 195.483 183.581 195.483H180.52" fill="white"/>
<path d="M182.137 191.537H183.581C184.669 191.537 185.554 192.422 185.554 193.51C185.554 194.598 184.669 195.483 183.581 195.483H180.52" stroke="#5616FF" stroke-width="0.875287" stroke-miterlimit="10" stroke-linecap="round" stroke-linejoin="round"/>
<path d="M49.8237 160.579C50.5255 159.105 50.078 157.345 49.3457 155.891C48.6135 154.436 47.6066 153.104 47.1083 151.558C46.1625 148.578 47.4744 145.039 50.139 143.402C50.678 143.066 51.2984 142.802 51.9289 142.873C52.529 142.934 53.0477 143.28 53.5257 143.646C54.9088 144.704 56.1902 146.168 56.2411 147.907C56.3021 149.931 54.7257 151.568 53.4443 153.124C52.1527 154.681 51.0238 156.877 52.0205 158.637C52.4476 159.389 53.19 159.908 53.8002 160.528C55.5597 162.349 52.5798 167.312 50.2915 167.21C46.0303 167.017 49.061 162.186 49.8237 160.579Z" fill="white"/>
<path d="M60.5938 173.292L40.2637 173.404C39.3382 173.404 38.5958 174.146 38.5958 175.072L38.5856 179.882C38.1178 179.76 37.6296 179.689 37.1211 179.689C33.9175 179.689 31.314 182.293 31.314 185.496V189.788C31.314 192.992 33.9175 195.595 37.1211 195.595C37.6296 195.595 38.1178 195.524 38.5856 195.402V198.229C38.5856 199.155 39.328 199.897 40.2535 199.897H60.5938C61.5192 199.897 62.2617 199.155 62.2617 198.229V174.96C62.2718 174.034 61.5192 173.292 60.5938 173.292ZM37.1313 191.863C35.9821 191.863 35.0566 190.927 35.0566 189.788V185.496C35.0566 184.347 35.9922 183.421 37.1313 183.421C37.7008 183.421 38.2195 183.655 38.5958 184.032V191.263C38.2195 191.629 37.7008 191.863 37.1313 191.863Z" fill="white" stroke="#5616FF" stroke-width="0.875287" stroke-miterlimit="10" stroke-linecap="round" stroke-linejoin="round"/>
<path d="M38.5957 181.143V178.601" stroke="#5616FF" stroke-width="0.875287" stroke-miterlimit="10" stroke-linecap="round" stroke-linejoin="round"/>
<path d="M54.3901 173.414V182.008" stroke="#FF9D14" stroke-width="0.875287" stroke-miterlimit="10" stroke-linecap="round" stroke-linejoin="round"/>
<path d="M56.3426 191.008H52.417C51.7559 191.008 51.2271 190.48 51.2271 189.818V186.289C51.2271 185.944 51.3796 185.608 51.644 185.384L53.6069 183.727C54.0543 183.35 54.6951 183.35 55.1425 183.727L57.1054 185.384C57.3698 185.608 57.5224 185.944 57.5224 186.289V189.818C57.5325 190.48 57.0037 191.008 56.3426 191.008Z" fill="#9A86FF"/>
<path d="M114.272 217.085H139.24" stroke="#FF9D14" stroke-width="0.875287" stroke-miterlimit="10" stroke-linecap="round" stroke-linejoin="round"/>
<path d="M116.764 213.2H141.731" stroke="#FF9D14" stroke-width="0.875287" stroke-miterlimit="10" stroke-linecap="round" stroke-linejoin="round"/>
<path d="M119.255 209.314H144.223" stroke="#FF9D14" stroke-width="0.875287" stroke-miterlimit="10" stroke-linecap="round" stroke-linejoin="round"/>
<path d="M121.757 205.43H146.715" stroke="#FF9D14" stroke-width="0.875287" stroke-miterlimit="10" stroke-linecap="round" stroke-linejoin="round"/>
<path d="M124.249 201.545H149.207" stroke="#FF9D14" stroke-width="0.875287" stroke-miterlimit="10" stroke-linecap="round" stroke-linejoin="round"/>
<path d="M155.156 198.89L140.785 221.265H107.305L122.54 197.548H152.186" stroke="#5616FF" stroke-width="0.875287" stroke-miterlimit="10" stroke-linecap="round" stroke-linejoin="round"/>
<path d="M191.474 204.393H161.441V207.861H191.474V204.393Z" fill="#FF9D14"/>
<path d="M156.153 206.406H158.054" stroke="#5616FF" stroke-width="0.875287" stroke-miterlimit="10" stroke-linecap="round" stroke-linejoin="round"/>
<path d="M161.441 204.393L157.434 205.908V206.894L161.441 207.871V204.393Z" fill="#FF9D14"/>
<path d="M196.111 204.067H184.985V208.257H196.111V204.067Z" fill="white" stroke="#5616FF" stroke-width="0.875287" stroke-miterlimit="10" stroke-linecap="round" stroke-linejoin="round"/>
<path d="M195.196 208.451V209.946H186.093" stroke="#5616FF" stroke-width="0.875287" stroke-miterlimit="10" stroke-linecap="round" stroke-linejoin="round"/>
<path d="M128.632 96.9959C131.485 96.9959 133.798 94.6828 133.798 91.8295C133.798 88.9762 131.485 86.6631 128.632 86.6631C125.778 86.6631 123.465 88.9762 123.465 91.8295C123.465 94.6828 125.778 96.9959 128.632 96.9959Z" stroke="#5616FF" stroke-width="0.875287" stroke-miterlimit="10" stroke-linecap="round" stroke-linejoin="round"/>
<path d="M140.378 94.9823C143.232 94.9823 145.545 92.6692 145.545 89.8158C145.545 86.9625 143.232 84.6494 140.378 84.6494C137.525 84.6494 135.212 86.9625 135.212 89.8158C135.212 92.6692 137.525 94.9823 140.378 94.9823Z" stroke="#5616FF" stroke-width="0.875287" stroke-miterlimit="10" stroke-linecap="round" stroke-linejoin="round"/>
<path d="M132.313 88.2189C132.313 88.2189 132.873 87.2934 133.849 87.1205C134.825 86.9476 135.649 87.6392 135.649 87.6392" stroke="#5616FF" stroke-width="0.875287" stroke-miterlimit="10" stroke-linecap="round" stroke-linejoin="round"/>
<path d="M145.219 87.4868L153.864 86.002" stroke="#5616FF" stroke-width="0.875287" stroke-miterlimit="10" stroke-linecap="round" stroke-linejoin="round"/>
<path d="M134.51 99.7828C134.51 99.7828 139.189 100.098 141.202 98.3184L134.51 99.7828Z" fill="white"/>
<path d="M134.51 99.7828C134.51 99.7828 139.189 100.098 141.202 98.3184" stroke="#FF9D14" stroke-width="0.875287" stroke-miterlimit="10" stroke-linecap="round" stroke-linejoin="round"/>
<path d="M197.942 178.316C203.169 178.184 204.918 180.269 203.128 181.316C200.911 182.618 197.504 177.93 195.613 175.499" stroke="#5616FF" stroke-width="0.875287" stroke-miterlimit="10" stroke-linecap="round" stroke-linejoin="round"/>
<path d="M156.172 87.2529C156.254 87.8936 156.406 88.5242 156.64 89.1344C156.661 88.8598 156.681 88.5649 156.844 88.3411C156.945 88.1886 157.108 88.0869 157.271 88.0157C157.779 87.8021 158.4 87.9343 158.796 88.3106C159.193 88.6971 159.345 89.2971 159.203 89.826C159.061 90.3548 158.634 90.7921 158.115 90.9752" stroke="#FF9D14" stroke-width="0.875287" stroke-miterlimit="10" stroke-linecap="round" stroke-linejoin="round"/>
<path d="M272.417 148.548L271.135 176.231" stroke="#5616FF" stroke-width="0.875287" stroke-miterlimit="10" stroke-linecap="round" stroke-linejoin="round"/>
<path d="M263.569 155.331L269.986 175.142" stroke="#5616FF" stroke-width="0.875287" stroke-miterlimit="10" stroke-linecap="round" stroke-linejoin="round"/>
<path d="M271.511 168.105L278.264 156.186" stroke="#5616FF" stroke-width="0.875287" stroke-miterlimit="10" stroke-linecap="round" stroke-linejoin="round"/>
<path d="M279.241 156.938C280.589 156.938 281.681 155.845 281.681 154.497C281.681 153.149 280.589 152.057 279.241 152.057C277.893 152.057 276.8 153.149 276.8 154.497C276.8 155.845 277.893 156.938 279.241 156.938Z" fill="#F3C8BC"/>
<path d="M272.722 148.548C274.07 148.548 275.163 147.455 275.163 146.107C275.163 144.759 274.07 143.666 272.722 143.666C271.374 143.666 270.281 144.759 270.281 146.107C270.281 147.455 271.374 148.548 272.722 148.548Z" fill="#F3C8BC"/>
<path d="M262.694 155.84C264.042 155.84 265.135 154.747 265.135 153.399C265.135 152.051 264.042 150.958 262.694 150.958C261.346 150.958 260.253 152.051 260.253 153.399C260.253 154.747 261.346 155.84 262.694 155.84Z" fill="#F3C8BC"/>
<path d="M276.881 178.743C275.437 176.831 275.498 173.2 275.498 173.2H266.101C266.101 173.2 266.162 176.831 264.717 178.743C263.629 180.177 261.534 183.462 261.534 185.811C261.534 190.927 264.433 194.334 270.921 194.334C277.105 194.334 280.064 190.327 280.064 185.811C280.074 183.543 277.969 180.177 276.881 178.743Z" fill="white"/>
<path d="M246.199 193.582C250.48 193.582 253.958 190.114 253.958 185.822V179.079H238.449V185.822C238.449 190.114 241.917 193.582 246.199 193.582Z" fill="white"/>
<path d="M246.727 183.543C248.243 183.543 249.473 182.313 249.473 180.797V160.498C249.473 158.983 248.243 157.752 246.727 157.752C245.212 157.752 243.982 158.983 243.982 160.498V180.797C243.971 182.313 245.202 183.543 246.727 183.543Z" fill="white"/>
<path d="M246.301 173.973H242.497C240.412 173.973 238.714 172.275 238.714 170.19V165.268" stroke="white" stroke-width="2.62586" stroke-miterlimit="10" stroke-linecap="round"/>
<path d="M34.9647 62.3973C32.9103 60.2616 28.9745 61.6346 27.5303 64.2279C26.0862 66.8213 26.3608 69.9842 26.615 72.9437C27.7337 85.8191 27.7337 98.786 26.615 111.651" stroke="#F3C8BC" stroke-width="0.875287" stroke-miterlimit="10" stroke-linecap="round" stroke-linejoin="round"/>
<path d="M33.0221 83.8357C33.2763 84.4459 33.3984 85.2086 33.0018 85.7375C32.6966 86.1341 32.1576 86.2968 31.6593 86.2867C29.6354 86.2256 25.0385 83.4289 27.1234 81.0592C29.0557 78.8625 32.2492 81.9644 33.0221 83.8357Z" fill="#F3C8BC"/>
<path d="M20.747 90.4771C20.4622 91.1687 20.3199 92.023 20.7674 92.623C21.1131 93.0705 21.7132 93.2536 22.2827 93.2434C24.5608 93.1722 29.7476 90.0195 27.3881 87.3549C25.2117 84.8734 21.6216 88.3618 20.747 90.4771Z" fill="#F3C8BC"/>
<path d="M21.5606 99.4675C21.3063 100.078 21.1843 100.84 21.5809 101.369C21.886 101.766 22.425 101.929 22.9234 101.919C24.9472 101.857 29.5441 99.0607 27.4592 96.6911C25.5269 94.4943 22.3335 97.5962 21.5606 99.4675Z" fill="#F3C8BC"/>
<path d="M22.3741 114.54C22.1198 115.15 21.9978 115.913 22.3944 116.442C22.6995 116.838 23.2385 117.001 23.7368 116.991C25.7607 116.93 30.3576 114.133 28.2727 111.763C26.3302 109.567 23.147 112.668 22.3741 114.54Z" fill="#F3C8BC"/>
<path d="M34.7308 101.837C34.9851 102.447 35.1071 103.21 34.7105 103.738C34.4054 104.135 33.8664 104.298 33.368 104.288C31.3442 104.227 26.7473 101.43 28.8322 99.0602C30.7747 96.8635 33.9579 99.9653 34.7308 101.837Z" fill="#F3C8BC"/>
<path d="M26.8897 89.5002C26.8897 89.5002 29.3407 88.6459 31.4764 90.2324C33.6122 91.819 33.6223 96.2125 33.6223 96.2125C33.6223 96.2125 31.3544 95.9684 28.4559 93.8937C25.5574 91.819 26.0151 90.2731 26.8897 89.5002Z" fill="#F3C8BC"/>
<path d="M46.4773 1V42.8602" stroke="white" stroke-width="0.875287" stroke-miterlimit="10" stroke-linecap="round" stroke-linejoin="round"/>
<path d="M63.4716 62.6006L46.4774 42.8604L28.4661 64.2583" stroke="white" stroke-width="0.875287" stroke-miterlimit="10" stroke-linecap="round" stroke-linejoin="round"/>
<path d="M46.4773 42.8604V64.2583" stroke="white" stroke-width="0.875287" stroke-miterlimit="10" stroke-linecap="round" stroke-linejoin="round"/>
<path d="M67.5191 62.6006C65.5868 72.4148 56.9422 79.8186 46.5686 79.8186C36.1951 79.8186 27.5403 72.4148 25.6182 62.6006H67.5191Z" fill="white"/>
<path d="M58.1426 62.8242V98.6943" stroke="#F3C8BC" stroke-width="0.875287" stroke-miterlimit="10" stroke-linecap="round" stroke-linejoin="round"/>
<path d="M34.4257 75.3839C34.6799 75.9941 34.802 76.7569 34.4053 77.2857C34.1002 77.6824 33.5612 77.8451 33.0629 77.8349C31.039 77.7739 26.4421 74.9771 28.527 72.6075C30.4593 70.4107 33.6527 73.5024 34.4257 75.3839Z" fill="#F3C8BC"/>
<path d="M51.9999 58.9699C52.2541 59.5801 52.3762 60.3428 51.9795 60.8717C51.6744 61.2683 51.1354 61.431 50.6371 61.4209C48.6132 61.3598 44.0163 58.563 46.1012 56.1934C48.0335 53.9967 51.2269 57.0884 51.9999 58.9699Z" fill="#F3C8BC"/>
<path d="M37.9345 51.6979C37.5276 50.9555 37.2429 50.0096 37.6294 49.2672C37.9243 48.7079 38.5345 48.4129 39.1345 48.3519C41.5652 48.0977 47.5452 50.9148 45.4603 54.2913C43.528 57.4033 39.1854 53.9658 37.9345 51.6979Z" fill="#F3C8BC"/>
<path d="M41.0362 61.1564C40.2938 61.2683 36.8054 61.8581 36.8054 61.8581C36.8054 61.8581 37.7919 53.1729 44.2703 55.99C47.2603 57.2816 43.3041 60.8106 41.0362 61.1564Z" fill="#F3C8BC"/>
<path d="M63.2272 92.989C63.4814 93.5992 63.6035 94.3619 63.2068 94.8908C62.9017 95.2874 62.3627 95.4502 61.8644 95.44C59.8405 95.379 55.2436 92.5822 57.3285 90.2125C59.271 88.0158 62.4542 91.1177 63.2272 92.989Z" fill="#F3C8BC"/>
<path d="M63.2272 77.3982C63.4814 78.0084 63.6035 78.7711 63.2068 79.3C62.9017 79.6966 62.3627 79.8593 61.8644 79.8492C59.8405 79.7881 55.2436 76.9914 57.3285 74.6217C59.271 72.425 62.4542 75.5269 63.2272 77.3982Z" fill="#F3C8BC"/>
<path d="M50.9629 73.3601C50.7087 73.9703 50.5866 74.733 50.9833 75.2619C51.2884 75.6585 51.8274 75.8213 52.3257 75.8111C54.3496 75.7501 58.9465 72.9533 56.8616 70.5836C54.9293 68.3869 51.7359 71.4888 50.9629 73.3601Z" fill="#F3C8BC"/>
<path d="M50.2505 87.7914C49.9047 88.4016 49.742 89.1643 50.281 89.6932C50.6878 90.0898 51.4099 90.2525 52.0811 90.2424C54.8067 90.1814 60.9901 87.3846 58.173 85.0149C55.5796 82.8284 51.2879 85.9201 50.2505 87.7914Z" fill="#F3C8BC"/>
<path d="M58.8947 97.9107C58.8947 97.9107 55.803 96.8327 53.1079 98.8362C50.4128 100.83 50.4128 106.382 50.4128 106.382C50.4128 106.382 53.2706 106.077 56.9217 103.453C60.5728 100.83 59.9931 98.8871 58.8947 97.9107Z" fill="#F3C8BC"/>
</svg>
