<svg width="13" height="12" viewBox="0 0 13 12" fill="none" xmlns="http://www.w3.org/2000/svg">
<path fill-rule="evenodd" clip-rule="evenodd" d="M10 5C10 5.19644 9.98867 5.39023 9.96663 5.58076L8.58544 7.7488L8.01566 7.06846L8.01394 7.06639C7.66897 6.65179 7.21013 6.44141 6.67578 6.44141C5.72309 6.44141 4.94141 7.17258 4.94141 8.16016C4.94141 8.61579 5.10198 8.99419 5.39794 9.33551L5.89483 9.92015C5.6045 9.97261 5.30545 10 5 10C2.23858 10 0 7.76142 0 5C0 2.23858 2.23858 0 5 0C7.76142 0 10 2.23858 10 5ZM7.24609 7.70703L8.19802 8.84369L8.69531 9.4375L11.582 4.90625C11.7578 4.63281 11.9414 4.52734 12.2266 4.52734C12.6484 4.52734 12.9648 4.83203 12.9648 5.24219C12.9648 5.39062 12.918 5.55469 12.8086 5.71875L9.38672 10.8828C9.23047 11.1133 9.00391 11.2227 8.71094 11.2227C8.44141 11.2227 8.23438 11.1289 8.05859 10.9219L6.94248 9.60866L6.15625 8.68359C5.99609 8.5 5.94141 8.34766 5.94141 8.16016C5.94141 7.74609 6.25391 7.44141 6.67578 7.44141C6.91797 7.44141 7.09375 7.52344 7.24609 7.70703Z" fill="#5616FF"/>
</svg>
