<svg width="9" height="12" viewBox="0 0 9 12" fill="none" xmlns="http://www.w3.org/2000/svg">
<path d="M1.01855 11.9849H7.30762C7.98438 11.9849 8.38086 11.6157 8.38086 10.9116V10.7407C8.3877 8.94287 6.4668 7.49365 5.65332 6.71436C5.41406 6.48877 5.29102 6.29053 5.29102 5.98975C5.29102 5.6958 5.41406 5.49756 5.65332 5.26514C6.4668 4.479 8.38086 3.11182 8.38086 1.24561V1.08838C8.38086 0.384277 7.98438 0.0151367 7.30762 0.0151367H1.01855C0.362305 0.0151367 0 0.384277 0 1.03369V1.24561C0 3.11182 1.9209 4.479 2.73438 5.26514C2.9668 5.49756 3.08984 5.6958 3.08984 5.98975C3.08984 6.29053 2.9668 6.48877 2.73438 6.71436C1.9209 7.49365 0 8.94287 0 10.7407V10.9663C0 11.6157 0.362305 11.9849 1.01855 11.9849ZM1.70898 11.0552C1.39453 11.0552 1.29199 10.6929 1.59277 10.4673L3.80078 8.81982C3.86914 8.76514 3.91016 8.72412 3.91016 8.62842V5.49072C3.91016 5.14893 3.83496 4.97119 3.58887 4.75928C3.22656 4.45166 2.52246 3.95264 2.20117 3.5083C2.07129 3.33057 2.08496 3.18018 2.24219 3.18018H6.13867C6.2959 3.18018 6.30957 3.33057 6.18652 3.5083C5.8584 3.95264 5.1543 4.4585 4.79199 4.75928C4.5459 4.97119 4.4707 5.14893 4.4707 5.49072V8.62842C4.4707 8.72412 4.51172 8.76514 4.58691 8.81982L6.78809 10.4673C7.0957 10.6929 6.99316 11.0552 6.67188 11.0552H1.70898Z" fill="#7B7B87"/>
</svg>
