<?xml version="1.0" standalone="no"?>
<!DOCTYPE svg PUBLIC "-//W3C//DTD SVG 20010904//EN"
 "http://www.w3.org/TR/2001/REC-SVG-20010904/DTD/svg10.dtd">
<svg version="1.0" xmlns="http://www.w3.org/2000/svg"
 width="700.000000pt" height="700.000000pt" viewBox="0 0 700.000000 700.000000"
 preserveAspectRatio="xMidYMid meet">
<metadata>
Created by potrace 1.14, written by Peter Selinger 2001-2017
</metadata>
<g transform="translate(0.000000,700.000000) scale(0.100000,-0.100000)"
fill="#000000" stroke="none">
<path d="M2165 6823 c-455 -92 -630 -652 -306 -983 144 -146 343 -208 538
-167 381 81 577 494 401 844 -113 226 -382 356 -633 306z"/>
<path d="M2598 5482 c-84 -28 -155 -107 -173 -192 -22 -99 -7 -162 120 -515
26 -71 48 -134 49 -140 2 -5 5 -17 8 -25 3 -8 24 -67 46 -130 22 -63 73 -207
113 -320 39 -113 75 -216 79 -230 5 -14 34 -97 65 -185 81 -227 185 -526 195
-555 4 -14 35 -101 68 -195 33 -93 92 -260 130 -370 39 -110 82 -234 97 -275
31 -86 52 -161 49 -175 -8 -47 -39 -75 -81 -75 -8 0 -50 19 -92 43 -340 190
-612 186 -810 -12 -59 -59 -79 -101 -66 -141 6 -18 83 -80 100 -80 3 0 47 -24
98 -54 51 -29 112 -65 137 -78 25 -14 173 -98 329 -187 156 -88 285 -161 287
-161 2 0 33 -18 69 -40 36 -22 67 -40 70 -40 2 0 28 -14 57 -31 105 -62 683
-386 778 -436 507 -268 1024 -231 1462 104 58 44 209 207 250 269 69 105 147
272 174 374 70 266 79 534 29 823 -7 43 -62 253 -77 297 -3 8 -29 87 -57 175
-29 88 -56 169 -61 180 -5 11 -34 94 -64 185 -100 300 -263 774 -278 810 -21
49 -102 135 -157 168 -38 22 -58 27 -116 27 -59 0 -79 -5 -124 -30 -94 -52
-144 -131 -147 -235 -2 -54 4 -85 37 -180 48 -139 50 -153 38 -189 -17 -48
-87 -67 -128 -33 -15 12 -47 92 -105 263 -84 247 -101 287 -133 324 -162 185
-468 88 -490 -155 -5 -51 3 -80 87 -328 108 -318 109 -337 22 -361 -23 -7 -37
-5 -61 10 -17 10 -31 20 -31 22 0 2 -41 122 -91 268 -49 145 -104 305 -120
354 -37 108 -58 144 -111 189 -146 125 -389 56 -442 -125 -28 -93 -24 -120 48
-324 174 -497 183 -523 180 -542 -1 -7 -2 -20 -3 -28 -4 -54 -103 -76 -138
-31 -11 13 -45 95 -75 183 -105 298 -316 898 -331 943 -9 25 -39 110 -68 190
-28 80 -57 163 -64 185 -8 22 -37 105 -65 185 -28 80 -69 195 -90 255 -63 180
-70 198 -95 241 -68 116 -211 175 -327 136z"/>
</g>
</svg>
