<svg width="12" height="12" viewBox="0 0 12 12" fill="none" xmlns="http://www.w3.org/2000/svg">
<path d="M5.13682 11.5C5.53483 11.5 5.8466 11.3362 6.06551 11.0017L11.2745 2.14505C11.4337 1.89932 11.5 1.67406 11.5 1.46246C11.5 0.90273 11.102 0.5 10.5448 0.5C10.16 0.5 9.92786 0.636519 9.69569 1.01877L5.11028 9.11092L2.25788 5.41126C2.03234 5.1314 1.80017 5.00171 1.46849 5.00171C0.904643 5.00171 0.5 5.41126 0.5 5.97782C0.5 6.22355 0.579602 6.45563 0.78524 6.70136L4.21476 11.0358C4.47347 11.3567 4.75871 11.5 5.13682 11.5Z" fill="currentColor"/>
</svg>
