<svg width="16" height="16" viewBox="0 0 16 16" fill="none" xmlns="http://www.w3.org/2000/svg">
<path fill-rule="evenodd" clip-rule="evenodd" d="M12.5303 0.46967C12.2375 0.176777 11.7626 0.176777 11.4697 0.46967L9.46985 2.46951C9.46979 2.46956 9.46974 2.46962 9.46969 2.46967C9.46963 2.46972 9.46958 2.46978 9.46953 2.46983L1.46969 10.4697C1.37357 10.5658 1.30538 10.6862 1.27241 10.8181L0.272409 14.8181C0.208514 15.0737 0.283401 15.344 0.469686 15.5303C0.655971 15.7166 0.926336 15.7915 1.18192 15.7276L5.18192 14.7276C5.31379 14.6946 5.43423 14.6264 5.53035 14.5303L13.5301 6.53056C13.5302 6.53048 13.5303 6.53041 13.5303 6.53033C13.5304 6.53025 13.5305 6.53018 13.5306 6.5301L15.5303 4.53033C15.8232 4.23744 15.8232 3.76256 15.5303 3.46967L12.5303 0.46967ZM13 4.93934L13.9394 4L12 2.06066L11.0607 3L13 4.93934ZM10 4.06066L2.67724 11.3834L2.03079 13.9692L4.61658 13.3228L11.9394 6L10 4.06066Z" fill="#5616FF"/>
</svg>
