<svg width="20" height="19" viewBox="0 0 20 19" fill="none" xmlns="http://www.w3.org/2000/svg">
<path d="M3.16992 18.1094H17.6816C19.0781 18.1094 19.9668 17.0938 19.9668 15.8145C19.9668 15.4336 19.8691 15.0527 19.6641 14.6914L12.3984 1.71289C11.9785 0.951172 11.207 0.550781 10.4258 0.550781C9.6543 0.550781 8.87305 0.951172 8.45312 1.71289L1.19727 14.7012C0.992188 15.0625 0.884766 15.4336 0.884766 15.8145C0.884766 17.0938 1.77344 18.1094 3.16992 18.1094ZM10.4355 11.8789C9.9375 11.8789 9.6543 11.5957 9.64453 11.0879L9.51758 6.19531C9.49805 5.67773 9.87891 5.30664 10.4258 5.30664C10.9629 5.30664 11.3535 5.6875 11.3438 6.20508L11.207 11.0781C11.1973 11.6055 10.9141 11.8789 10.4355 11.8789ZM10.4355 15.0039C9.85938 15.0039 9.36133 14.5547 9.36133 13.9883C9.36133 13.4219 9.84961 12.9727 10.4355 12.9727C11.0215 12.9727 11.5 13.4121 11.5 13.9883C11.5 14.5645 11.0117 15.0039 10.4355 15.0039Z" fill="#FF002E"/>
</svg>
