<svg width="20" height="20" viewBox="0 0 20 20" fill="none" xmlns="http://www.w3.org/2000/svg">
<path fill-rule="evenodd" clip-rule="evenodd" d="M2.75 2.5C2.75 2.08579 3.08579 1.75 3.5 1.75H11.5C11.6989 1.75 11.8897 1.82902 12.0303 1.96967L17.0303 6.96967C17.171 7.11032 17.25 7.30109 17.25 7.5V17.5C17.25 17.9142 16.9142 18.25 16.5 18.25H3.5C3.08579 18.25 2.75 17.9142 2.75 17.5V2.5ZM4.25 3.25V16.75H15.75V7.81066L11.1893 3.25H4.25Z" fill="#001E49"/>
<path d="M8.51093 13.9368L8.9283 12.1988H10.3718L10.0118 13.617C9.90439 14.0403 10.2243 14.4516 10.661 14.4516C10.9674 14.4516 11.2348 14.2436 11.3102 13.9466L11.7538 12.1988H13.0368C13.3272 12.1988 13.5626 11.9634 13.5626 11.673C13.5626 11.3826 13.3272 11.1472 13.0368 11.1472H12.0207L12.4163 9.58893H13.5744C13.8648 9.58893 14.1003 9.35351 14.1003 9.0631C14.1003 8.7727 13.8648 8.53728 13.5744 8.53728H9.8076L10.1576 7.07994C10.259 6.65762 9.93889 6.25156 9.50457 6.25156C9.19408 6.25156 8.92407 6.46441 8.85157 6.76631L8.42628 8.53728H7.08154C6.79113 8.53728 6.55571 8.7727 6.55571 9.0631C6.55571 9.35351 6.79113 9.58893 7.08154 9.58893H8.17374L7.79954 11.1472H6.42582C6.13542 11.1472 5.9 11.3826 5.9 11.673C5.9 11.9634 6.13542 12.1988 6.42582 12.1988H7.54699L7.20494 13.6232C7.10352 14.0455 7.42361 14.4516 7.85794 14.4516C8.16842 14.4516 8.43843 14.2387 8.51093 13.9368ZM10.6388 11.1472H9.18085L9.55505 9.58893H11.0343L10.6388 11.1472Z" fill="#001E49" stroke="#001E49" stroke-width="0.2"/>
</svg>
