<svg width="24" height="24" viewBox="0 0 24 24" fill="none" xmlns="http://www.w3.org/2000/svg">
<path d="M10.223 11.1111V16.4444M13.7785 11.1111V16.4444M4.88965 7.55556H19.1119M18.223 7.55556L17.4523 18.3484C17.4204 18.797 17.2197 19.2167 16.8906 19.5232C16.5616 19.8296 16.1286 20 15.679 20H8.32254C7.87288 20 7.43993 19.8296 7.11088 19.5232C6.78183 19.2167 6.58113 18.797 6.5492 18.3484L5.77854 7.55556H18.223ZM14.6674 7.55556V4.88889C14.6674 4.65314 14.5738 4.42705 14.4071 4.26035C14.2404 4.09365 14.0143 4 13.7785 4H10.223C9.98723 4 9.76114 4.09365 9.59444 4.26035C9.42774 4.42705 9.33409 4.65314 9.33409 4.88889V7.55556H14.6674Z" stroke="currentColor" stroke-width="1.5" stroke-linecap="round" stroke-linejoin="round"/>
</svg>
