<svg width="14" height="14" viewBox="0 0 14 14" fill="none" xmlns="http://www.w3.org/2000/svg">
<path d="M1.59961 13.1523H11.7578C12.7354 13.1523 13.3574 12.4414 13.3574 11.5459C13.3574 11.2793 13.2891 11.0127 13.1455 10.7598L8.05957 1.66113C7.76562 1.12793 7.22559 0.847656 6.67871 0.847656C6.13867 0.847656 5.5918 1.12109 5.29785 1.66113L0.21875 10.7666C0.0683594 11.0127 0 11.2793 0 11.5459C0 12.4414 0.62207 13.1523 1.59961 13.1523ZM6.67871 8.70215C6.33008 8.70215 6.13184 8.50391 6.11816 8.1416L6.02246 5.02441C6.00879 4.66211 6.28906 4.39551 6.67188 4.39551C7.05469 4.39551 7.3418 4.66895 7.32812 5.03125L7.23242 8.1416C7.21875 8.51074 7.02051 8.70215 6.67871 8.70215ZM6.67871 11.1016C6.28906 11.1016 5.93359 10.8076 5.93359 10.3906C5.93359 9.98047 6.28223 9.67969 6.67871 9.67969C7.0752 9.67969 7.42383 9.97363 7.42383 10.3906C7.42383 10.8076 7.06836 11.1016 6.67871 11.1016Z" fill="currentColor"/>
</svg>
