<svg width="19" height="19" viewBox="0 0 19 19" fill="none" xmlns="http://www.w3.org/2000/svg">
<path d="M12.1466 11.2483L10.4338 12.9379C9.54065 12.3994 8.7109 11.762 7.96025 11.0379C7.23726 10.286 6.60002 9.45613 6.06027 8.56353L7.74826 6.85075C7.85049 6.74693 7.91953 6.61505 7.9466 6.47188C7.97366 6.32871 7.95753 6.18073 7.90025 6.04675L6.14027 1.94439C6.07074 1.78263 5.94541 1.65123 5.78711 1.57414C5.62882 1.49705 5.4481 1.47939 5.27787 1.52439L2.0507 2.37798C1.88954 2.41976 1.74733 2.515 1.64735 2.64812C1.54736 2.78124 1.49552 2.94436 1.5003 3.11078C1.70564 6.86416 3.26625 10.4155 5.89227 13.1051C8.58239 15.7319 12.1347 17.2929 15.889 17.4979C16.0556 17.5035 16.2191 17.452 16.3525 17.3521C16.4859 17.2522 16.5811 17.1097 16.6226 16.9483L17.4754 13.7195C17.5206 13.5494 17.5031 13.3686 17.4262 13.2103C17.3492 13.052 17.2179 12.9266 17.0562 12.8571L12.953 11.0979C12.8189 11.0398 12.6705 11.0231 12.5268 11.0499C12.3832 11.0767 12.2508 11.1458 12.1466 11.2483V11.2483Z" stroke="currentColor" stroke-width="1.5" stroke-linecap="round" stroke-linejoin="round"/>
</svg>
