<svg width="24" height="24" viewBox="0 0 24 24" fill="none" xmlns="http://www.w3.org/2000/svg">
<circle cx="12" cy="12" r="11.25" stroke="currentColor" stroke-width="1.5" fill="transparent"/>
  <path
     d="m 10.78709,17.08887 c 0.31054,0 0.55078,-0.1289 0.720699,-0.3809 l 5.50784,-8.5780895 c 0.123,-0.19336 0.1758,-0.35742 0.1758,-0.51563 0,-0.41601 -0.293,-0.703121 -0.7149,-0.703121 -0.2871,0 -0.46288,0.105469 -0.638659,0.380861 L 10.757789,15.34863 8.1503695,12.002931 c -0.17578,-0.22852 -0.35742,-0.32227 -0.61524,-0.32227 -0.421872,0 -0.726559,0.29883 -0.726559,0.70899 0,0.18164 0.064453,0.35742 0.216797,0.53906 L 10.06052,16.71387 c 0.205079,0.2578 0.42188,0.375 0.72657,0.375 z"
     fill="currentColor"
     id="path4" />
</svg>
