<svg width="32" height="32" viewBox="0 0 32 32" fill="none" xmlns="http://www.w3.org/2000/svg">
<rect width="32" height="32" rx="4" fill="#C51162"/>
<path d="M13.1875 10.9375V7.5625H18.8125V10.9375" stroke="white" stroke-width="1.5" stroke-linecap="round" stroke-linejoin="round"/>
<path d="M8.6875 10.9375H23.3125C23.6109 10.9375 23.897 11.056 24.108 11.267C24.319 11.478 24.4375 11.7641 24.4375 12.0625V17.6875H7.5625V12.0625C7.5625 11.7641 7.68103 11.478 7.892 11.267C8.10298 11.056 8.38913 10.9375 8.6875 10.9375V10.9375Z" stroke="white" stroke-width="1.5" stroke-linecap="round" stroke-linejoin="round"/>
<path d="M23.3125 20.5V22.75C23.3125 23.0484 23.194 23.3345 22.983 23.5455C22.772 23.7565 22.4859 23.875 22.1875 23.875H9.8125C9.51413 23.875 9.22798 23.7565 9.017 23.5455C8.80603 23.3345 8.6875 23.0484 8.6875 22.75V20.5" stroke="white" stroke-width="1.5" stroke-linecap="round" stroke-linejoin="round"/>
</svg>
