<svg width="32" height="32" viewBox="0 0 32 32" fill="none" xmlns="http://www.w3.org/2000/svg">
<rect width="32" height="32" rx="4" fill="#00B8D4"/>
<g clip-path="url(#clip0)">
<path d="M19 24.0002H21C21.6 24.0002 22 23.6002 22 23.0002V16.0002H23C23.3 16.0002 23.6 15.9002 23.8 15.7002C24.2001 15.3002 24.1 14.7002 23.7 14.3002L16.7 8.3002C16.3 8.0002 15.8001 8.0002 15.4001 8.3002L8.40005 14.3002C8.00005 14.7002 7.90005 15.3002 8.30005 15.7002C8.40005 15.9002 8.70005 16.0002 9.00005 16.0002C9.20005 16.0002 10 16.0002 10 16.0002V23.0002C10 23.6002 10.4 24.0002 11 24.0002H13.0001C13.6 24.0002 14.0001 23.6002 14.0001 23.0002V20.0002H18V23.0002C18 23.6002 18.4 24.0002 19 24.0002Z" fill="white"/>
</g>
<defs>
<clipPath id="clip0">
<rect width="16" height="16" fill="white" transform="translate(8 8)"/>
</clipPath>
</defs>
</svg>
