<svg width="32" height="32" viewBox="0 0 32 32" fill="none" xmlns="http://www.w3.org/2000/svg">
<rect width="32" height="32" rx="4" fill="#FF6D00"/>
<path d="M21.7848 15.453C22.0468 14.9232 22.1846 14.3407 22.1875 13.7497C22.1857 12.7963 21.8369 11.8762 21.2063 11.1612C20.5757 10.4461 19.7065 9.98501 18.7608 9.86396C18.6278 9.1797 18.2455 8.56919 17.688 8.15082C17.1304 7.73244 16.4374 7.53602 15.7433 7.59963C15.0491 7.66325 14.4033 7.98237 13.9311 8.49511C13.4589 9.00785 13.1939 9.67768 13.1875 10.3747C13.1881 10.5636 13.2073 10.7521 13.2449 10.9372C13.2258 10.9372 13.2078 10.9372 13.1875 10.9372C12.2924 10.9372 11.434 11.2928 10.8011 11.9257C10.1681 12.5587 9.81255 13.4171 9.81255 14.3122C9.8154 14.8248 9.93627 15.3299 10.1658 15.7882C9.61466 16.0838 9.1782 16.5553 8.92585 17.1275C8.67349 17.6998 8.61974 18.34 8.77313 18.9463C8.92652 19.5526 9.27825 20.0902 9.77237 20.4737C10.2665 20.8571 10.8746 21.0642 11.5 21.0622H21.625C22.3558 21.0624 23.0578 20.7777 23.5819 20.2685C24.106 19.7592 24.4109 19.0657 24.4317 18.3352C24.4525 17.6048 24.1876 16.895 23.6933 16.3568C23.199 15.8186 22.5144 15.4943 21.7848 15.453V15.453Z" stroke="white" stroke-width="1.5" stroke-linecap="round" stroke-linejoin="round"/>
<path d="M16.5625 16.5625V24.4375" stroke="white" stroke-width="1.5" stroke-linecap="round" stroke-linejoin="round"/>
<path d="M13.1875 24.4375H19.9375" stroke="white" stroke-width="1.5" stroke-linecap="round" stroke-linejoin="round"/>
</svg>
