<svg width="32" height="32" viewBox="0 0 32 32" fill="none" xmlns="http://www.w3.org/2000/svg">
<rect width="32" height="32" rx="4" fill="#FFAB00"/>
<path d="M19 17V15C19 14.4 18.6 14 18 14H9C8.4 14 8 14.4 8 15V23C8 23.6 8.4 24 9 24H18C18.6 24 19 23.6 19 23V21L22.6286 22.4514C23.2855 22.7142 24 22.2304 24 21.523V16.477C24 15.7696 23.2855 15.2858 22.6286 15.5486L19 17Z" fill="white"/>
<path d="M10.5 13C11.8807 13 13 11.8807 13 10.5C13 9.11929 11.8807 8 10.5 8C9.11929 8 8 9.11929 8 10.5C8 11.8807 9.11929 13 10.5 13Z" fill="white"/>
<path d="M16 13C17.1046 13 18 12.1046 18 11C18 9.89543 17.1046 9 16 9C14.8954 9 14 9.89543 14 11C14 12.1046 14.8954 13 16 13Z" fill="white"/>
</svg>
