<svg width="32" height="32" viewBox="0 0 32 32" fill="none" xmlns="http://www.w3.org/2000/svg">
<rect width="32" height="32" rx="4" fill="#6200EA"/>
<path d="M23 21H18C18 21.6 17.6 22 17 22H15C14.4 22 14 21.6 14 21H9V23C9 23.6 9.4 24 10 24H22C22.6 24 23 23.6 23 23V21Z" fill="white"/>
<path d="M23 12H20V9C20 8.4 19.6 8 19 8H13C12.4 8 12 8.4 12 9V12H9C8.4 12 8 12.4 8 13V19C8 19.6 8.4 20 9 20H14V19C14 18.4 14.4 18 15 18H17C17.6 18 18 18.4 18 19V20H23C23.6 20 24 19.6 24 19V13C24 12.4 23.6 12 23 12ZM18 12H14V10H18V12Z" fill="white"/>
</svg>
