<svg width="32" height="32" viewBox="0 0 32 32" fill="none" xmlns="http://www.w3.org/2000/svg">
<rect width="32" height="32" rx="4" fill="#2962FF"/>
<path d="M10.9375 10.9375C10.9375 10.0055 10.182 9.25 9.25 9.25C8.31802 9.25 7.5625 10.0055 7.5625 10.9375C7.5625 11.8695 8.31802 12.625 9.25 12.625C10.182 12.625 10.9375 11.8695 10.9375 10.9375Z" stroke="white" stroke-width="1.5" stroke-linecap="round" stroke-linejoin="round"/>
<path d="M10.375 23.3125H8.125V19.9375H7V16.5625C7 16.2641 7.11853 15.978 7.3295 15.767C7.54048 15.556 7.82663 15.4375 8.125 15.4375H9.25" stroke="white" stroke-width="1.5" stroke-linecap="round" stroke-linejoin="round"/>
<path d="M21.0625 10.9375C21.0625 11.8695 21.818 12.625 22.75 12.625C23.682 12.625 24.4375 11.8695 24.4375 10.9375C24.4375 10.0055 23.682 9.25 22.75 9.25C21.818 9.25 21.0625 10.0055 21.0625 10.9375Z" stroke="white" stroke-width="1.5" stroke-linecap="round" stroke-linejoin="round"/>
<path d="M21.625 23.3125H23.875V19.9375H25V16.5625C25 16.2641 24.8815 15.978 24.6705 15.767C24.4595 15.556 24.1734 15.4375 23.875 15.4375H22.75" stroke="white" stroke-width="1.5" stroke-linecap="round" stroke-linejoin="round"/>
<path d="M18.25 9.25C18.25 8.00736 17.2426 7 16 7C14.7574 7 13.75 8.00736 13.75 9.25C13.75 10.4926 14.7574 11.5 16 11.5C17.2426 11.5 18.25 10.4926 18.25 9.25Z" stroke="white" stroke-width="1.5" stroke-linecap="round" stroke-linejoin="round"/>
<path d="M18.8125 24.4375H13.1875V19.9375H12.0625V16.5625C12.0625 15.9658 12.2996 15.3935 12.7215 14.9715C13.1435 14.5496 13.7158 14.3125 14.3125 14.3125H17.6875C18.2842 14.3125 18.8565 14.5496 19.2785 14.9715C19.7004 15.3935 19.9375 15.9658 19.9375 16.5625V19.9375H18.8125V24.4375Z" stroke="white" stroke-width="1.5" stroke-linecap="round" stroke-linejoin="round"/>
</svg>
