<svg width="32" height="33" viewBox="0 0 32 33" fill="none" xmlns="http://www.w3.org/2000/svg">
<rect y="0.0966797" width="32" height="32" rx="4" fill="#6200EA"/>
<path d="M16.1606 16.5625H21.0623C21.3606 16.5625 21.6468 16.681 21.8578 16.892C22.0687 17.103 22.1873 17.3891 22.1873 17.6875V19.9375" stroke="white" stroke-width="1.5" stroke-linecap="round" stroke-linejoin="round"/>
<path d="M12.4709 15.4859L11.5 7.5625H8.6875" stroke="white" stroke-width="1.5" stroke-linecap="round" stroke-linejoin="round"/>
<path d="M12.0625 12.0625H21.0625" stroke="white" stroke-width="1.5" stroke-linecap="round" stroke-linejoin="round"/>
<path d="M13.1875 24.4375C15.6728 24.4375 17.6875 22.4228 17.6875 19.9375C17.6875 17.4522 15.6728 15.4375 13.1875 15.4375C10.7022 15.4375 8.6875 17.4522 8.6875 19.9375C8.6875 22.4228 10.7022 24.4375 13.1875 24.4375Z" stroke="white" stroke-width="1.5" stroke-linecap="round" stroke-linejoin="round"/>
<path d="M22.1875 24.4375C23.1195 24.4375 23.875 23.682 23.875 22.75C23.875 21.818 23.1195 21.0625 22.1875 21.0625C21.2555 21.0625 20.5 21.818 20.5 22.75C20.5 23.682 21.2555 24.4375 22.1875 24.4375Z" stroke="white" stroke-width="1.5" stroke-linecap="round" stroke-linejoin="round"/>
</svg>
