<svg width="32" height="32" viewBox="0 0 32 32" fill="none" xmlns="http://www.w3.org/2000/svg">
<rect width="32" height="32" rx="4" fill="#0091EA"/>
<g clip-path="url(#clip0)">
<path d="M21.8 10.1999C20.9 9.29985 19.6 9.29985 18.7 10.1999L17.2 11.6999L12 8.19985C11.4 7.89985 10.6 7.89985 10.1 8.39985L8.39997 10.1999L14.6 14.2999L13 15.8999L11.5 18.2999L8.79997 18.0999C8.09997 17.9999 7.69997 18.8999 8.19997 19.2999L9.79997 20.8999L9.29997 21.5999C8.89997 22.2999 9.69997 22.9999 10.3 22.5999L11 22.0999L12.6 23.6999C13.1 24.1999 13.9 23.7999 13.8 23.0999L13.6 20.3999L16.1 18.9999L21.8 13.2999C22.7 12.3999 22.7 10.9999 21.8 10.1999Z" fill="white"/>
<path d="M21.3998 16.5L18.7998 19.1L21.7998 23.6L23.4998 21.9C23.9998 21.4 24.0998 20.6 23.6998 20.1L21.3998 16.5Z" fill="white"/>
</g>
<defs>
<clipPath id="clip0">
<rect width="16" height="16" fill="white" transform="translate(8 8)"/>
</clipPath>
</defs>
</svg>
