<svg width="32" height="32" viewBox="0 0 32 32" fill="none" xmlns="http://www.w3.org/2000/svg">
<rect width="32" height="32" rx="4" fill="#A3AEBF"/>
<path d="M7.75 16C7.75 11.4642 11.4642 7.75 16 7.75C20.5358 7.75 24.25 11.4642 24.25 16C24.25 20.5358 20.5358 24.25 16 24.25C11.4642 24.25 7.75 20.5358 7.75 16Z" stroke="white" stroke-width="1.5"/>
<path d="M15.5579 17.9055C15.1591 17.9055 14.8253 17.5802 14.8827 17.1856C14.9174 16.9477 14.9712 16.7413 15.0443 16.5663C15.1833 16.2336 15.4571 15.8693 15.8656 15.4734C16.2783 15.0733 16.5394 14.7891 16.6489 14.6206C16.8174 14.3637 16.9016 14.0858 16.9016 13.7867C16.9016 13.3909 16.8026 13.0898 16.6047 12.8834C16.4109 12.6728 16.1246 12.5675 15.7455 12.5675C15.3834 12.5675 15.0907 12.6707 14.8675 12.8771C14.8291 12.9125 14.794 12.9502 14.7624 12.9902C14.5007 13.3206 14.1973 13.7046 13.7758 13.7046C13.3509 13.7046 12.9912 13.35 13.113 12.943C13.2321 12.5452 13.4484 12.2095 13.762 11.9358C14.2631 11.502 14.9243 11.2852 15.7455 11.2852C16.592 11.2852 17.2511 11.4999 17.7228 11.9295C18.1987 12.3591 18.4366 12.9592 18.4366 13.7299C18.4366 14.4164 18.1166 15.0923 17.4764 15.7577L16.6994 16.5221C16.5416 16.7014 16.4273 16.9275 16.3564 17.2004C16.2571 17.5826 15.9527 17.9055 15.5579 17.9055ZM14.7285 19.8701C14.7285 19.6217 14.8064 19.4216 14.9622 19.27C15.118 19.1142 15.3286 19.0363 15.5939 19.0363C15.8635 19.0363 16.0761 19.1163 16.232 19.2763C16.3878 19.4322 16.4657 19.6301 16.4657 19.8701C16.4657 20.1018 16.3899 20.2955 16.2383 20.4513C16.0867 20.6071 15.8719 20.6851 15.5939 20.6851C15.316 20.6851 15.1012 20.6071 14.9496 20.4513C14.8022 20.2955 14.7285 20.1018 14.7285 19.8701Z" fill="white"/>
</svg>
