<svg width="32" height="32" viewBox="0 0 32 32" fill="none" xmlns="http://www.w3.org/2000/svg">
<rect width="32" height="32" rx="4" fill="#00BFA5"/>
<g clip-path="url(#clip0)">
<path d="M13 20C13.5523 20 14 19.5523 14 19C14 18.4477 13.5523 18 13 18C12.4477 18 12 18.4477 12 19C12 19.5523 12.4477 20 13 20Z" fill="white"/>
<path d="M23 20.277V18C23 17.4696 22.7893 16.9609 22.4142 16.5858C22.0391 16.2107 21.5304 16 21 16H16.974C16.5142 15.3838 15.9179 14.8826 15.2319 14.5356C14.5459 14.1886 13.7888 14.0053 13.02 14L12.82 13H19C19.5523 13 20 12.5523 20 12C20 11.4477 19.5523 11 19 11H12.42L11.98 8.8C11.9339 8.57413 11.8112 8.37112 11.6326 8.22534C11.454 8.07956 11.2305 7.99995 11 8H9C8.44772 8 8 8.44772 8 9C8 9.55228 8.44772 10 9 10H10.18L11.059 14.393C10.1865 14.7608 9.43628 15.3688 8.89576 16.1463C8.35524 16.9237 8.04661 17.8387 8.00576 18.7847C7.96491 19.7307 8.19353 20.6689 8.66503 21.4901C9.13652 22.3112 9.83149 22.9816 10.6691 23.4233C11.5067 23.8649 12.4525 24.0596 13.3964 23.9848C14.3404 23.9099 15.2436 23.5685 16.0011 23.0004C16.7587 22.4322 17.3393 21.6607 17.6754 20.7754C18.0116 19.8902 18.0895 18.9278 17.9 18H21V20.277C20.6187 20.4971 20.3207 20.8369 20.1522 21.2437C19.9838 21.6504 19.9542 22.1014 20.0681 22.5267C20.1821 22.952 20.4332 23.3277 20.7825 23.5958C21.1318 23.8638 21.5597 24.0091 22 24.0091C22.4403 24.0091 22.8682 23.8638 23.2175 23.5958C23.5668 23.3277 23.8179 22.952 23.9319 22.5267C24.0458 22.1014 24.0162 21.6504 23.8478 21.2437C23.6793 20.8369 23.3813 20.4971 23 20.277ZM13 22C12.4067 22 11.8266 21.8241 11.3333 21.4944C10.8399 21.1648 10.4554 20.6962 10.2284 20.1481C10.0013 19.5999 9.94189 18.9967 10.0576 18.4147C10.1734 17.8328 10.4591 17.2982 10.8787 16.8787C11.2982 16.4591 11.8328 16.1734 12.4147 16.0576C12.9967 15.9419 13.5999 16.0013 14.1481 16.2284C14.6962 16.4554 15.1648 16.8399 15.4944 17.3333C15.8241 17.8266 16 18.4067 16 19C16 19.7956 15.6839 20.5587 15.1213 21.1213C14.5587 21.6839 13.7956 22 13 22Z" fill="white"/>
</g>
<defs>
<clipPath id="clip0">
<rect width="16" height="16" fill="white" transform="translate(8 8)"/>
</clipPath>
</defs>
</svg>
