<svg width="64" height="64" viewBox="0 0 64 64" fill="none" xmlns="http://www.w3.org/2000/svg">
<path d="M64 13.95L64 50.05C64 57.75 57.75 64 50.05 64L13.95 64C6.25 64 -2.73196e-07 57.75 -6.09774e-07 50.05L-2.18557e-06 14C-2.52433e-06 6.25 6.25 -2.73196e-07 13.95 -6.09774e-07L50 -2.18557e-06C57.75 -2.52433e-06 64 6.25 64 13.95Z" fill="url(#paint0_linear)"/>
<path d="M39.4508 34.75C39.1508 35.45 38.7508 36.05 38.3008 36.65L39.7008 38.05C40.5508 37.7 41.6008 37.95 42.1508 38.85C42.5508 39.5 42.5508 40.35 42.1508 40.95C41.4508 42.1 39.9008 42.2 39.0008 41.3C38.4008 40.7 38.2508 39.85 38.5508 39.1L37.1508 37.7C35.9508 38.7 34.4508 39.4 32.7508 39.55V42C33.8508 42.4 34.5508 43.55 34.3008 44.85C34.1008 45.8 33.3508 46.55 32.4008 46.75C30.8008 47.1 29.3508 45.85 29.3508 44.3C29.3508 43.25 30.0008 42.35 30.9508 41.95V39.5C29.3008 39.3 27.8008 38.65 26.5508 37.65L25.1508 39.05C25.5008 39.9 25.2508 40.95 24.3508 41.5C23.7008 41.9 22.8508 41.9 22.2508 41.5C21.1008 40.8 21.0008 39.25 21.9008 38.35C22.5008 37.75 23.3508 37.6 24.1008 37.9L25.5008 36.5C24.5008 35.3 23.8008 33.8 23.6508 32.1H21.2008C20.8008 33.2 19.6508 33.9 18.3508 33.65C17.4008 33.45 16.6508 32.7 16.4508 31.75C16.1008 30.15 17.3508 28.7 18.9008 28.7C19.9508 28.7 20.8508 29.35 21.2508 30.3H23.7008C23.9008 28.65 24.5508 27.15 25.5508 25.9L24.1508 24.5C23.3008 24.85 22.2508 24.6 21.7008 23.7C21.3008 23.05 21.3008 22.2 21.7008 21.6C22.4008 20.45 23.9508 20.35 24.8508 21.25C25.4508 21.85 25.6008 22.7 25.3008 23.45L26.7008 24.85C27.9008 23.85 29.4008 23.15 31.1008 23V20.55C30.0008 20.15 29.3008 19 29.5508 17.7C29.7508 16.75 30.5008 16 31.4508 15.8C33.0508 15.45 34.5008 16.7 34.5008 18.25C34.5008 19.3 33.8508 20.2 32.9008 20.6V23.05C34.5508 23.25 36.0508 23.9 37.3008 24.9L38.7008 23.5C38.3508 22.65 38.6008 21.6 39.5008 21.05C40.1508 20.65 41.0008 20.65 41.6008 21.05C42.7508 21.75 42.8508 23.3 41.9508 24.2C41.3508 24.8 40.5008 24.95 39.7508 24.65L38.3508 26.05C38.8508 26.65 39.2508 27.3 39.5508 28C39.7508 28.5 40.2508 28.8 40.7508 28.8H49.6008C50.3508 28.8 50.9508 28.2 50.9508 27.45V17.55C50.9508 15.1 49.9508 14.3 47.9508 13.45C45.2508 12.3 36.5008 9.05 33.8008 8.1C33.1508 7.9 32.5008 7.75 31.8508 7.75C31.2008 7.75 30.5508 7.9 29.9508 8.1C27.2508 9 18.5008 12.35 15.8008 13.45C13.8508 14.25 12.8008 15.1 12.8008 17.55V37.5C12.8008 46.1 17.3008 49.25 30.3008 56.8C30.9008 57.15 31.4508 57.25 31.8508 57.25C32.2008 57.25 32.8008 57.1 33.4008 56.8C46.6508 49.65 50.9008 46.1 50.9008 37.5V35.3C50.9008 34.55 50.3008 33.95 49.5508 33.95H40.6008C40.1008 34 39.6508 34.3 39.4508 34.75Z" fill="#F9F9FB"/>
<defs>
<linearGradient id="paint0_linear" x1="9.74204" y1="54.2519" x2="74.122" y2="-10.0885" gradientUnits="userSpaceOnUse">
<stop stop-color="#C9005D"/>
<stop offset="0.00040942" stop-color="#C9005D"/>
<stop offset="0.248227" stop-color="#C9005D"/>
<stop offset="0.983091" stop-color="#315BBC"/>
<stop offset="1" stop-color="#315BBC"/>
</linearGradient>
</defs>
</svg>
