<svg width="16" height="16" fill="none" xmlns="http://www.w3.org/2000/svg"><mask id="a" fill="#fff"><path d="M16 8A8 8 0 110 8a8 8 0 0116 0z"/></mask><path d="M16 8A8 8 0 110 8a8 8 0 0116 0z" fill="#FF9D12"/><path d="M15 8a7 7 0 01-7 7v2a9 9 0 009-9h-2zm-7 7a7 7 0 01-7-7h-2a9 9 0 009 9v-2zM1 8a7 7 0 017-7v-2a9 9 0 00-9 9h2zm7-7a7 7 0 017 7h2a9 9 0 00-9-9v2z" fill="#FF9D12" mask="url(#a)"/><path d="M8.25 11.25a.25.25 0 11-.5 0 .25.25 0 01.5 0z" fill="#fff" stroke="#fff"/><path d="M8 4v4.5" stroke="#fff" stroke-width="1.5" stroke-miterlimit="10" stroke-linecap="round" stroke-linejoin="round"/></svg>