<svg width="16" height="18" viewBox="0 0 16 18" fill="none" xmlns="http://www.w3.org/2000/svg">
<path d="M6.22396 8.11111V13.4444M9.77951 8.11111V13.4444M0.890625 4.55556H15.1128M14.224 4.55556L13.4533 15.3484C13.4214 15.797 13.2207 16.2167 12.8916 16.5232C12.5626 16.8296 12.1296 17 11.68 17H4.32351C3.87386 17 3.44091 16.8296 3.11186 16.5232C2.78281 16.2167 2.58211 15.797 2.55018 15.3484L1.77951 4.55556H14.224ZM10.6684 4.55556V1.88889C10.6684 1.65314 10.5748 1.42705 10.4081 1.26035C10.2414 1.09365 10.0153 1 9.77951 1H6.22396C5.98821 1 5.76212 1.09365 5.59542 1.26035C5.42872 1.42705 5.33507 1.65314 5.33507 1.88889V4.55556H10.6684Z" stroke="#5616FF" stroke-width="1.5" stroke-linecap="round" stroke-linejoin="round"/>
</svg>
