<svg width="24" height="25" viewBox="0 0 24 25" fill="none" xmlns="http://www.w3.org/2000/svg">
<path fill-rule="evenodd" clip-rule="evenodd" d="M12 22.5488C6.20101 22.5488 1.5 17.8478 1.5 12.0488C1.5 6.24984 6.20101 1.54883 12 1.54883C17.799 1.54883 22.5 6.24984 22.5 12.0488C22.5 17.8478 17.799 22.5488 12 22.5488ZM0 12.0488C0 5.42141 5.37258 0.0488281 12 0.0488281C18.6274 0.0488281 24 5.42141 24 12.0488C24 18.6762 18.6274 24.0488 12 24.0488C5.37258 24.0488 0 18.6762 0 12.0488ZM9.66667 4.29883C9.25245 4.29883 8.91667 4.63461 8.91667 5.04883V8.96549H5C4.58579 8.96549 4.25 9.30128 4.25 9.71549V14.3822C4.25 14.7964 4.58579 15.1322 5 15.1322H8.91667V19.0488C8.91667 19.463 9.25245 19.7988 9.66667 19.7988H14.3333C14.7475 19.7988 15.0833 19.463 15.0833 19.0488V15.1322H19C19.4142 15.1322 19.75 14.7964 19.75 14.3822V9.71549C19.75 9.30128 19.4142 8.96549 19 8.96549H15.0833V5.04883C15.0833 4.63461 14.7475 4.29883 14.3333 4.29883H9.66667ZM10.4167 9.71549V5.79883H13.5833V9.71549C13.5833 10.1297 13.9191 10.4655 14.3333 10.4655H18.25V13.6322H14.3333C13.9191 13.6322 13.5833 13.9679 13.5833 14.3822V18.2988H10.4167V14.3822C10.4167 13.9679 10.0809 13.6322 9.66667 13.6322H5.75V10.4655H9.66667C10.0809 10.4655 10.4167 10.1297 10.4167 9.71549Z" fill="white"/>
</svg>
