<svg width="16" height="16" viewBox="0 0 16 16" fill="none" xmlns="http://www.w3.org/2000/svg">
<mask id="path-1-inside-1" fill="white">
<path fill-rule="evenodd" clip-rule="evenodd" d="M8 16C12.4183 16 16 12.4183 16 8C16 3.58172 12.4183 0 8 0C3.58172 0 0 3.58172 0 8C0 12.4183 3.58172 16 8 16ZM8 14.5C11.5899 14.5 14.5 11.5899 14.5 8C14.5 4.41015 11.5899 1.5 8 1.5C4.41015 1.5 1.5 4.41015 1.5 8C1.5 11.5899 4.41015 14.5 8 14.5Z"/>
</mask>
<path fill-rule="evenodd" clip-rule="evenodd" d="M8 16C12.4183 16 16 12.4183 16 8C16 3.58172 12.4183 0 8 0C3.58172 0 0 3.58172 0 8C0 12.4183 3.58172 16 8 16ZM8 14.5C11.5899 14.5 14.5 11.5899 14.5 8C14.5 4.41015 11.5899 1.5 8 1.5C4.41015 1.5 1.5 4.41015 1.5 8C1.5 11.5899 4.41015 14.5 8 14.5Z" fill="#FF002E"/>
<path d="M15 8C15 11.866 11.866 15 8 15V17C12.9706 17 17 12.9706 17 8H15ZM8 1C11.866 1 15 4.13401 15 8H17C17 3.02944 12.9706 -1 8 -1V1ZM1 8C1 4.13401 4.13401 1 8 1V-1C3.02944 -1 -1 3.02944 -1 8H1ZM8 15C4.13401 15 1 11.866 1 8H-1C-1 12.9706 3.02944 17 8 17V15ZM13.5 8C13.5 11.0376 11.0376 13.5 8 13.5V15.5C12.1421 15.5 15.5 12.1421 15.5 8H13.5ZM8 2.5C11.0376 2.5 13.5 4.96243 13.5 8H15.5C15.5 3.85786 12.1421 0.5 8 0.5V2.5ZM2.5 8C2.5 4.96243 4.96243 2.5 8 2.5V0.5C3.85786 0.5 0.5 3.85786 0.5 8H2.5ZM8 13.5C4.96243 13.5 2.5 11.0376 2.5 8H0.5C0.5 12.1421 3.85786 15.5 8 15.5V13.5Z" fill="#FF002E" mask="url(#path-1-inside-1)"/>
<path d="M8.25 11.25C8.25 11.3881 8.13807 11.5 8 11.5C7.86193 11.5 7.75 11.3881 7.75 11.25C7.75 11.1119 7.86193 11 8 11C8.13807 11 8.25 11.1119 8.25 11.25Z" fill="#FF002E" stroke="#FF002E"/>
<path d="M8 4V8.5" stroke="#FF002E" stroke-width="1.5" stroke-miterlimit="10" stroke-linecap="round" stroke-linejoin="round"/>
</svg>
