<svg width="20" height="20" viewBox="0 0 20 20" fill="none" xmlns="http://www.w3.org/2000/svg">
<path d="M11.828 8.17168C11.0779 7.42179 10.0607 7.00053 9.00002 7.00053C7.93936 7.00053 6.92213 7.42179 6.17202 8.17168L2.17202 12.1717C1.78998 12.5407 1.48525 12.982 1.27561 13.4701C1.06598 13.9581 0.955633 14.483 0.951018 15.0141C0.946402 15.5452 1.04761 16.0719 1.24873 16.5635C1.44986 17.0551 1.74687 17.5017 2.12244 17.8773C2.49801 18.2528 2.94462 18.5498 3.4362 18.751C3.92779 18.9521 4.45451 19.0533 4.98562 19.0487C5.51674 19.0441 6.04162 18.9337 6.52964 18.7241C7.01765 18.5144 7.45903 18.2097 7.82802 17.8277L8.93002 16.7267M8.17202 11.8277C8.92213 12.5776 9.93936 12.9988 11 12.9988C12.0607 12.9988 13.0779 12.5776 13.828 11.8277L17.828 7.82768C18.5567 7.07327 18.9598 6.06286 18.9507 5.01407C18.9416 3.96528 18.5209 2.96203 17.7793 2.2204C17.0377 1.47877 16.0344 1.05809 14.9856 1.04898C13.9368 1.03987 12.9264 1.44304 12.172 2.17168L11.072 3.27168" stroke="#001E49" stroke-width="1.5" stroke-linecap="round" stroke-linejoin="round"/>
</svg>
