<?xml version="1.0" encoding="UTF-8" standalone="no"?>
<svg
   xmlns:dc="http://purl.org/dc/elements/1.1/"
   xmlns:cc="http://creativecommons.org/ns#"
   xmlns:rdf="http://www.w3.org/1999/02/22-rdf-syntax-ns#"
   xmlns:svg="http://www.w3.org/2000/svg"
   xmlns="http://www.w3.org/2000/svg"
   xmlns:sodipodi="http://sodipodi.sourceforge.net/DTD/sodipodi-0.dtd"
   xmlns:inkscape="http://www.inkscape.org/namespaces/inkscape"
   width="16"
   height="16"
   viewBox="0 0 16 16"
   fill="none"
   version="1.1"
   id="svg4"
   sodipodi:docname="icon-checkmark.svg"
   inkscape:version="1.0.2 (1.0.2+r75+1)">
  <metadata
     id="metadata10">
    <rdf:RDF>
      <cc:Work
         rdf:about="">
        <dc:format>image/svg+xml</dc:format>
        <dc:type
           rdf:resource="http://purl.org/dc/dcmitype/StillImage" />
        <dc:title></dc:title>
      </cc:Work>
    </rdf:RDF>
  </metadata>
  <defs
     id="defs8" />
  <sodipodi:namedview
     pagecolor="#ffffff"
     bordercolor="#666666"
     borderopacity="1"
     objecttolerance="10"
     gridtolerance="10"
     guidetolerance="10"
     inkscape:pageopacity="0"
     inkscape:pageshadow="2"
     inkscape:window-width="1920"
     inkscape:window-height="995"
     id="namedview6"
     showgrid="false"
     inkscape:zoom="17.083333"
     inkscape:cx="1.8658452"
     inkscape:cy="9.4096315"
     inkscape:window-x="0"
     inkscape:window-y="0"
     inkscape:window-maximized="1"
     inkscape:current-layer="svg4" />
  <path
     d="M 6.63682,14 C 7.03483,14 7.3466,13.8362 7.56551,13.5017 L 13.7745,3.64505 C 13.9337,3.39932 14,3.17406 14,2.962457 14,2.40273 13.602,2 13.0448,2 12.66,2 12.4279,2.136519 12.1957,2.518771 L 6.61028,11.61092 3.75788,7.91126 C 3.53234,7.6314 3.30017,7.50171 2.968491,7.50171 2.404643,7.50171 2,7.91126 2,8.47782 2,8.72355 2.079602,8.95563 2.28524,9.20136 L 5.71476,13.5358 C 5.97347,13.8567 6.25871,14 6.63682,14 Z"
     fill="#5616ff"
     id="path2" />
</svg>
