<svg width="20" height="20" viewBox="0 0 20 20" fill="none" xmlns="http://www.w3.org/2000/svg">
<path d="M10 1C5.05 1 1 5.05 1 10C1 14.95 5.05 19 10 19C14.95 19 19 14.95 19 10C19 5.05 14.95 1 10 1Z" stroke="#A3AEBF" stroke-width="1.5"/>
<path d="M9.55785 11.9048C9.15912 11.9048 8.82525 11.5795 8.88272 11.1849C8.91737 10.947 8.97124 10.7405 9.04434 10.5656C9.18332 10.2328 9.45706 9.86856 9.86557 9.47269C10.2783 9.0726 10.5394 8.78833 10.6489 8.61987C10.8174 8.36298 10.9016 8.08502 10.9016 7.78601C10.9016 7.39014 10.8026 7.08902 10.6047 6.88266C10.4109 6.67209 10.1246 6.5668 9.74554 6.5668C9.38336 6.5668 9.09067 6.66998 8.86746 6.87634C8.82907 6.91178 8.79404 6.94949 8.76238 6.98946C8.50065 7.31986 8.19728 7.70389 7.77577 7.70389C7.3509 7.70389 6.99119 7.34929 7.11304 6.94226C7.2321 6.5445 7.44841 6.20878 7.76196 5.93509C8.26312 5.50131 8.92432 5.28442 9.74554 5.28442C10.592 5.28442 11.2511 5.49921 11.7228 5.92877C12.1987 6.35834 12.4366 6.95847 12.4366 7.72916C12.4366 8.41562 12.1166 9.09155 11.4764 9.75696L10.6994 10.5213C10.5416 10.7006 10.4273 10.9268 10.3564 11.1997C10.2571 11.5818 9.95268 11.9048 9.55785 11.9048ZM8.72849 13.8694C8.72849 13.6209 8.8064 13.4209 8.96222 13.2693C9.11804 13.1135 9.32861 13.0356 9.59393 13.0356C9.86346 13.0356 10.0761 13.1156 10.232 13.2756C10.3878 13.4314 10.4657 13.6294 10.4657 13.8694C10.4657 14.101 10.3899 14.2948 10.2383 14.4506C10.0867 14.6064 9.87189 14.6843 9.59393 14.6843C9.31598 14.6843 9.1012 14.6064 8.94958 14.4506C8.80219 14.2948 8.72849 14.101 8.72849 13.8694Z" fill="#A3AEBF"/>
</svg>
