<svg width="15" height="14" viewBox="0 0 15 14" fill="none" xmlns="http://www.w3.org/2000/svg">
<path d="M7.66723 13.6666C4.9696 13.6682 2.5369 12.0439 1.50434 9.55166C0.471792 7.05946 1.04293 4.19063 2.95123 2.28391C4.6361 0.599041 7.09184 -0.0589737 9.39341 0.55773C11.695 1.17443 13.4927 2.97216 14.1094 5.27373C14.7261 7.5753 14.0681 10.031 12.3832 11.7159C11.1349 12.9699 9.43667 13.6723 7.66723 13.6666ZM2.3339 7.11457C2.36544 10.0487 4.76131 12.4063 7.69559 12.3906C10.6299 12.3747 13.0003 9.99157 13.0003 7.05724C13.0003 4.12291 10.6299 1.73975 7.69559 1.7239C4.76131 1.70821 2.36544 4.06575 2.3339 6.99991V7.11457ZM5.9399 9.66657L5.00057 8.72657L6.72723 6.99991L5.00057 5.27324L5.94057 4.33324L7.66723 6.05991L9.3939 4.33324L10.3339 5.27324L8.60723 6.99991L10.3339 8.72657L9.39457 9.66657L7.66723 7.93991L5.94057 9.66657H5.9399Z" fill="#5616FF"/>
</svg>
