<svg width="16" height="16" viewBox="0 0 16 16" fill="none" xmlns="http://www.w3.org/2000/svg">
<path d="M6.47266 12.9961C6.7832 12.9961 7.02344 12.8672 7.19336 12.6152L12.7012 4.03711C12.8242 3.84375 12.877 3.67969 12.877 3.52148C12.877 3.10547 12.584 2.81836 12.1621 2.81836C11.875 2.81836 11.6992 2.92383 11.5234 3.19922L6.44336 11.2559L3.83594 7.91016C3.66016 7.68164 3.47852 7.58789 3.2207 7.58789C2.79883 7.58789 2.49414 7.88672 2.49414 8.29688C2.49414 8.47852 2.55859 8.6543 2.71094 8.83594L5.74609 12.6211C5.95117 12.8789 6.16797 12.9961 6.47266 12.9961Z" fill="#23CC52"/>
</svg>
