<svg width="20" height="20" viewBox="0 0 20 20" fill="none" xmlns="http://www.w3.org/2000/svg">
<path d="M7.27272 12.7271L3.63672 16.3631" stroke="white" stroke-width="1.5" stroke-linecap="round" stroke-linejoin="round"/>
<path d="M13.8574 10H19.0003" stroke="white" stroke-width="1.5" stroke-linecap="round" stroke-linejoin="round"/>
<path d="M10 1V6.14286" stroke="white" stroke-width="1.5" stroke-linecap="round" stroke-linejoin="round"/>
<path d="M10 19C14.9706 19 19 14.9706 19 10C19 5.02944 14.9706 1 10 1C5.02944 1 1 5.02944 1 10C1 14.9706 5.02944 19 10 19Z" stroke="white" stroke-width="1.5" stroke-linecap="round" stroke-linejoin="round"/>
<path d="M9.99972 13.8574C12.13 13.8574 13.8569 12.1305 13.8569 10.0002C13.8569 7.86997 12.13 6.14307 9.99972 6.14307C7.86948 6.14307 6.14258 7.86997 6.14258 10.0002C6.14258 12.1305 7.86948 13.8574 9.99972 13.8574Z" stroke="white" stroke-width="1.5" stroke-linecap="round" stroke-linejoin="round"/>
</svg>
