<svg width="20" height="20" viewBox="0 0 20 20" fill="none" xmlns="http://www.w3.org/2000/svg">
<path d="M11.6361 19H8.36341C7.46341 19 6.72705 18.2636 6.72705 17.3636V2.63636C6.72705 1.73636 7.46341 1 8.36341 1H11.6361C12.5361 1 13.2725 1.73636 13.2725 2.63636V17.3636C13.2725 18.2636 12.5361 19 11.6361 19Z" stroke="#A3AEBF" stroke-width="1.5" stroke-linecap="round" stroke-linejoin="round"/>
<path d="M1 11.6361V8.36341C1 7.46341 1.73636 6.72705 2.63636 6.72705H17.3636C18.2636 6.72705 19 7.46341 19 8.36341V11.6361C19 12.5361 18.2636 13.2725 17.3636 13.2725H2.63636C1.73636 13.2725 1 12.5361 1 11.6361Z" stroke="#A3AEBF" stroke-width="1.5" stroke-linecap="round" stroke-linejoin="round"/>
</svg>
