<svg width="16" height="16" viewBox="0 0 16 16" fill="none" xmlns="http://www.w3.org/2000/svg">
<path d="M7.79078 10.4516C7.27698 10.4516 6.84641 10.0323 6.92208 9.52409C6.96677 9.22396 7.03576 8.96324 7.12907 8.74194C7.30814 8.3172 7.66085 7.85215 8.18721 7.34677C8.71899 6.83602 9.05543 6.47312 9.19651 6.25806C9.41357 5.93011 9.52209 5.57527 9.52209 5.19355C9.52209 4.68817 9.39457 4.30376 9.13953 4.04032C8.88992 3.77151 8.52093 3.6371 8.03256 3.6371C7.56589 3.6371 7.18876 3.76882 6.90116 4.03226C6.85369 4.07567 6.81022 4.12175 6.77073 4.17049C6.42889 4.59247 6.03766 5.08871 5.49459 5.08871C4.94714 5.08871 4.48329 4.63142 4.64321 4.10785C4.79717 3.60381 5.07501 3.17808 5.47674 2.83065C6.12248 2.27688 6.97442 2 8.03256 2C9.12326 2 9.97248 2.27419 10.5802 2.82258C11.1934 3.37097 11.5 4.1371 11.5 5.12097C11.5 5.99731 11.0876 6.86022 10.2628 7.70968L9.26163 8.68548C9.05986 8.91265 8.91321 9.19868 8.82167 9.54358C8.69117 10.0353 8.29949 10.4516 7.79078 10.4516ZM6.72209 12.9597C6.72209 12.6425 6.82248 12.3871 7.02326 12.1935C7.22403 11.9946 7.49535 11.8952 7.83721 11.8952C8.1845 11.8952 8.45853 11.9973 8.6593 12.2016C8.86008 12.4005 8.96047 12.6532 8.96047 12.9597C8.96047 13.2554 8.86279 13.5027 8.66744 13.7016C8.47209 13.9005 8.19535 14 7.83721 14C7.47907 14 7.20233 13.9005 7.00698 13.7016C6.81705 13.5027 6.72209 13.2554 6.72209 12.9597Z" fill="#808DA1"/>
</svg>
