<svg width="12" height="7" viewBox="0 0 12 7" fill="none" xmlns="http://www.w3.org/2000/svg">
<path d="M11 6.4029C10.8684 6.40366 10.738 6.37844 10.6161 6.32867C10.4943 6.27891 10.3835 6.20558 10.29 6.1129L6.00003 3.8129L1.71003 6.1129C1.51873 6.27673 1.27265 6.36233 1.02097 6.35261C0.769298 6.34289 0.530558 6.23856 0.352464 6.06047C0.174369 5.88237 0.0700372 5.64363 0.0603161 5.39196C0.0505949 5.14028 0.136201 4.8942 0.300027 4.7029L5.30003 1.7029C5.48739 1.51665 5.74084 1.41211 6.00503 1.41211C6.26921 1.41211 6.52266 1.51665 6.71003 1.7029L11.71 4.7029C11.8476 4.84328 11.9408 5.02111 11.9779 5.21416C12.015 5.4072 11.9944 5.6069 11.9186 5.7883C11.8429 5.96969 11.7153 6.12473 11.552 6.23404C11.3886 6.34336 11.1966 6.40209 11 6.4029Z" fill="#1F78D1"/>
</svg>
