<svg width="12" height="12" viewBox="0 0 12 12" fill="none" xmlns="http://www.w3.org/2000/svg">
<path d="M11 10.8931C10.8684 10.8939 10.738 10.8687 10.6161 10.8189C10.4943 10.7691 10.3835 10.6958 10.29 10.6031L6.00003 8.30314L1.71003 10.6031C1.51873 10.767 1.27265 10.8526 1.02097 10.8428C0.769298 10.8331 0.530558 10.7288 0.352464 10.5507C0.174369 10.3726 0.0700372 10.1339 0.0603161 9.88219C0.0505949 9.63051 0.136201 9.38444 0.300027 9.19314L5.30003 6.19314C5.48739 6.00689 5.74084 5.90234 6.00503 5.90234C6.26921 5.90234 6.52266 6.00689 6.71003 6.19314L11.71 9.19314C11.8476 9.33352 11.9408 9.51135 11.9779 9.70439C12.015 9.89744 11.9944 10.0971 11.9186 10.2785C11.8429 10.4599 11.7153 10.615 11.552 10.7243C11.3886 10.8336 11.1966 10.8923 11 10.8931Z" fill="#FC9403"/>
<path d="M11 5.9029C10.8684 5.90366 10.738 5.87844 10.6161 5.82867C10.4943 5.77891 10.3835 5.70558 10.29 5.6129L6.00003 3.3129L1.71003 5.6129C1.51873 5.77673 1.27265 5.86233 1.02097 5.85261C0.769298 5.84289 0.530558 5.73856 0.352464 5.56047C0.174369 5.38237 0.0700372 5.14363 0.0603161 4.89196C0.0505949 4.64028 0.136201 4.3942 0.300027 4.2029L5.30003 1.2029C5.48739 1.01665 5.74084 0.912109 6.00503 0.912109C6.26921 0.912109 6.52266 1.01665 6.71003 1.2029L11.71 4.2029C11.8476 4.34328 11.9408 4.52111 11.9779 4.71416C12.015 4.9072 11.9944 5.1069 11.9186 5.2883C11.8429 5.46969 11.7153 5.62473 11.552 5.73404C11.3886 5.84336 11.1966 5.90209 11 5.9029Z" fill="#FC9403"/>
</svg>
