<svg width="12" height="16" viewBox="0 0 12 16" fill="none" xmlns="http://www.w3.org/2000/svg">
<path d="M11 15.481C10.8684 15.4818 10.738 15.4566 10.6161 15.4068C10.4943 15.357 10.3835 15.2837 10.29 15.191L6.00003 12.891L1.71003 15.191C1.51873 15.3549 1.27265 15.4405 1.02097 15.4307C0.769298 15.421 0.530558 15.3167 0.352464 15.1386C0.174369 14.9605 0.0700372 14.7218 0.0603161 14.4701C0.0505949 14.2184 0.136201 13.9723 0.300027 13.781L5.30003 10.781C5.48739 10.5948 5.74084 10.4902 6.00503 10.4902C6.26921 10.4902 6.52266 10.5948 6.71003 10.781L11.71 13.781C11.8476 13.9214 11.9408 14.0992 11.9779 14.2923C12.015 14.4853 11.9944 14.685 11.9186 14.8664C11.8429 15.0478 11.7153 15.2029 11.552 15.3122C11.3886 15.4215 11.1966 15.4802 11 15.481Z" fill="#DB3B21"/>
<path d="M11 10.4908C10.8684 10.4916 10.738 10.4663 10.6161 10.4166C10.4943 10.3668 10.3835 10.2935 10.29 10.2008L6.00003 7.90079L1.71003 10.2008C1.51873 10.3646 1.27265 10.4502 1.02097 10.4405C0.769298 10.4308 0.530558 10.3265 0.352464 10.1484C0.174369 9.97026 0.0700372 9.73152 0.0603161 9.47985C0.0505949 9.22817 0.136201 8.98209 0.300027 8.79079L5.30003 5.79079C5.48739 5.60454 5.74084 5.5 6.00503 5.5C6.26921 5.5 6.52266 5.60454 6.71003 5.79079L11.71 8.79079C11.8476 8.93117 11.9408 9.109 11.9779 9.30205C12.015 9.49509 11.9944 9.69479 11.9186 9.87619C11.8429 10.0576 11.7153 10.2126 11.552 10.3219C11.3886 10.4312 11.1966 10.49 11 10.4908Z" fill="#DB3B21"/>
<path d="M11 5.50056C10.8684 5.50132 10.738 5.47609 10.6161 5.42633C10.4943 5.37656 10.3835 5.30324 10.29 5.21056L6.00003 2.91056L1.71003 5.21056C1.51873 5.37438 1.27265 5.45999 1.02097 5.45027C0.769298 5.44055 0.530558 5.33622 0.352464 5.15812C0.174369 4.98003 0.0700372 4.74129 0.0603161 4.48961C0.0505949 4.23794 0.136201 3.99186 0.300027 3.80056L5.30003 0.800558C5.48739 0.614307 5.74084 0.509766 6.00503 0.509766C6.26921 0.509766 6.52266 0.614307 6.71003 0.800558L11.71 3.80056C11.8476 3.94094 11.9408 4.11877 11.9779 4.31181C12.015 4.50486 11.9944 4.70456 11.9186 4.88595C11.8429 5.06735 11.7153 5.22239 11.552 5.3317C11.3886 5.44101 11.1966 5.49975 11 5.50056Z" fill="#DB3B21"/>
</svg>
