<svg width="24" height="24" viewBox="0 0 24 24" fill="none" xmlns="http://www.w3.org/2000/svg">
<path fill-rule="evenodd" clip-rule="evenodd" d="M12 24C18.6274 24 24 18.6274 24 12C24 5.37258 18.6274 0 12 0C5.37258 0 0 5.37258 0 12C0 18.6274 5.37258 24 12 24ZM12 22C17.5228 22 22 17.5228 22 12C22 6.47715 17.5228 2 12 2C6.47715 2 2 6.47715 2 12C2 17.5228 6.47715 22 12 22Z" fill="#D0D0DB"/>
<path fill-rule="evenodd" clip-rule="evenodd" d="M20.4853 20.4853C18.2348 22.7357 15.1826 24 12 24V22C17.5228 22 22 17.5228 22 12C22 6.47715 17.5228 2 12 2L12 0C15.1826 0 18.2348 1.26428 20.4853 3.51472C22.7357 5.76516 24 8.8174 24 12C24 15.1826 22.7357 18.2348 20.4853 20.4853Z" fill="#23CC52"/>
<path d="M10.4727 16.9961C10.7832 16.9961 11.0234 16.8672 11.1934 16.6152L16.7012 8.03711C16.8242 7.84375 16.877 7.67969 16.877 7.52148C16.877 7.10547 16.584 6.81836 16.1621 6.81836C15.875 6.81836 15.6992 6.92383 15.5234 7.19922L10.4434 15.2559L7.83594 11.9102C7.66016 11.6816 7.47852 11.5879 7.2207 11.5879C6.79883 11.5879 6.49414 11.8867 6.49414 12.2969C6.49414 12.4785 6.55859 12.6543 6.71094 12.8359L9.74609 16.6211C9.95117 16.8789 10.168 16.9961 10.4727 16.9961Z" fill="#23CC52"/>
</svg>
