<svg width="24" height="24" viewBox="0 0 24 24" fill="none" xmlns="http://www.w3.org/2000/svg">
<circle cx="12" cy="12" r="12" fill="#23CC52"/>
<path d="M10.5898 17.0371C10.9414 17.0371 11.2168 16.8965 11.4102 16.6094L16.8945 8.14844C17.0352 7.9375 17.0938 7.74414 17.0938 7.5625C17.0938 7.08203 16.7422 6.73633 16.25 6.73633C15.9102 6.73633 15.7051 6.85352 15.5 7.18164L10.5664 14.9863L8.04688 11.8105C7.84766 11.5703 7.64258 11.459 7.34961 11.459C6.85156 11.459 6.49414 11.8105 6.49414 12.2969C6.49414 12.5078 6.56445 12.707 6.74609 12.918L9.77539 16.6387C10.0039 16.9141 10.2559 17.0371 10.5898 17.0371Z" fill="white"/>
</svg>
