<svg width="18" height="14" viewBox="0 0 18 14" fill="none" xmlns="http://www.w3.org/2000/svg">
<path d="M9 0.75C5.25 0.75 2.0475 3.34167 0.75 7C2.0475 10.6583 5.25 13.25 9 13.25C12.75 13.25 15.9525 10.6583 17.25 7C15.9525 3.34167 12.75 0.75 9 0.75ZM9 11.1667C6.93 11.1667 5.25 9.3 5.25 7C5.25 4.7 6.93 2.83333 9 2.83333C11.07 2.83333 12.75 4.7 12.75 7C12.75 9.3 11.07 11.1667 9 11.1667ZM9 4.5C7.755 4.5 6.75 5.61667 6.75 7C6.75 8.38333 7.755 9.5 9 9.5C10.245 9.5 11.25 8.38333 11.25 7C11.25 5.61667 10.245 4.5 9 4.5Z" fill="#CCCFD5"/>
</svg>
