<svg width="24" height="24" viewBox="0 0 24 24" fill="none" xmlns="http://www.w3.org/2000/svg">
<path fill-rule="evenodd" clip-rule="evenodd" d="M12 24C18.6274 24 24 18.6274 24 12C24 5.37258 18.6274 0 12 0C5.37258 0 0 5.37258 0 12C0 18.6274 5.37258 24 12 24ZM12 22C17.5228 22 22 17.5228 22 12C22 6.47715 17.5228 2 12 2C6.47715 2 2 6.47715 2 12C2 17.5228 6.47715 22 12 22Z" fill="#0047FF"/>
<path fill-rule="evenodd" clip-rule="evenodd" d="M9.60107 19.634C10.3585 19.8718 11.1644 20 12.0003 20C16.4186 20 20.0003 16.4183 20.0003 12C20.0003 7.58172 16.4186 4 12.0003 4L12.0003 12L9.60107 19.634Z" fill="#0047FF"/>
</svg>
