<svg width="24" height="24" viewBox="0 0 24 24" fill="none" xmlns="http://www.w3.org/2000/svg">
<circle cx="12" cy="12" r="11.5" stroke="#D0D0DB"/>
<path d="M13.0391 12.8203C13.0156 13.5 12.6406 13.8633 12.0078 13.8633C11.3398 13.8633 10.9648 13.5 10.9531 12.832L10.7773 7.17188C10.7656 6.48047 11.2578 6 11.9961 6C12.7109 6 13.2266 6.49219 13.2148 7.18359L13.0391 12.8203Z" fill="#FF9D12"/>
<path d="M13.3789 16.4648C13.3789 17.2031 12.7578 17.7539 12.0078 17.7539C11.2461 17.7539 10.625 17.2031 10.625 16.4648C10.625 15.7266 11.2344 15.1758 12.0078 15.1758C12.7695 15.1758 13.3789 15.7148 13.3789 16.4648Z" fill="#FF9D12"/>
</svg>
