<svg width="14" height="14" viewBox="0 0 14 14" fill="none" xmlns="http://www.w3.org/2000/svg">
<path d="M6.63086 13.6274C10.2539 13.6274 13.2549 10.6265 13.2549 6.99658C13.2549 3.37354 10.2471 0.372559 6.62402 0.372559C3.00098 0.372559 0 3.37354 0 6.99658C0 10.6265 3.00781 13.6274 6.63086 13.6274ZM5.74219 10.3394C5.5166 10.3394 5.33203 10.2368 5.14746 10.0112L3.28809 7.72119C3.17871 7.59814 3.12402 7.44092 3.12402 7.29053C3.12402 6.97607 3.37012 6.72998 3.67773 6.72998C3.8623 6.72998 4.02637 6.79834 4.18359 7.00342L5.71484 8.97217L8.68848 4.20752C8.8252 3.99561 8.99609 3.89307 9.18066 3.89307C9.47461 3.89307 9.76172 4.09131 9.76172 4.4126C9.76172 4.56299 9.67969 4.72021 9.59766 4.85693L6.30957 10.0044C6.16602 10.23 5.97461 10.3394 5.74219 10.3394Z" fill="#7B7B87"/>
</svg>
