<svg width="16" height="15" viewBox="0 0 16 15" fill="none" xmlns="http://www.w3.org/2000/svg">
<path fill-rule="evenodd" clip-rule="evenodd" d="M6.78613 13.9551C7.56588 13.9551 8.31681 13.8161 9.01521 13.5618L8.39794 12.8355C8.10198 12.4942 7.94141 12.1158 7.94141 11.6602C7.94141 10.6726 8.72309 9.94141 9.67578 9.94141C10.2101 9.94141 10.669 10.1518 11.0139 10.5664L11.0157 10.5685L11.5854 11.2488L13.2911 8.57144C13.3692 8.169 13.4102 7.75427 13.4102 7.33105C13.4102 3.70801 10.4023 0.707031 6.7793 0.707031C3.15625 0.707031 0.155273 3.70801 0.155273 7.33105C0.155273 10.9541 3.16309 13.9551 6.78613 13.9551ZM11.1518 12.2885L10.2461 11.207C10.0938 11.0234 9.91797 10.9414 9.67578 10.9414C9.25391 10.9414 8.94141 11.2461 8.94141 11.6602C8.94141 11.8477 8.99609 12 9.15625 12.1836L9.96087 13.1303L11.0586 14.4219C11.2344 14.6289 11.4414 14.7227 11.7109 14.7227C12.0039 14.7227 12.2305 14.6133 12.3867 14.3828L15.8086 9.21875C15.918 9.05469 15.9648 8.89062 15.9648 8.74219C15.9648 8.33203 15.6484 8.02734 15.2266 8.02734C14.9414 8.02734 14.7578 8.13281 14.582 8.40625L11.6953 12.9375L11.1518 12.2885ZM6.05469 10.5029C5.82227 10.5029 5.6377 10.4072 5.4668 10.1816L3.85352 8.21289C3.75098 8.07617 3.69629 7.92578 3.69629 7.77539C3.69629 7.46777 3.92871 7.22168 4.24316 7.22168C4.42773 7.22168 4.57812 7.2832 4.74219 7.49512L6.02734 9.14941L8.76172 4.77441C8.88477 4.5625 9.0625 4.45996 9.24707 4.45996C9.54102 4.45996 9.81445 4.66504 9.81445 4.97949C9.81445 5.12305 9.73926 5.28027 9.65039 5.41699L6.61523 10.1748C6.47852 10.3936 6.28711 10.5029 6.05469 10.5029Z" fill="#7B7B87"/>
</svg>
