<svg width="20" height="20" viewBox="0 0 20 20" fill="none" xmlns="http://www.w3.org/2000/svg">
<g id="arrows-up-left-down-right">
<g id="Group">
<path id="Shape" fill-rule="evenodd" clip-rule="evenodd" d="M2.75 3.5C2.75 3.39831 2.77024 3.30134 2.80691 3.21291C2.84324 3.12511 2.89696 3.0428 2.96808 2.97126L2.96967 2.96967L2.97126 2.96808C3.10686 2.83329 3.2937 2.75 3.5 2.75H9.5C9.91421 2.75 10.25 3.08579 10.25 3.5C10.25 3.91421 9.91421 4.25 9.5 4.25H5.31066L9.03033 7.96967C9.32322 8.26256 9.32322 8.73744 9.03033 9.03033C8.73744 9.32322 8.26256 9.32322 7.96967 9.03033L4.25 5.31066V9.5C4.25 9.91421 3.91421 10.25 3.5 10.25C3.08579 10.25 2.75 9.91421 2.75 9.5V3.5ZM12.0303 10.9697C11.7374 10.6768 11.2626 10.6768 10.9697 10.9697C10.6768 11.2626 10.6768 11.7374 10.9697 12.0303L14.6893 15.75H10.5C10.0858 15.75 9.75 16.0858 9.75 16.5C9.75 16.9142 10.0858 17.25 10.5 17.25H16.5C16.6017 17.25 16.6987 17.2298 16.7871 17.1931C16.8755 17.1565 16.9584 17.1022 17.0303 17.0303C17.1768 16.8839 17.25 16.6919 17.25 16.5V10.5C17.25 10.0858 16.9142 9.75 16.5 9.75C16.0858 9.75 15.75 10.0858 15.75 10.5V14.6893L12.0303 10.9697Z" fill="currentColor"/>
</g>
</g>
</svg>
