<svg width="20" height="20" viewBox="0 0 20 20" fill="none" xmlns="http://www.w3.org/2000/svg">
<g id="arrow-up-line">
<g id="Group">
<path id="Shape" fill-rule="evenodd" clip-rule="evenodd" d="M10 1.75C10.1017 1.75 10.1987 1.77024 10.2871 1.80691C10.3755 1.84351 10.4584 1.89776 10.5303 1.96967L15.5303 6.96967C15.8232 7.26256 15.8232 7.73744 15.5303 8.03033C15.2374 8.32322 14.7626 8.32322 14.4697 8.03033L10.75 4.31066V13.5C10.75 13.9142 10.4142 14.25 10 14.25C9.58579 14.25 9.25 13.9142 9.25 13.5V4.31066L5.53033 8.03033C5.23744 8.32322 4.76256 8.32322 4.46967 8.03033C4.17678 7.73744 4.17678 7.26256 4.46967 6.96967L9.46967 1.96967C9.54158 1.89776 9.62445 1.84351 9.71291 1.80691C9.80134 1.77024 9.89831 1.75 10 1.75ZM3 16.75C2.58579 16.75 2.25 17.0858 2.25 17.5C2.25 17.9142 2.58579 18.25 3 18.25H17C17.4142 18.25 17.75 17.9142 17.75 17.5C17.75 17.0858 17.4142 16.75 17 16.75H3Z" fill="currentColor"/>
</g>
</g>
</svg>
