<svg width="20" height="20" viewBox="0 0 20 20" fill="none" xmlns="http://www.w3.org/2000/svg">
<g id="arrow-outside-box-right">
<g id="Group">
<path id="Shape" fill-rule="evenodd" clip-rule="evenodd" d="M3.25 4C3.25 3.86221 3.36221 3.75 3.5 3.75H10.5C10.9142 3.75 11.25 3.41421 11.25 3C11.25 2.58579 10.9142 2.25 10.5 2.25H3.5C2.53379 2.25 1.75 3.03379 1.75 4V16C1.75 16.9662 2.53379 17.75 3.5 17.75H10.5C10.9142 17.75 11.25 17.4142 11.25 17C11.25 16.5858 10.9142 16.25 10.5 16.25H3.5C3.36221 16.25 3.25 16.1378 3.25 16V4ZM12.9697 5.46967C13.2626 5.17678 13.7374 5.17678 14.0303 5.46967L18.0303 9.46967C18.1022 9.54158 18.1565 9.62445 18.1931 9.71291C18.2298 9.80134 18.25 9.89831 18.25 10C18.25 10.1919 18.1768 10.3839 18.0303 10.5303L14.0303 14.5303C13.7374 14.8232 13.2626 14.8232 12.9697 14.5303C12.6768 14.2374 12.6768 13.7626 12.9697 13.4697L15.6893 10.75H7.5C7.08579 10.75 6.75 10.4142 6.75 10C6.75 9.58579 7.08579 9.25 7.5 9.25H15.6893L12.9697 6.53033C12.6768 6.23744 12.6768 5.76256 12.9697 5.46967Z" fill="currentColor"/>
</g>
</g>
</svg>
