<svg width="20" height="20" viewBox="0 0 20 20" fill="none" xmlns="http://www.w3.org/2000/svg">
<g id="arrow-up">
<g id="Group">
<path id="Shape" fill-rule="evenodd" clip-rule="evenodd" d="M10.2871 1.80691C10.1987 1.77024 10.1017 1.75 10 1.75C9.89831 1.75 9.80134 1.77024 9.71291 1.80691C9.62445 1.84351 9.54158 1.89776 9.46967 1.96967L4.46967 6.96967C4.17678 7.26256 4.17678 7.73744 4.46967 8.03033C4.76256 8.32322 5.23744 8.32322 5.53033 8.03033L9.25 4.31066V17.5C9.25 17.9142 9.58579 18.25 10 18.25C10.4142 18.25 10.75 17.9142 10.75 17.5V4.31066L14.4697 8.03033C14.7626 8.32322 15.2374 8.32322 15.5303 8.03033C15.8232 7.73744 15.8232 7.26256 15.5303 6.96967L10.5303 1.96967C10.4584 1.89776 10.3755 1.84351 10.2871 1.80691Z" fill="currentColor"/>
</g>
</g>
</svg>
