<svg width="20" height="20" viewBox="0 0 20 20" fill="none" xmlns="http://www.w3.org/2000/svg">
<g id="arrow-down">
<g id="Group">
<path id="Shape" fill-rule="evenodd" clip-rule="evenodd" d="M10.75 2.5C10.75 2.08579 10.4142 1.75 10 1.75C9.58579 1.75 9.25 2.08579 9.25 2.5V15.6893L5.53033 11.9697C5.23744 11.6768 4.76256 11.6768 4.46967 11.9697C4.17678 12.2626 4.17678 12.7374 4.46967 13.0303L9.46967 18.0303C9.54158 18.1022 9.62445 18.1565 9.71291 18.1931C9.79009 18.2251 9.87376 18.2446 9.96141 18.249C9.97419 18.2497 9.98706 18.25 10 18.25C10.1919 18.25 10.3839 18.1768 10.5303 18.0303L15.5303 13.0303C15.8232 12.7374 15.8232 12.2626 15.5303 11.9697C15.2374 11.6768 14.7626 11.6768 14.4697 11.9697L10.75 15.6893V2.5Z" fill="currentColor"/>
</g>
</g>
</svg>
