<svg width="20" height="20" viewBox="0 0 20 20" fill="none" xmlns="http://www.w3.org/2000/svg">
<g id="arrow-curved-right">
<g id="Group">
<path id="Shape" fill-rule="evenodd" clip-rule="evenodd" d="M3.25 8C3.25 5.92921 4.92921 4.25 7 4.25H13.5C13.9142 4.25 14.25 3.91421 14.25 3.5C14.25 3.08579 13.9142 2.75 13.5 2.75H7C4.10079 2.75 1.75 5.10079 1.75 8C1.75 10.8992 4.10079 13.25 7 13.25H15.6893L12.9697 15.9697C12.6768 16.2626 12.6768 16.7374 12.9697 17.0303C13.2626 17.3232 13.7374 17.3232 14.0303 17.0303L18.0303 13.0303C18.1022 12.9584 18.1565 12.8755 18.1931 12.7871C18.2251 12.7099 18.2446 12.6262 18.249 12.5386C18.2497 12.5258 18.25 12.5129 18.25 12.5C18.25 12.3983 18.2298 12.3013 18.1931 12.2129C18.1565 12.1245 18.1022 12.0416 18.0303 11.9697L14.0303 7.96967C13.7374 7.67678 13.2626 7.67678 12.9697 7.96967C12.6768 8.26256 12.6768 8.73744 12.9697 9.03033L15.6893 11.75H7C4.92921 11.75 3.25 10.0708 3.25 8Z" fill="currentColor"/>
</g>
</g>
</svg>
