<svg width="20" height="20" viewBox="0 0 20 20" fill="none" xmlns="http://www.w3.org/2000/svg">
<g id="arrow-round">
<g id="Group">
<path id="Shape" fill-rule="evenodd" clip-rule="evenodd" d="M16.75 2C16.75 1.58579 16.4142 1.25 16 1.25C15.5858 1.25 15.25 1.58579 15.25 2V4.60237C13.9117 3.16726 12.0922 2.25 10 2.25C5.71979 2.25 2.25 5.71979 2.25 10C2.25 14.2802 5.71979 17.75 10 17.75C14.2802 17.75 17.75 14.2802 17.75 10C17.75 9.58579 17.4142 9.25 17 9.25C16.5858 9.25 16.25 9.58579 16.25 10C16.25 13.4518 13.4518 16.25 10 16.25C6.54821 16.25 3.75 13.4518 3.75 10C3.75 6.54821 6.54821 3.75 10 3.75C11.8858 3.75 13.5446 4.71199 14.6709 6.25H11C10.5858 6.25 10.25 6.58579 10.25 7C10.25 7.41421 10.5858 7.75 11 7.75H15.9848C16.0469 7.75131 16.1096 7.7449 16.1715 7.7303C16.3678 7.68439 16.5344 7.56139 16.6377 7.39497C16.6932 7.30558 16.7304 7.20367 16.7441 7.09445C16.7488 7.05787 16.7508 7.02085 16.75 6.98368V2Z" fill="currentColor"/>
</g>
</g>
</svg>
