<svg width="20" height="20" viewBox="0 0 20 20" fill="none" xmlns="http://www.w3.org/2000/svg">
<g id="arrow-left">
<g id="Group">
<path id="Shape" fill-rule="evenodd" clip-rule="evenodd" d="M8.03033 5.53033C8.32322 5.23744 8.32322 4.76256 8.03033 4.46967C7.73744 4.17678 7.26256 4.17678 6.96967 4.46967L1.96967 9.46967C1.89776 9.54158 1.84351 9.62445 1.80691 9.71291C1.77024 9.80134 1.75 9.89831 1.75 10C1.75 10.1017 1.77024 10.1987 1.80691 10.2871C1.84351 10.3755 1.89776 10.4584 1.96967 10.5303L6.96967 15.5303C7.26256 15.8232 7.73744 15.8232 8.03033 15.5303C8.32322 15.2374 8.32322 14.7626 8.03033 14.4697L4.31066 10.75H17.5C17.9142 10.75 18.25 10.4142 18.25 10C18.25 9.58579 17.9142 9.25 17.5 9.25H4.31066L8.03033 5.53033Z" fill="currentColor"/>
</g>
</g>
</svg>
