<svg width="20" height="20" viewBox="0 0 20 20" fill="none" xmlns="http://www.w3.org/2000/svg">
<g id="arrow-right">
<g id="Group">
<path id="Shape" fill-rule="evenodd" clip-rule="evenodd" d="M13.0303 4.46967C12.7374 4.17678 12.2626 4.17678 11.9697 4.46967C11.6768 4.76256 11.6768 5.23744 11.9697 5.53033L15.6893 9.25H2.5C2.08579 9.25 1.75 9.58579 1.75 10C1.75 10.4142 2.08579 10.75 2.5 10.75H15.6893L11.9697 14.4697C11.6768 14.7626 11.6768 15.2374 11.9697 15.5303C12.2626 15.8232 12.7374 15.8232 13.0303 15.5303L18.0303 10.5303C18.1768 10.3839 18.25 10.1919 18.25 10C18.25 9.89831 18.2298 9.80134 18.1931 9.71291C18.1565 9.62445 18.1022 9.54158 18.0303 9.46967L13.0303 4.46967Z" fill="currentColor"/>
</g>
</g>
</svg>
