<svg width="20" height="20" viewBox="0 0 20 20" fill="none" xmlns="http://www.w3.org/2000/svg">
<g id="arrow-outside-box-top-right">
<g id="Group">
<path id="Shape" fill-rule="evenodd" clip-rule="evenodd" d="M9.75 2.5C9.75 2.08579 10.0858 1.75 10.5 1.75H17.5C17.6017 1.75 17.6987 1.77024 17.7871 1.80691C17.8755 1.84351 17.9584 1.89776 18.0303 1.96967C18.1768 2.11612 18.25 2.30806 18.25 2.5V9.5C18.25 9.91421 17.9142 10.25 17.5 10.25C17.0858 10.25 16.75 9.91421 16.75 9.5V4.31066L10.0303 11.0303C9.73744 11.3232 9.26256 11.3232 8.96967 11.0303C8.67678 10.7374 8.67678 10.2626 8.96967 9.96967L15.6893 3.25H10.5C10.0858 3.25 9.75 2.91421 9.75 2.5ZM3.25 6.5C3.25 6.36221 3.36221 6.25 3.5 6.25H8.5C8.91421 6.25 9.25 5.91421 9.25 5.5C9.25 5.08579 8.91421 4.75 8.5 4.75H3.5C2.53379 4.75 1.75 5.53379 1.75 6.5V16.5C1.75 17.4662 2.53379 18.25 3.5 18.25H13.5C14.4662 18.25 15.25 17.4662 15.25 16.5V11.5C15.25 11.0858 14.9142 10.75 14.5 10.75C14.0858 10.75 13.75 11.0858 13.75 11.5V16.5C13.75 16.6378 13.6378 16.75 13.5 16.75H3.5C3.36221 16.75 3.25 16.6378 3.25 16.5V6.5Z" fill="currentColor"/>
</g>
</g>
</svg>
