<svg width="20" height="20" viewBox="0 0 20 20" fill="none" xmlns="http://www.w3.org/2000/svg">
<g id="arrow-corner-left">
<g id="Group">
<path id="Shape" fill-rule="evenodd" clip-rule="evenodd" d="M8.53033 4.03033C8.82322 3.73744 8.82322 3.26256 8.53033 2.96967C8.23744 2.67678 7.76256 2.67678 7.46967 2.96967L2.46967 7.96967C2.39776 8.04158 2.34351 8.12445 2.30691 8.21291C2.27024 8.30134 2.25 8.39831 2.25 8.5C2.25 8.60169 2.27024 8.69866 2.30691 8.78709C2.34351 8.87555 2.39776 8.95842 2.46967 9.03033L7.46967 14.0303C7.76256 14.3232 8.23744 14.3232 8.53033 14.0303C8.82322 13.7374 8.82322 13.2626 8.53033 12.9697L4.81066 9.25H13C14.7948 9.25 16.25 10.7052 16.25 12.5V16.5C16.25 16.9142 16.5858 17.25 17 17.25C17.4142 17.25 17.75 16.9142 17.75 16.5V12.5C17.75 9.87679 15.6232 7.75 13 7.75H4.81066L8.53033 4.03033Z" fill="currentColor"/>
</g>
</g>
</svg>
