<svg width="20" height="20" viewBox="0 0 20 20" fill="none" xmlns="http://www.w3.org/2000/svg">
<g id="arrow-combined">
<g id="Group">
<g id="Shape">
<path fill-rule="evenodd" clip-rule="evenodd" d="M10.5303 18.0303C10.2374 18.3232 9.76256 18.3232 9.46967 18.0303L5.46967 14.0303C5.17678 13.7374 5.17678 13.2626 5.46967 12.9697C5.76256 12.6768 6.23744 12.6768 6.53033 12.9697L10 16.4393L13.4697 12.9697C13.7626 12.6768 14.2374 12.6768 14.5303 12.9697C14.8232 13.2626 14.8232 13.7374 14.5303 14.0303L10.5303 18.0303Z" fill="currentColor"/>
<path fill-rule="evenodd" clip-rule="evenodd" d="M10 18.25C9.58579 18.25 9.25 17.9142 9.25 17.5V7.50001C9.25 7.2887 9.33914 7.08719 9.49549 6.94505L14.9955 1.94505C15.302 1.66642 15.7763 1.68901 16.055 1.9955C16.3336 2.30199 16.311 2.77633 16.0045 3.05496L10.75 7.83178V17.5C10.75 17.9142 10.4142 18.25 10 18.25Z" fill="currentColor"/>
<path fill-rule="evenodd" clip-rule="evenodd" d="M8.35496 6.00454C8.07632 6.31103 7.60199 6.33361 7.2955 6.05498L3.99549 3.05496C3.689 2.77633 3.66641 2.30199 3.94504 1.9955C4.22368 1.68901 4.69801 1.66642 5.0045 1.94505L8.30451 4.94508C8.611 5.22371 8.63359 5.69804 8.35496 6.00454Z" fill="currentColor"/>
</g>
</g>
</g>
</svg>
