<svg width="20" height="20" viewBox="0 0 20 20" fill="none" xmlns="http://www.w3.org/2000/svg">
<g id="arrows-round">
<g id="Group">
<path id="Shape" fill-rule="evenodd" clip-rule="evenodd" d="M3.75 9.5C3.75 6.04821 6.54821 3.25 10 3.25C11.8858 3.25 13.5446 4.21199 14.6709 5.75H12C11.5858 5.75 11.25 6.08579 11.25 6.5C11.25 6.91421 11.5858 7.25 12 7.25H15.9848C16.0469 7.25131 16.1096 7.2449 16.1715 7.2303C16.2593 7.20976 16.3412 7.17379 16.4141 7.12541C16.6005 7.0023 16.7171 6.80586 16.7441 6.59445C16.7488 6.55787 16.7508 6.52085 16.75 6.48368V2.5C16.75 2.08579 16.4142 1.75 16 1.75C15.5858 1.75 15.25 2.08579 15.25 2.5V4.10237C13.9117 2.66726 12.0922 1.75 10 1.75C5.71979 1.75 2.25 5.21979 2.25 9.5C2.25 9.91421 2.58579 10.25 3 10.25C3.41421 10.25 3.75 9.91421 3.75 9.5ZM17 9.75C17.4142 9.75 17.75 10.0858 17.75 10.5C17.75 14.7802 14.2802 18.25 10 18.25C7.90783 18.25 6.08828 17.3327 4.75 15.8976V17.5C4.75 17.9142 4.41421 18.25 4 18.25C3.58579 18.25 3.25 17.9142 3.25 17.5V13.5163C3.24694 13.3709 3.28643 13.2277 3.36241 13.1049C3.4181 13.0148 3.4934 12.9357 3.5859 12.8746C3.65879 12.8262 3.74063 12.7903 3.8284 12.7697C3.89036 12.7551 3.95309 12.7487 4.01517 12.75H8C8.41421 12.75 8.75 13.0858 8.75 13.5C8.75 13.9142 8.41421 14.25 8 14.25H5.32909C6.45544 15.788 8.11423 16.75 10 16.75C13.4518 16.75 16.25 13.9518 16.25 10.5C16.25 10.0858 16.5858 9.75 17 9.75Z" fill="currentColor"/>
</g>
</g>
</svg>
