<svg width="20" height="20" viewBox="0 0 20 20" fill="none" xmlns="http://www.w3.org/2000/svg">
<g id="arrow-down-line">
<g id="Group">
<path id="Shape" fill-rule="evenodd" clip-rule="evenodd" d="M10 1.75C10.4142 1.75 10.75 2.08579 10.75 2.5V11.6893L14.4697 7.96967C14.7626 7.67678 15.2374 7.67678 15.5303 7.96967C15.8232 8.26256 15.8232 8.73744 15.5303 9.03033L10.5303 14.0303C10.4584 14.1022 10.3755 14.1565 10.2871 14.1931C10.1987 14.2298 10.1017 14.25 10 14.25C9.89831 14.25 9.80134 14.2298 9.71291 14.1931C9.62445 14.1565 9.54158 14.1022 9.46967 14.0303L4.46967 9.03033C4.17678 8.73744 4.17678 8.26256 4.46967 7.96967C4.76256 7.67678 5.23744 7.67678 5.53033 7.96967L9.25 11.6893V2.5C9.25 2.08579 9.58579 1.75 10 1.75ZM3 16.75C2.58579 16.75 2.25 17.0858 2.25 17.5C2.25 17.9142 2.58579 18.25 3 18.25H17C17.4142 18.25 17.75 17.9142 17.75 17.5C17.75 17.0858 17.4142 16.75 17 16.75H3Z" fill="currentColor"/>
</g>
</g>
</svg>
