<svg width="20" height="20" viewBox="0 0 20 20" fill="none" xmlns="http://www.w3.org/2000/svg">
<g id="arrow-corner-right">
<g id="Group">
<path id="Shape" fill-rule="evenodd" clip-rule="evenodd" d="M12.5303 2.96967C12.2374 2.67678 11.7626 2.67678 11.4697 2.96967C11.1768 3.26256 11.1768 3.73744 11.4697 4.03033L15.1893 7.75H7C4.37679 7.75 2.25 9.87679 2.25 12.5V16.5C2.25 16.9142 2.58579 17.25 3 17.25C3.41421 17.25 3.75 16.9142 3.75 16.5V12.5C3.75 10.7052 5.20521 9.25 7 9.25H15.1893L11.4697 12.9697C11.1768 13.2626 11.1768 13.7374 11.4697 14.0303C11.7626 14.3232 12.2374 14.3232 12.5303 14.0303L17.5303 9.03033C17.6768 8.88388 17.75 8.69194 17.75 8.5C17.75 8.39831 17.7298 8.30134 17.6931 8.21291C17.6565 8.12445 17.6022 8.04158 17.5303 7.96967L12.5303 2.96967Z" fill="currentColor"/>
</g>
</g>
</svg>
