<svg width="20" height="20" viewBox="0 0 20 20" fill="none" xmlns="http://www.w3.org/2000/svg">
<g id="bed">
<g id="Group">
<path id="Shape" fill-rule="evenodd" clip-rule="evenodd" d="M4.5 2.25C4.08579 2.25 3.75 2.58579 3.75 3V8C3.75 8.41421 4.08579 8.75 4.5 8.75C4.91421 8.75 5.25 8.41421 5.25 8V3.75H14.75V8C14.75 8.41421 15.0858 8.75 15.5 8.75C15.9142 8.75 16.25 8.41421 16.25 8V3C16.25 2.58579 15.9142 2.25 15.5 2.25H4.5ZM3.5 9.75C3.08579 9.75 2.75 10.0858 2.75 10.5V14.5V16.5C2.75 16.9142 3.08579 17.25 3.5 17.25C3.91421 17.25 4.25 16.9142 4.25 16.5V15.25H15.75V16.5C15.75 16.9142 16.0858 17.25 16.5 17.25C16.9142 17.25 17.25 16.9142 17.25 16.5V14.5V10.5C17.25 10.0858 16.9142 9.75 16.5 9.75H3.5ZM15.75 13.75V11.25H4.25V13.75H15.75ZM6.75 5.5C6.75 5.08579 7.08579 4.75 7.5 4.75H12.5C12.9142 4.75 13.25 5.08579 13.25 5.5V8C13.25 8.41421 12.9142 8.75 12.5 8.75C12.0858 8.75 11.75 8.41421 11.75 8V6.25H8.25V8C8.25 8.41421 7.91421 8.75 7.5 8.75C7.08579 8.75 6.75 8.41421 6.75 8V5.5Z" fill="currentColor"/>
</g>
</g>
</svg>
