<svg width="20" height="20" viewBox="0 0 20 20" fill="none" xmlns="http://www.w3.org/2000/svg">
<g id="book">
<g id="Group">
<path id="Shape" fill-rule="evenodd" clip-rule="evenodd" d="M3.29544 1.81064C3.06372 1.71133 2.7976 1.73509 2.58713 1.87387C2.37666 2.01265 2.25 2.2479 2.25 2.5V14.5C2.25 14.8 2.4288 15.0712 2.70456 15.1894L9.68935 18.1828C9.77862 18.2235 9.87726 18.2472 9.98115 18.2498C9.98743 18.2499 9.99372 18.25 10 18.25C10.0115 18.25 10.023 18.2497 10.0344 18.2492C10.1326 18.2448 10.2259 18.2215 10.3107 18.1828L17.2954 15.1894C17.5712 15.0712 17.75 14.8 17.75 14.5V2.5C17.75 2.2479 17.6233 2.01265 17.4129 1.87387C17.2024 1.73509 16.9363 1.71133 16.7046 1.81064L10 4.68403L3.29544 1.81064ZM10.75 16.3626L16.25 14.0055V3.63741L10.75 5.99455V16.3626ZM9.25 5.99455L3.75 3.63741V14.0055L9.25 16.3626V5.99455Z" fill="currentColor"/>
</g>
</g>
</svg>
