<svg width="20" height="20" viewBox="0 0 20 20" fill="none" xmlns="http://www.w3.org/2000/svg">
<g id="briefcase">
<g id="Group">
<path id="Shape" fill-rule="evenodd" clip-rule="evenodd" d="M7.5 2.25C7.08579 2.25 6.75 2.58579 6.75 3V5.25H3.5C3.03587 5.25 2.59075 5.43437 2.26256 5.76256C1.93437 6.09075 1.75 6.53587 1.75 7V12C1.75 12.4142 2.08579 12.75 2.5 12.75H7.75V14C7.75 14.4142 8.08579 14.75 8.5 14.75H11.5C11.9142 14.75 12.25 14.4142 12.25 14V12.75H17.5C17.9142 12.75 18.25 12.4142 18.25 12V7C18.25 6.53587 18.0656 6.09075 17.7374 5.76256C17.4092 5.43437 16.9641 5.25 16.5 5.25H13.25V3C13.25 2.58579 12.9142 2.25 12.5 2.25H7.5ZM12.25 11.25H16.75V7C16.75 6.9337 16.7237 6.87011 16.6768 6.82322C16.6299 6.77634 16.5663 6.75 16.5 6.75H12.5H7.5H3.5C3.4337 6.75 3.37011 6.77634 3.32322 6.82322C3.27634 6.87011 3.25 6.9337 3.25 7V11.25H7.75V10C7.75 9.58579 8.08579 9.25 8.5 9.25H11.5C11.9142 9.25 12.25 9.58579 12.25 10V11.25ZM9.25 12V13.25H10.75V12V10.75H9.25V12ZM11.75 5.25V3.75H8.25V5.25H11.75ZM3.5 13.25C3.91421 13.25 4.25 13.5858 4.25 14V16C4.25 16.0663 4.27634 16.1299 4.32322 16.1768C4.37011 16.2237 4.4337 16.25 4.5 16.25H15.5C15.5663 16.25 15.6299 16.2237 15.6768 16.1768C15.7237 16.1299 15.75 16.0663 15.75 16V14C15.75 13.5858 16.0858 13.25 16.5 13.25C16.9142 13.25 17.25 13.5858 17.25 14V16C17.25 16.4641 17.0656 16.9092 16.7374 17.2374C16.4092 17.5656 15.9641 17.75 15.5 17.75H4.5C4.03587 17.75 3.59075 17.5656 3.26256 17.2374C2.93437 16.9092 2.75 16.4641 2.75 16V14C2.75 13.5858 3.08579 13.25 3.5 13.25Z" fill="currentColor"/>
</g>
</g>
</svg>
