<svg width="20" height="20" viewBox="0 0 20 20" fill="none" xmlns="http://www.w3.org/2000/svg">
<g id="building">
<g id="Group">
<path id="Shape" fill-rule="evenodd" clip-rule="evenodd" d="M5.5 1.75C5.08579 1.75 4.75 2.08579 4.75 2.5V9.75H2.5C2.08579 9.75 1.75 10.0858 1.75 10.5V17.5C1.75 17.9142 2.08579 18.25 2.5 18.25H5.5H8.5H11.5H14.5H17.5C17.9142 18.25 18.25 17.9142 18.25 17.5V10.5C18.25 10.0858 17.9142 9.75 17.5 9.75H15.25V2.5C15.25 2.08579 14.9142 1.75 14.5 1.75H5.5ZM12.25 16.75H13.75V10.5V3.25H6.25V10.5V16.75H7.75V14.5C7.75 14.0858 8.08579 13.75 8.5 13.75H11.5C11.9142 13.75 12.25 14.0858 12.25 14.5V16.75ZM9.25 16.75V15.25H10.75V16.75H9.25ZM4.75 11.25H3.25V16.75H4.75V11.25ZM15.25 11.25H16.75V16.75H15.25V11.25ZM7.75 5.5C7.75 5.08579 8.08579 4.75 8.5 4.75H11.5C11.9142 4.75 12.25 5.08579 12.25 5.5C12.25 5.91421 11.9142 6.25 11.5 6.25H8.5C8.08579 6.25 7.75 5.91421 7.75 5.5ZM8.5 7.75C8.08579 7.75 7.75 8.08579 7.75 8.5C7.75 8.91421 8.08579 9.25 8.5 9.25H11.5C11.9142 9.25 12.25 8.91421 12.25 8.5C12.25 8.08579 11.9142 7.75 11.5 7.75H8.5ZM7.75 11.5C7.75 11.0858 8.08579 10.75 8.5 10.75H11.5C11.9142 10.75 12.25 11.0858 12.25 11.5C12.25 11.9142 11.9142 12.25 11.5 12.25H8.5C8.08579 12.25 7.75 11.9142 7.75 11.5Z" fill="currentColor"/>
</g>
</g>
</svg>
