<svg width="20" height="20" viewBox="0 0 20 20" fill="none" xmlns="http://www.w3.org/2000/svg">
<g id="calendar">
<g id="Group">
<path id="Shape" fill-rule="evenodd" clip-rule="evenodd" d="M6.5 2.25C6.91421 2.25 7.25 2.58579 7.25 3V4.25H12.75V3C12.75 2.58579 13.0858 2.25 13.5 2.25C13.9142 2.25 14.25 2.58579 14.25 3V4.25H16C16.5967 4.25 17.169 4.48705 17.591 4.90901C18.0129 5.33097 18.25 5.90326 18.25 6.5V8V15.5C18.25 16.0967 18.0129 16.669 17.591 17.091C17.169 17.5129 16.5967 17.75 16 17.75H4C3.40326 17.75 2.83097 17.5129 2.40901 17.091C1.98705 16.669 1.75 16.0967 1.75 15.5V8V6.5C1.75 5.90326 1.98705 5.33097 2.40901 4.90901C2.83097 4.48705 3.40326 4.25 4 4.25H5.75V3C5.75 2.58579 6.08579 2.25 6.5 2.25ZM13.5 5.75H6.5H4C3.80109 5.75 3.61032 5.82902 3.46967 5.96967C3.32902 6.11032 3.25 6.30109 3.25 6.5V7.25H16.75V6.5C16.75 6.30109 16.671 6.11032 16.5303 5.96967C16.3897 5.82902 16.1989 5.75 16 5.75H13.5ZM3.25 8.75H16.75V15.5C16.75 15.6989 16.671 15.8897 16.5303 16.0303C16.3897 16.171 16.1989 16.25 16 16.25H4C3.80109 16.25 3.61032 16.171 3.46967 16.0303C3.32902 15.8897 3.25 15.6989 3.25 15.5V8.75Z" fill="currentColor"/>
</g>
</g>
</svg>
