<svg width="20" height="20" viewBox="0 0 20 20" fill="none" xmlns="http://www.w3.org/2000/svg">
<g id="chat">
<g id="Group">
<path id="Shape" fill-rule="evenodd" clip-rule="evenodd" d="M3.77778 3.64014C3.50519 3.64014 3.24377 3.74842 3.05103 3.94117C2.85828 4.13391 2.75 4.39533 2.75 4.66791V11.779C2.75 12.0516 2.85828 12.313 3.05103 12.5058C3.24378 12.6985 3.50519 12.8068 3.77778 12.8068H6.44444C6.64336 12.8068 6.83412 12.8858 6.97477 13.0265L10 16.0517L13.0252 13.0265C13.1659 12.8858 13.3566 12.8068 13.5556 12.8068H16.2222C16.4948 12.8068 16.7562 12.6985 16.949 12.5058C17.1417 12.313 17.25 12.0516 17.25 11.779V4.66791C17.25 4.39533 17.1417 4.13391 16.949 3.94117C16.7562 3.74842 16.4948 3.64014 16.2222 3.64014H3.77778ZM1.99037 2.88051C2.46442 2.40646 3.10737 2.14014 3.77778 2.14014H16.2222C16.8926 2.14014 17.5356 2.40646 18.0096 2.88051C18.4837 3.35456 18.75 3.99751 18.75 4.66791V11.779C18.75 12.4494 18.4837 13.0924 18.0096 13.5664C17.5356 14.0405 16.8926 14.3068 16.2222 14.3068H13.8662L10.5303 17.6427C10.2374 17.9356 9.76256 17.9356 9.46967 17.6427L6.13378 14.3068H3.77778C3.10737 14.3068 2.46442 14.0405 1.99037 13.5664C1.51632 13.0924 1.25 12.4494 1.25 11.779V4.66791C1.25 3.99751 1.51632 3.35456 1.99037 2.88051ZM4.80556 6.44569C4.80556 6.03148 5.14134 5.69569 5.55556 5.69569H14.4444C14.8587 5.69569 15.1944 6.03148 15.1944 6.44569C15.1944 6.85991 14.8587 7.19569 14.4444 7.19569H5.55556C5.14134 7.19569 4.80556 6.85991 4.80556 6.44569ZM4.80556 10.0012C4.80556 9.58703 5.14134 9.25125 5.55556 9.25125H9.11111C9.52532 9.25125 9.86111 9.58703 9.86111 10.0012C9.86111 10.4155 9.52532 10.7512 9.11111 10.7512H5.55556C5.14134 10.7512 4.80556 10.4155 4.80556 10.0012Z" fill="currentColor"/>
</g>
</g>
</svg>
