<svg width="20" height="20" viewBox="0 0 20 20" fill="none" xmlns="http://www.w3.org/2000/svg">
<g id="check-marks">
<g id="Group">
<path id="Shape" fill-rule="evenodd" clip-rule="evenodd" d="M13.0644 6.49389C13.3372 6.18216 13.3056 5.70834 12.9939 5.43558C12.6822 5.16282 12.2083 5.1944 11.9356 5.50613L5.46347 12.9028L3.03033 10.4697C2.73744 10.1768 2.26256 10.1768 1.96967 10.4697C1.67678 10.7626 1.67678 11.2374 1.96967 11.5303L4.96967 14.5303C5.11645 14.6771 5.3175 14.7565 5.52496 14.7496C5.73242 14.7427 5.92774 14.6501 6.06443 14.4939L13.0644 6.49389ZM18.0644 6.49389C18.3372 6.18216 18.3056 5.70834 17.9939 5.43558C17.6822 5.16282 17.2083 5.1944 16.9356 5.50613L10.4635 12.9028L10.0303 12.4697C9.73744 12.1768 9.26256 12.1768 8.96967 12.4697C8.67678 12.7626 8.67678 13.2374 8.96967 13.5303L9.96967 14.5303C10.1164 14.6771 10.3175 14.7565 10.525 14.7496C10.7324 14.7427 10.9277 14.6501 11.0644 14.4939L18.0644 6.49389Z" fill="currentColor"/>
</g>
</g>
</svg>
