<svg width="20" height="20" viewBox="0 0 20 20" fill="none" xmlns="http://www.w3.org/2000/svg">
<g id="check-mark-clipboard">
<g id="Group">
<path id="Shape" fill-rule="evenodd" clip-rule="evenodd" d="M7.25 2C7.25 1.58579 7.58579 1.25 8 1.25H12C12.4142 1.25 12.75 1.58579 12.75 2V4.5C12.75 4.91421 12.4142 5.25 12 5.25H8C7.58579 5.25 7.25 4.91421 7.25 4.5V2ZM8.75 2.75V3.75H11.25V2.75H8.75ZM4.5 4.25C4.4337 4.25 4.37011 4.27634 4.32322 4.32322C4.27634 4.37011 4.25 4.4337 4.25 4.5V16.5C4.25 16.5663 4.27634 16.6299 4.32322 16.6768C4.37011 16.7237 4.4337 16.75 4.5 16.75H15.5C15.5663 16.75 15.6299 16.7237 15.6768 16.6768C15.7237 16.6299 15.75 16.5663 15.75 16.5V4.5C15.75 4.4337 15.7237 4.37011 15.6768 4.32322C15.6299 4.27634 15.5663 4.25 15.5 4.25H14.5C14.0858 4.25 13.75 3.91421 13.75 3.5C13.75 3.08579 14.0858 2.75 14.5 2.75H15.5C15.9641 2.75 16.4092 2.93437 16.7374 3.26256C17.0656 3.59075 17.25 4.03587 17.25 4.5V16.5C17.25 16.9641 17.0656 17.4092 16.7374 17.7374C16.4092 18.0656 15.9641 18.25 15.5 18.25H4.5C4.03587 18.25 3.59075 18.0656 3.26256 17.7374C2.93437 17.4092 2.75 16.9641 2.75 16.5V4.5C2.75 4.03587 2.93437 3.59075 3.26256 3.26256C3.59075 2.93437 4.03587 2.75 4.5 2.75H5.5C5.91421 2.75 6.25 3.08579 6.25 3.5C6.25 3.91421 5.91421 4.25 5.5 4.25H4.5ZM13.5303 9.53033C13.8232 9.23744 13.8232 8.76256 13.5303 8.46967C13.2374 8.17678 12.7626 8.17678 12.4697 8.46967L9 11.9393L7.53033 10.4697C7.23744 10.1768 6.76256 10.1768 6.46967 10.4697C6.17678 10.7626 6.17678 11.2374 6.46967 11.5303L8.46967 13.5303C8.76256 13.8232 9.23744 13.8232 9.53033 13.5303L13.5303 9.53033Z" fill="currentColor"/>
</g>
</g>
</svg>
