<svg width="20" height="20" viewBox="0 0 20 20" fill="none" xmlns="http://www.w3.org/2000/svg">
<g id="chevron-up-down">
<g id="Group">
<path id="Shape" fill-rule="evenodd" clip-rule="evenodd" d="M10.4983 1.93944C10.2141 1.68685 9.78589 1.68685 9.50173 1.93944L5.00173 5.93944C4.69214 6.21463 4.66425 6.68869 4.93944 6.99827C5.21463 7.30786 5.68869 7.33575 5.99827 7.06056L10 3.50347L14.0017 7.06056C14.3113 7.33575 14.7854 7.30786 15.0606 6.99827C15.3357 6.68869 15.3079 6.21463 14.9983 5.93944L10.4983 1.93944ZM5.99827 12.9394C5.68869 12.6643 5.21463 12.6921 4.93944 13.0017C4.66425 13.3113 4.69214 13.7854 5.00173 14.0606L9.50173 18.0606C9.78589 18.3131 10.2141 18.3131 10.4983 18.0606L14.9983 14.0606C15.3079 13.7854 15.3357 13.3113 15.0606 13.0017C14.7854 12.6921 14.3113 12.6643 14.0017 12.9394L10 16.4965L5.99827 12.9394Z" fill="currentColor"/>
</g>
</g>
</svg>
