<svg width="20" height="20" viewBox="0 0 20 20" fill="none" xmlns="http://www.w3.org/2000/svg">
<g id="clock">
<g id="Group">
<path id="Shape" fill-rule="evenodd" clip-rule="evenodd" d="M3.75 10C3.75 6.54822 6.54822 3.75 10 3.75C13.4518 3.75 16.25 6.54822 16.25 10C16.25 13.4518 13.4518 16.25 10 16.25C6.54822 16.25 3.75 13.4518 3.75 10ZM10 2.25C5.71979 2.25 2.25 5.71979 2.25 10C2.25 14.2802 5.71979 17.75 10 17.75C14.2802 17.75 17.75 14.2802 17.75 10C17.75 5.71979 14.2802 2.25 10 2.25ZM10.75 6C10.75 5.58579 10.4142 5.25 10 5.25C9.58579 5.25 9.25 5.58579 9.25 6V10C9.25 10.4142 9.58579 10.75 10 10.75H14C14.4142 10.75 14.75 10.4142 14.75 10C14.75 9.58579 14.4142 9.25 14 9.25H10.75V6Z" fill="currentColor"/>
</g>
</g>
</svg>
