<svg width="20" height="20" viewBox="0 0 20 20" fill="none" xmlns="http://www.w3.org/2000/svg">
<g id="documents">
<g id="Group">
<g id="Shape">
<path fill-rule="evenodd" clip-rule="evenodd" d="M2.75 5.5C2.75 5.08579 3.08579 4.75 3.5 4.75H13.5C13.9142 4.75 14.25 5.08579 14.25 5.5V17.5C14.25 17.9142 13.9142 18.25 13.5 18.25H3.5C3.08579 18.25 2.75 17.9142 2.75 17.5V5.5ZM4.25 6.25V16.75H12.75V6.25H4.25Z" fill="currentColor"/>
<path fill-rule="evenodd" clip-rule="evenodd" d="M4.75 2.5C4.75 2.08579 5.08579 1.75 5.5 1.75H16.5C16.9142 1.75 17.25 2.08579 17.25 2.5V15.5C17.25 15.9142 16.9142 16.25 16.5 16.25C16.0858 16.25 15.75 15.9142 15.75 15.5V3.25H5.5C5.08579 3.25 4.75 2.91421 4.75 2.5Z" fill="currentColor"/>
</g>
</g>
</g>
</svg>
