<svg width="20" height="20" viewBox="0 0 20 20" fill="none" xmlns="http://www.w3.org/2000/svg">
<g id="envelope">
<g id="Group">
<path id="Shape" fill-rule="evenodd" clip-rule="evenodd" d="M3.25 4.5C3.25 4.36221 3.36221 4.25 3.5 4.25H16.5C16.6378 4.25 16.75 4.36221 16.75 4.5V15.5C16.75 15.6378 16.6378 15.75 16.5 15.75H3.5C3.36221 15.75 3.25 15.6378 3.25 15.5V4.5ZM3.5 2.75C2.53379 2.75 1.75 3.53379 1.75 4.5V15.5C1.75 16.4662 2.53379 17.25 3.5 17.25H16.5C17.4662 17.25 18.25 16.4662 18.25 15.5V4.5C18.25 3.53379 17.4662 2.75 16.5 2.75H3.5ZM4.97493 5.91955C4.65434 5.65726 4.18183 5.70451 3.91953 6.02509C3.65724 6.34568 3.70449 6.81819 4.02507 7.08049L9.52507 11.5805C9.80135 11.8065 10.1987 11.8065 10.4749 11.5805L15.9749 7.08049C16.2955 6.81819 16.3428 6.34568 16.0805 6.02509C15.8182 5.70451 15.3457 5.65726 15.0251 5.91955L10 10.031L4.97493 5.91955Z" fill="currentColor"/>
</g>
</g>
</svg>
