<svg width="20" height="20" viewBox="0 0 20 20" fill="none" xmlns="http://www.w3.org/2000/svg">
<g id="exclamation-mark-triangle">
<g id="Group">
<path id="Shape" fill-rule="evenodd" clip-rule="evenodd" d="M9.78468 3.40241C9.84977 3.36354 9.92418 3.34302 10 3.34302C10.0758 3.34302 10.1502 3.36354 10.2153 3.40241C10.2804 3.44128 10.3338 3.49705 10.3697 3.56379L16.5984 15.1312L16.5985 15.1313C16.6328 15.1952 16.65 15.267 16.6484 15.3395C16.6467 15.4122 16.6263 15.4831 16.589 15.5455C16.5518 15.6078 16.499 15.6594 16.4358 15.6953C16.3727 15.7311 16.3013 15.75 16.2287 15.75H3.77134C3.69871 15.75 3.62733 15.7311 3.56417 15.6953C3.501 15.6594 3.44822 15.6078 3.41097 15.5455C3.37372 15.4831 3.35328 15.4122 3.35163 15.3395C3.34999 15.267 3.36716 15.1953 3.40148 15.1314L3.40159 15.1312L9.63025 3.56379C9.66622 3.49705 9.71958 3.44128 9.78468 3.40241ZM2.0804 14.4209L2.741 14.776L2.08065 14.4205L8.30965 2.85246L8.30974 2.85229C8.47415 2.54716 8.71809 2.29222 9.01567 2.11453C9.31326 1.93684 9.6534 1.84302 10 1.84302C10.3466 1.84302 10.6867 1.93684 10.9843 2.11453C11.2819 2.29222 11.5258 2.54716 11.6903 2.85229L11.6903 2.85246L17.9193 14.4205L17.9196 14.4209C18.0768 14.7134 18.1555 15.0416 18.148 15.3735C18.1405 15.7054 18.047 16.0298 17.8767 16.3148C17.7064 16.5998 17.4651 16.8358 17.1764 16.9997C16.8877 17.1636 16.5614 17.2499 16.2293 17.25H16.229H3.771H3.77066C3.43864 17.2499 3.11233 17.1636 2.8236 16.9997C2.53486 16.8358 2.29357 16.5998 2.12329 16.3148C1.953 16.0298 1.85953 15.7054 1.85202 15.3735C1.8445 15.0416 1.92319 14.7134 2.0804 14.4209ZM9.99996 6.25C10.4142 6.25 10.75 6.58579 10.75 7V10.5C10.75 10.9142 10.4142 11.25 9.99996 11.25C9.58575 11.25 9.24996 10.9142 9.24996 10.5V7C9.24996 6.58579 9.58575 6.25 9.99996 6.25ZM9.99996 14.5C10.5522 14.5 11 14.0523 11 13.5C11 12.9477 10.5522 12.5 9.99996 12.5C9.44768 12.5 8.99996 12.9477 8.99996 13.5C8.99996 14.0523 9.44768 14.5 9.99996 14.5Z" fill="currentColor"/>
</g>
</g>
</svg>
