<svg width="20" height="20" viewBox="0 0 20 20" fill="none" xmlns="http://www.w3.org/2000/svg">
<g id="exclamation-mark-circle">
<g id="Group">
<path id="Shape" fill-rule="evenodd" clip-rule="evenodd" d="M10 3.75C6.54822 3.75 3.75 6.54822 3.75 10C3.75 13.4518 6.54822 16.25 10 16.25C13.4518 16.25 16.25 13.4518 16.25 10C16.25 6.54822 13.4518 3.75 10 3.75ZM2.25 10C2.25 5.71979 5.71979 2.25 10 2.25C14.2802 2.25 17.75 5.71979 17.75 10C17.75 14.2802 14.2802 17.75 10 17.75C5.71979 17.75 2.25 14.2802 2.25 10ZM10 14.5C10.5523 14.5 11 14.0523 11 13.5C11 12.9477 10.5523 12.5 10 12.5C9.44772 12.5 9 12.9477 9 13.5C9 14.0523 9.44772 14.5 10 14.5ZM10.75 6C10.75 5.58579 10.4142 5.25 10 5.25C9.58579 5.25 9.25 5.58579 9.25 6V10.5C9.25 10.9142 9.58579 11.25 10 11.25C10.4142 11.25 10.75 10.9142 10.75 10.5V6Z" fill="currentColor"/>
</g>
</g>
</svg>
