<svg width="20" height="20" viewBox="0 0 20 20" fill="none" xmlns="http://www.w3.org/2000/svg">
<g id="exclamation-mark-speech-bubble">
<g id="Group">
<path id="Shape" fill-rule="evenodd" clip-rule="evenodd" d="M10 1.74948C11.9786 1.68598 13.9027 2.40589 15.3539 3.7534C16.8116 5.10698 17.6731 6.98334 17.7494 8.97111L17 8.99991L17.7496 9.02546C17.6886 10.8138 16.975 12.5139 15.75 13.808V17.4999C15.75 17.77 15.6048 18.0192 15.3699 18.1524C15.1349 18.2855 14.8465 18.2821 14.6148 18.1434L11.2841 16.1497C10.8639 16.2156 10.4391 16.2491 10.0134 16.2499C8.03014 16.3171 6.10055 15.597 4.6461 14.2464C3.18841 12.8928 2.32693 11.0165 2.25055 9.0287C2.24982 9.00951 2.24982 8.9903 2.25055 8.97111C2.32693 6.98334 3.18841 5.10698 4.6461 3.7534C6.09727 2.40589 8.02142 1.68598 10 1.74948ZM16.2494 9.00151C16.1815 7.42064 15.4933 5.92978 14.3332 4.85259C13.1665 3.76923 11.6178 3.1927 10.0267 3.24943C10.0089 3.25006 9.99109 3.25006 9.97328 3.24943C8.38216 3.1927 6.83348 3.76923 5.66678 4.85259C4.50712 5.92942 3.81892 7.41964 3.75062 8.99991C3.81892 10.5802 4.50712 12.0704 5.66678 13.1472C6.83348 14.2306 8.38216 14.8071 9.97328 14.7504C9.98211 14.7501 9.99095 14.7499 9.99979 14.7499C10.4321 14.7498 10.8634 14.7085 11.2878 14.6265C11.469 14.5915 11.6568 14.6246 11.8152 14.7194L14.25 16.1769V13.4999C14.25 13.2966 14.3326 13.102 14.4787 12.9607C15.5573 11.9181 16.1914 10.4997 16.2494 9.00151ZM10 4.75C10.4142 4.75 10.75 5.08579 10.75 5.5V9.5C10.75 9.91421 10.4142 10.25 10 10.25C9.58579 10.25 9.25 9.91421 9.25 9.5V5.5C9.25 5.08579 9.58579 4.75 10 4.75ZM9.44443 11.1685C9.60888 11.0587 9.80222 11 10 11C10.2652 11 10.5196 11.1054 10.7071 11.2929C10.8946 11.4804 11 11.7348 11 12C11 12.1978 10.9414 12.3911 10.8315 12.5556C10.7216 12.72 10.5654 12.8482 10.3827 12.9239C10.2 12.9996 9.99889 13.0194 9.80491 12.9808C9.61093 12.9422 9.43275 12.847 9.29289 12.7071C9.15304 12.5673 9.0578 12.3891 9.01922 12.1951C8.98063 12.0011 9.00043 11.8 9.07612 11.6173C9.15181 11.4346 9.27998 11.2784 9.44443 11.1685Z" fill="currentColor"/>
</g>
</g>
</svg>
