<svg width="20" height="20" viewBox="0 0 20 20" fill="none" xmlns="http://www.w3.org/2000/svg">
<g id="file">
<g id="Group">
<g id="Shape">
<path fill-rule="evenodd" clip-rule="evenodd" d="M6.5 6.75C6.08579 6.75 5.75 7.08579 5.75 7.5C5.75 7.91421 6.08579 8.25 6.5 8.25H8.5C8.91421 8.25 9.25 7.91421 9.25 7.5C9.25 7.08579 8.91421 6.75 8.5 6.75H6.5ZM5.75 10.5C5.75 10.0858 6.08579 9.75 6.5 9.75H13.5C13.9142 9.75 14.25 10.0858 14.25 10.5C14.25 10.9142 13.9142 11.25 13.5 11.25H6.5C6.08579 11.25 5.75 10.9142 5.75 10.5ZM5.75 13.5C5.75 13.0858 6.08579 12.75 6.5 12.75H13.5C13.9142 12.75 14.25 13.0858 14.25 13.5C14.25 13.9142 13.9142 14.25 13.5 14.25H6.5C6.08579 14.25 5.75 13.9142 5.75 13.5Z" fill="currentColor"/>
<path fill-rule="evenodd" clip-rule="evenodd" d="M2.75 2.5C2.75 2.08579 3.08579 1.75 3.5 1.75H11.5C11.6989 1.75 11.8897 1.82902 12.0303 1.96967L17.0303 6.96967C17.171 7.11032 17.25 7.30109 17.25 7.5V17.5C17.25 17.9142 16.9142 18.25 16.5 18.25H3.5C3.08579 18.25 2.75 17.9142 2.75 17.5V2.5ZM4.25 3.25V16.75H15.75V7.81066L11.1893 3.25H4.25Z" fill="currentColor"/>
<path fill-rule="evenodd" clip-rule="evenodd" d="M11.5 1.75C11.9142 1.75 12.25 2.08579 12.25 2.5V6.75H16.5C16.9142 6.75 17.25 7.08579 17.25 7.5C17.25 7.91421 16.9142 8.25 16.5 8.25H11.5C11.0858 8.25 10.75 7.91421 10.75 7.5V2.5C10.75 2.08579 11.0858 1.75 11.5 1.75Z" fill="currentColor"/>
</g>
</g>
</g>
</svg>
