<svg width="20" height="20" viewBox="0 0 20 20" fill="none" xmlns="http://www.w3.org/2000/svg">
<g id="file-hashtag">
<g id="Group">
<g id="Shape">
<path fill-rule="evenodd" clip-rule="evenodd" d="M2.75 2.5C2.75 2.08579 3.08579 1.75 3.5 1.75H11.5C11.6989 1.75 11.8897 1.82902 12.0303 1.96967L17.0303 6.96967C17.171 7.11032 17.25 7.30109 17.25 7.5V17.5C17.25 17.9142 16.9142 18.25 16.5 18.25H3.5C3.08579 18.25 2.75 17.9142 2.75 17.5V2.5ZM4.25 3.25V16.75H15.75V7.81066L11.1893 3.25H4.25Z" fill="currentColor"/>
<path fill-rule="evenodd" clip-rule="evenodd" d="M8.95713 12.3973L8.55817 14.0586C8.47487 14.4055 8.16466 14.65 7.80794 14.65C7.30894 14.65 6.94118 14.1835 7.0577 13.6983L7.37013 12.3973H6.37582C6.03019 12.3973 5.75 12.1171 5.75 11.7714C5.75 11.4258 6.03019 11.1456 6.37582 11.1456H7.67071L7.99688 9.78736H7.03154C6.68591 9.78736 6.40571 9.50717 6.40571 9.16154C6.40571 8.81591 6.68591 8.53571 7.03154 8.53571H8.29745L8.70433 6.8414C8.78763 6.49454 9.09785 6.25 9.45457 6.25C9.95357 6.25 10.3213 6.71652 10.2048 7.20173L9.88446 8.53571H13.5244C13.8701 8.53571 14.1503 8.81591 14.1503 9.16154C14.1503 9.50717 13.8701 9.78736 13.5244 9.78736H12.444L12.0993 11.1456H12.9868C13.3324 11.1456 13.6126 11.4258 13.6126 11.7714C13.6126 12.1171 13.3324 12.3973 12.9868 12.3973H11.7816L11.3571 14.0696C11.2704 14.411 10.9632 14.65 10.611 14.65C10.1091 14.65 9.74143 14.1774 9.86491 13.6909L10.1933 12.3973H8.95713ZM9.00399 11.3456H10.6665L11.1128 9.58736H9.42622L9.00399 11.3456Z" fill="currentColor"/>
</g>
</g>
</g>
</svg>
