<svg width="20" height="20" viewBox="0 0 20 20" fill="none" xmlns="http://www.w3.org/2000/svg">
<g id="folder">
<g id="Group">
<path id="Shape" fill-rule="evenodd" clip-rule="evenodd" d="M1.75 3.5C1.75 3.08579 2.08579 2.75 2.5 2.75H7.5C7.75076 2.75 7.98494 2.87533 8.12404 3.08397L9.90139 5.75H17.5C17.9142 5.75 18.25 6.08579 18.25 6.5V15C18.25 15.5967 18.0129 16.169 17.591 16.591C17.169 17.0129 16.5967 17.25 16 17.25H4C3.40326 17.25 2.83097 17.0129 2.40901 16.591C1.98705 16.169 1.75 15.5967 1.75 15V3.5ZM3.25 4.25V15C3.25 15.1989 3.32902 15.3897 3.46967 15.5303C3.61032 15.671 3.80109 15.75 4 15.75H16C16.1989 15.75 16.3897 15.671 16.5303 15.5303C16.671 15.3897 16.75 15.1989 16.75 15V7.25H9.5C9.24924 7.25 9.01506 7.12467 8.87596 6.91603L7.09861 4.25H3.25Z" fill="currentColor"/>
</g>
</g>
</svg>
