<svg width="20" height="20" viewBox="0 0 20 20" fill="none" xmlns="http://www.w3.org/2000/svg">
<g id="fork-knife">
<g id="Group">
<path id="Shape" fill-rule="evenodd" clip-rule="evenodd" d="M5.07367 2.48676C5.36656 2.19387 5.84144 2.19387 6.13433 2.48676L10.0133 6.36576C10.3062 6.65862 10.3062 7.13343 10.0134 7.42633L8.99182 8.44825L10.2592 9.71563L16.7127 3.26262C16.8997 3.0756 17.1714 3.00093 17.4278 3.06608C17.6841 3.13124 17.8872 3.32661 17.9622 3.58023C18.3193 4.78761 18.3466 6.0686 18.0412 7.29008C17.7358 8.51156 17.1088 9.62896 16.2254 10.5262L16.2213 10.5304L16.2212 10.5304C14.7984 11.9527 13.574 12.7735 12.6833 13.2423C12.2384 13.4764 11.8783 13.622 11.6204 13.7106C11.4914 13.7549 11.3882 13.785 11.3128 13.8047C11.2751 13.8146 11.2444 13.8219 11.221 13.8272C11.2092 13.8298 11.1993 13.8319 11.1913 13.8336L11.1806 13.8357L11.1763 13.8365L11.1744 13.8369L11.1735 13.8371C11.1731 13.8372 11.1727 13.8372 11.035 13.1L11.1727 13.8372C10.7655 13.9133 10.3738 13.6448 10.2977 13.2376C10.2221 12.8327 10.4872 12.4431 10.8906 12.364L10.8933 12.3634C10.8992 12.3621 10.9123 12.359 10.9322 12.3538C10.9721 12.3433 11.0397 12.3241 11.1329 12.292C11.3192 12.228 11.6086 12.1129 11.9847 11.9149C12.7356 11.5197 13.8384 10.791 15.1586 9.4717C15.8529 8.76575 16.3458 7.88687 16.586 6.92622C16.7154 6.4088 16.7689 5.87781 16.747 5.34959L4.58231 17.5133C4.28941 17.8062 3.81453 17.8062 3.52165 17.5133C3.22877 17.2204 3.22879 16.7455 3.52169 16.4526L9.1985 10.7762L7.93134 9.50909L6.91042 10.5303C6.76977 10.671 6.57899 10.7501 6.38006 10.7501C6.18113 10.7501 5.99034 10.6711 5.84967 10.5304L1.96967 6.65042C1.67678 6.35753 1.67678 5.88265 1.96967 5.58976C2.26256 5.29687 2.73744 5.29687 3.03033 5.58976L6.37991 8.93934L6.87068 8.44843L3.52167 5.09942C3.22878 4.80653 3.22878 4.33166 3.52167 4.03876C3.81457 3.74587 4.28944 3.74587 4.58233 4.03876L7.93116 7.38759L8.42243 6.89618L5.07367 3.54742C4.78078 3.25453 4.78078 2.77965 5.07367 2.48676ZM14.6692 14.1256C14.3763 13.8327 13.9014 13.8328 13.6086 14.1258C13.3157 14.4187 13.3158 14.8936 13.6088 15.1865L15.9368 17.5134C16.2297 17.8063 16.7046 17.8062 16.9974 17.5132C17.2903 17.2203 17.2902 16.7454 16.9972 16.4526L14.6692 14.1256Z" fill="currentColor"/>
</g>
</g>
</svg>
