<svg width="20" height="20" viewBox="0 0 20 20" fill="none" xmlns="http://www.w3.org/2000/svg">
<g id="group">
<g id="Group">
<path id="Shape" fill-rule="evenodd" clip-rule="evenodd" d="M10 3.25C9.30964 3.25 8.75 3.80964 8.75 4.5C8.75 5.19036 9.30964 5.75 10 5.75C10.6904 5.75 11.25 5.19036 11.25 4.5C11.25 3.80964 10.6904 3.25 10 3.25ZM7.25 4.5C7.25 2.98122 8.48122 1.75 10 1.75C11.5188 1.75 12.75 2.98122 12.75 4.5C12.75 6.01878 11.5188 7.25 10 7.25C8.48122 7.25 7.25 6.01878 7.25 4.5ZM3.25 5.5C3.25 5.08579 3.58579 4.75 4 4.75C4.41421 4.75 4.75 5.08579 4.75 5.5C4.75 5.91421 4.41421 6.25 4 6.25C3.58579 6.25 3.25 5.91421 3.25 5.5ZM4 3.25C2.75736 3.25 1.75 4.25736 1.75 5.5C1.75 6.74264 2.75736 7.75 4 7.75C5.24264 7.75 6.25 6.74264 6.25 5.5C6.25 4.25736 5.24264 3.25 4 3.25ZM2.82322 10.3232C2.87011 10.2763 2.9337 10.25 3 10.25H4C4.41421 10.25 4.75 9.91421 4.75 9.5C4.75 9.08579 4.41421 8.75 4 8.75H3C2.53587 8.75 2.09075 8.93437 1.76256 9.26256C1.43437 9.59075 1.25 10.0359 1.25 10.5V13.5C1.25 13.9142 1.58579 14.25 2 14.25H2.25V16.5C2.25 16.9142 2.58579 17.25 3 17.25H5C5.41421 17.25 5.75 16.9142 5.75 16.5C5.75 16.0858 5.41421 15.75 5 15.75H3.75V13.5C3.75 13.0858 3.41421 12.75 3 12.75H2.75V10.5C2.75 10.4337 2.77634 10.3701 2.82322 10.3232ZM16 6.25C16.4142 6.25 16.75 5.91421 16.75 5.5C16.75 5.08579 16.4142 4.75 16 4.75C15.5858 4.75 15.25 5.08579 15.25 5.5C15.25 5.91421 15.5858 6.25 16 6.25ZM18.25 5.5C18.25 6.74264 17.2426 7.75 16 7.75C14.7574 7.75 13.75 6.74264 13.75 5.5C13.75 4.25736 14.7574 3.25 16 3.25C17.2426 3.25 18.25 4.25736 18.25 5.5ZM16 8.75C15.5858 8.75 15.25 9.08579 15.25 9.5C15.25 9.91421 15.5858 10.25 16 10.25H17C17.0663 10.25 17.1299 10.2763 17.1768 10.3232C17.2237 10.3701 17.25 10.4337 17.25 10.5V12.75H17C16.5858 12.75 16.25 13.0858 16.25 13.5V15.75H15C14.5858 15.75 14.25 16.0858 14.25 16.5C14.25 16.9142 14.5858 17.25 15 17.25H17C17.4142 17.25 17.75 16.9142 17.75 16.5V14.25H18C18.4142 14.25 18.75 13.9142 18.75 13.5V10.5C18.75 10.0359 18.5656 9.59075 18.2374 9.26256C17.9092 8.93437 17.4641 8.75 17 8.75H16ZM7.61612 9.61612C7.85054 9.3817 8.16848 9.25 8.5 9.25H11.5C11.8315 9.25 12.1495 9.3817 12.3839 9.61612C12.6183 9.85054 12.75 10.1685 12.75 10.5V12.75H12.5C12.0858 12.75 11.75 13.0858 11.75 13.5V16.75H8.25V13.5C8.25 13.0858 7.91421 12.75 7.5 12.75H7.25V10.5C7.25 10.1685 7.3817 9.85054 7.61612 9.61612ZM13.5 14.25H13.25V17.5C13.25 17.9142 12.9142 18.25 12.5 18.25H7.5C7.08579 18.25 6.75 17.9142 6.75 17.5V14.25H6.5C6.08579 14.25 5.75 13.9142 5.75 13.5V10.5C5.75 9.77065 6.03973 9.07118 6.55546 8.55546C7.07118 8.03973 7.77065 7.75 8.5 7.75H11.5C12.2293 7.75 12.9288 8.03973 13.4445 8.55546C13.9603 9.07118 14.25 9.77065 14.25 10.5V13.5C14.25 13.9142 13.9142 14.25 13.5 14.25Z" fill="currentColor"/>
</g>
</g>
</svg>
