<svg width="20" height="20" viewBox="0 0 20 20" fill="none" xmlns="http://www.w3.org/2000/svg">
<g id="healthcare-cross">
<g id="Group">
<path id="Shape" fill-rule="evenodd" clip-rule="evenodd" d="M6.75 2.5C6.75 2.08579 7.08579 1.75 7.5 1.75H12.5C12.9142 1.75 13.25 2.08579 13.25 2.5V6.75H17.5C17.9142 6.75 18.25 7.08579 18.25 7.5V12.5C18.25 12.9142 17.9142 13.25 17.5 13.25H13.25V17.5C13.25 17.9142 12.9142 18.25 12.5 18.25H7.5C7.08579 18.25 6.75 17.9142 6.75 17.5V13.25H2.5C2.08579 13.25 1.75 12.9142 1.75 12.5V7.5C1.75 7.08579 2.08579 6.75 2.5 6.75H6.75V2.5ZM8.25 3.25V7.5C8.25 7.91421 7.91421 8.25 7.5 8.25H3.25V11.75H7.5C7.91421 11.75 8.25 12.0858 8.25 12.5V16.75H11.75V12.5C11.75 12.0858 12.0858 11.75 12.5 11.75H16.75V8.25H12.5C12.0858 8.25 11.75 7.91421 11.75 7.5V3.25H8.25Z" fill="currentColor"/>
</g>
</g>
</svg>
