<svg width="20" height="20" viewBox="0 0 20 20" fill="none" xmlns="http://www.w3.org/2000/svg">
<g id="house">
<g id="Group">
<path id="Shape" fill-rule="evenodd" clip-rule="evenodd" d="M10.5117 1.95171C10.2236 1.68276 9.77641 1.68276 9.48826 1.95171L1.98826 8.95171C1.68545 9.23433 1.66908 9.70893 1.95171 10.0117C2.23433 10.3146 2.70892 10.3309 3.01174 10.0483L10 3.52591L16.9883 10.0483C17.2911 10.3309 17.7657 10.3146 18.0483 10.0117C18.3309 9.70893 18.3146 9.23433 18.0117 8.95171L10.5117 1.95171ZM5.25 10.5C5.25 10.0858 4.91421 9.75 4.5 9.75C4.08579 9.75 3.75 10.0858 3.75 10.5V17.5C3.75 17.9142 4.08579 18.25 4.5 18.25H8.5C8.91421 18.25 9.25 17.9142 9.25 17.5V14.25H10.75V17.5C10.75 17.9142 11.0858 18.25 11.5 18.25H15.5C15.9142 18.25 16.25 17.9142 16.25 17.5V10.5C16.25 10.0858 15.9142 9.75 15.5 9.75C15.0858 9.75 14.75 10.0858 14.75 10.5V16.75H12.25V13.5C12.25 13.0858 11.9142 12.75 11.5 12.75H8.5C8.08579 12.75 7.75 13.0858 7.75 13.5V16.75H5.25V10.5Z" fill="currentColor"/>
</g>
</g>
</svg>
