<svg width="20" height="20" viewBox="0 0 20 20" fill="none" xmlns="http://www.w3.org/2000/svg">
<g id="lifebuoy">
<g id="Group">
<path id="Shape" fill-rule="evenodd" clip-rule="evenodd" d="M5.78672 4.72609C6.94148 3.80236 8.40623 3.25 10 3.25C11.5938 3.25 13.0585 3.80236 14.2133 4.72608L12.428 6.51137C11.7397 6.03144 10.9027 5.75 10 5.75C9.09728 5.75 8.2603 6.03144 7.57201 6.51137L5.78672 4.72609ZM4.72607 5.78675C3.80235 6.9415 3.25 8.40625 3.25 10C3.25 11.5938 3.80238 13.0586 4.72613 14.2133L6.51141 12.428C6.03146 11.7397 5.75 10.9027 5.75 10C5.75 9.09729 6.03144 8.26032 6.51135 7.57204L4.72607 5.78675ZM8.02829 8.083C7.54663 8.57833 7.25 9.25452 7.25 10C7.25 10.7461 7.54712 11.4228 8.0295 11.9182C8.0386 11.9265 8.04754 11.935 8.05633 11.9438C8.0651 11.9526 8.07361 11.9615 8.08186 11.9706C8.57729 12.4529 9.25395 12.75 10 12.75C10.746 12.75 11.4227 12.4529 11.9181 11.9706C11.9264 11.9615 11.9349 11.9526 11.9437 11.9438C11.9525 11.935 11.9614 11.9265 11.9705 11.9182C12.4529 11.4228 12.75 10.7461 12.75 10C12.75 9.25453 12.4534 8.57834 11.9717 8.08302C11.9622 8.07442 11.9528 8.06553 11.9437 8.05635C11.9345 8.04717 11.9256 8.03782 11.917 8.0283C11.4217 7.54663 10.7455 7.25 10 7.25C9.25451 7.25 8.57831 7.54664 8.08298 8.02831C8.07439 8.03783 8.0655 8.04718 8.05633 8.05635C8.04716 8.06552 8.03781 8.07441 8.02829 8.083ZM5.7868 15.274L7.57209 13.4887C8.26037 13.9686 9.09732 14.25 10 14.25C10.9027 14.25 11.7396 13.9686 12.4279 13.4887L14.2132 15.274C13.0585 16.1977 11.5937 16.75 10 16.75C8.40627 16.75 6.94155 16.1977 5.7868 15.274ZM15.2739 14.2133C16.1976 13.0586 16.75 11.5938 16.75 10C16.75 8.40624 16.1976 6.9415 15.2739 5.78675L13.4886 7.57203C13.9686 8.26032 14.25 9.09729 14.25 10C14.25 10.9027 13.9685 11.7397 13.4886 12.4281L15.2739 14.2133ZM10 1.75C5.44365 1.75 1.75 5.44365 1.75 10C1.75 14.5563 5.44365 18.25 10 18.25C14.5563 18.25 18.25 14.5563 18.25 10C18.25 5.44365 14.5563 1.75 10 1.75Z" fill="currentColor"/>
</g>
</g>
</svg>
