<svg width="20" height="20" viewBox="0 0 20 20" fill="none" xmlns="http://www.w3.org/2000/svg">
<g id="link">
<g id="Group">
<path id="Shape" fill-rule="evenodd" clip-rule="evenodd" d="M10.4981 3.49121C12.1583 1.83478 14.8466 1.83594 16.5053 3.49468C18.1641 5.15341 18.1652 7.8417 16.5088 9.50187L14.5369 11.5237C14.2477 11.8202 13.7729 11.8261 13.4763 11.5369C13.1798 11.2477 13.1739 10.7729 13.4631 10.4763L15.4381 8.45135L15.4446 8.44463L15.4447 8.44468C16.5188 7.37057 16.5188 5.62944 15.4447 4.55534C14.3706 3.48123 12.6294 3.48123 11.5553 4.55534L11.5487 4.56196L11.5487 4.56192L9.52366 6.53692C9.22713 6.82613 8.75229 6.8202 8.46308 6.52367C8.17387 6.22713 8.17981 5.7523 8.47634 5.46309L10.4981 3.49121ZM6.52366 8.46308C6.82019 8.75229 6.82613 9.22713 6.53692 9.52366L4.56192 11.5487L4.55537 11.5554L4.55533 11.5553C3.48122 12.6294 3.48122 14.3706 4.55533 15.4447C5.62944 16.5188 7.37056 16.5188 8.44467 15.4447L8.4513 15.438L8.45134 15.4381L10.4763 13.4631C10.7729 13.1739 11.2477 13.1798 11.5369 13.4763C11.8261 13.7729 11.8202 14.2477 11.5237 14.5369L9.50186 16.5088C7.84169 18.1652 5.15341 18.1641 3.49467 16.5053C1.83593 14.8466 1.83478 12.1583 3.4912 10.4981L5.46308 8.47634C5.75229 8.17981 6.22713 8.17387 6.52366 8.46308ZM13.5303 7.53033C13.8232 7.23744 13.8232 6.76256 13.5303 6.46967C13.2374 6.17678 12.7626 6.17678 12.4697 6.46967L6.46967 12.4697C6.17678 12.7626 6.17678 13.2374 6.46967 13.5303C6.76256 13.8232 7.23744 13.8232 7.53033 13.5303L13.5303 7.53033Z" fill="currentColor"/>
</g>
</g>
</svg>
