<svg width="20" height="20" viewBox="0 0 20 20" fill="none" xmlns="http://www.w3.org/2000/svg">
<g id="magnifier">
<g id="Group">
<path id="Shape" fill-rule="evenodd" clip-rule="evenodd" d="M3.75 9C3.75 6.10051 6.10051 3.75 9 3.75C11.8995 3.75 14.25 6.10051 14.25 9C14.25 10.437 13.6727 11.7391 12.7374 12.6871C12.7287 12.695 12.7201 12.7032 12.7117 12.7116C12.7033 12.72 12.6951 12.7286 12.6871 12.7373C11.7391 13.6727 10.437 14.25 9 14.25C6.10051 14.25 3.75 11.8995 3.75 9ZM13.2133 14.2739C12.0585 15.1976 10.5938 15.75 9 15.75C5.27208 15.75 2.25 12.7279 2.25 9C2.25 5.27208 5.27208 2.25 9 2.25C12.7279 2.25 15.75 5.27208 15.75 9C15.75 10.5937 15.1977 12.0585 14.2739 13.2132L17.5303 16.4696C17.8232 16.7625 17.8232 17.2374 17.5303 17.5303C17.2374 17.8232 16.7626 17.8232 16.4697 17.5303L13.2133 14.2739Z" fill="currentColor"/>
</g>
</g>
</svg>
