<svg width="20" height="20" viewBox="0 0 20 20" fill="none" xmlns="http://www.w3.org/2000/svg">
<g id="monitor">
<g id="Group">
<path id="Shape" fill-rule="evenodd" clip-rule="evenodd" d="M3.75 4C3.75 3.86221 3.86221 3.75 4 3.75H16C16.1378 3.75 16.25 3.86221 16.25 4V16C16.25 16.1378 16.1378 16.25 16 16.25H4C3.86221 16.25 3.75 16.1378 3.75 16V4ZM4 2.25C3.03379 2.25 2.25 3.03379 2.25 4V16C2.25 16.9662 3.03379 17.75 4 17.75H16C16.9662 17.75 17.75 16.9662 17.75 16V4C17.75 3.03379 16.9662 2.25 16 2.25H4ZM9.18936 6.20456C9.07117 5.9288 8.80002 5.75 8.5 5.75C8.19998 5.75 7.92883 5.9288 7.81064 6.20456L6.50545 9.25H6C5.58579 9.25 5.25 9.58579 5.25 10C5.25 10.4142 5.58579 10.75 6 10.75H7C7.30002 10.75 7.57117 10.5712 7.68936 10.2954L8.5 8.40394L10.8106 13.7954C10.9288 14.0712 11.2 14.25 11.5 14.25C11.8 14.25 12.0712 14.0712 12.1894 13.7954L13.4945 10.75H14C14.4142 10.75 14.75 10.4142 14.75 10C14.75 9.58579 14.4142 9.25 14 9.25H13C12.7 9.25 12.4288 9.4288 12.3106 9.70456L11.5 11.5961L9.18936 6.20456Z" fill="currentColor"/>
</g>
</g>
</svg>
