<svg width="20" height="20" viewBox="0 0 20 20" fill="none" xmlns="http://www.w3.org/2000/svg">
<g id="paperclip">
<g id="Group">
<path id="Shape" fill-rule="evenodd" clip-rule="evenodd" d="M8.91267 3.29057C10.5726 1.63068 13.2634 1.63068 14.9233 3.29057C16.5832 4.95047 16.5832 7.64134 14.9233 9.30123L10.8573 13.3672C9.88074 14.3424 8.29777 14.3433 7.32167 13.3672C6.3465 12.3906 6.34556 10.8077 7.32167 9.83157L10.3267 6.82657C10.6196 6.53368 11.0944 6.53368 11.3873 6.82657C11.6802 7.11947 11.6802 7.59434 11.3873 7.88723L8.38233 10.8922C7.99252 11.282 7.99188 11.9153 8.38244 12.3067C8.77235 12.6965 9.40568 12.697 9.79705 12.3062L13.8627 8.24057C14.9368 7.16647 14.9368 5.42534 13.8627 4.35123C12.7886 3.27715 11.0475 3.27713 9.97339 4.35117C9.97337 4.35119 9.97341 4.35115 9.97339 4.35117L5.55439 8.77117C3.79735 10.5282 3.7971 13.3775 5.55446 15.1357C7.31144 16.8925 10.1604 16.8928 11.9186 15.1356C11.9187 15.1356 11.9185 15.1357 11.9186 15.1356L15.9836 11.0696C16.2765 10.7767 16.7513 10.7767 17.0443 11.0695C17.3372 11.3624 17.3372 11.8372 17.0444 12.1302L12.9794 16.1962C10.6356 18.5388 6.83663 18.5392 4.49367 16.1962C2.15104 13.8525 2.1507 10.0536 4.49361 7.71063C4.49363 7.71061 4.49359 7.71065 4.49361 7.71063L8.91267 3.29057Z" fill="currentColor"/>
</g>
</g>
</svg>
