<svg width="20" height="20" viewBox="0 0 20 20" fill="none" xmlns="http://www.w3.org/2000/svg">
<g id="pencil">
<g id="Group">
<path id="Shape" fill-rule="evenodd" clip-rule="evenodd" d="M14.5303 2.46967C14.2374 2.17678 13.7626 2.17678 13.4697 2.46967L11.4698 4.46951C11.4698 4.46956 11.4697 4.46962 11.4697 4.46967C11.4696 4.46972 11.4696 4.46978 11.4695 4.46983L3.46967 12.4697C3.37355 12.5658 3.30536 12.6862 3.27239 12.8181L2.27239 16.8181C2.2085 17.0737 2.28339 17.344 2.46967 17.5303C2.65596 17.7166 2.92632 17.7915 3.1819 17.7276L7.1819 16.7276C7.31378 16.6946 7.43421 16.6264 7.53033 16.5303L15.5301 8.53056C15.5302 8.53048 15.5303 8.53041 15.5303 8.53033C15.5304 8.53025 15.5305 8.53018 15.5306 8.5301L17.5303 6.53033C17.8232 6.23744 17.8232 5.76256 17.5303 5.46967L14.5303 2.46967ZM15 6.93934L15.9393 6L14 4.06066L13.0607 5L15 6.93934ZM12 6.06066L4.67722 13.3834L4.03078 15.9692L6.61656 15.3228L13.9393 8L12 6.06066Z" fill="currentColor"/>
</g>
</g>
</svg>
