<svg width="20" height="20" viewBox="0 0 20 20" fill="none" xmlns="http://www.w3.org/2000/svg">
<g id="phone">
<g id="Group">
<path id="Shape" fill-rule="evenodd" clip-rule="evenodd" d="M5.85046 1.79777C6.1839 1.70963 6.53791 1.74422 6.84799 1.89523C7.15806 2.04624 7.40357 2.30362 7.53976 2.62049L9.19013 6.46734C9.30233 6.72978 9.3343 7.02052 9.28128 7.30096C9.22826 7.58141 9.09302 7.83974 8.89276 8.04311L7.72909 9.22388C8.13192 9.82495 8.58656 10.3901 9.08799 10.9128C9.60938 11.4145 10.1738 11.869 10.7746 12.2711L11.9556 11.1061C12.1597 10.9051 12.4197 10.7692 12.7013 10.7167C12.9824 10.6643 13.2727 10.6968 13.5352 10.8102C13.5356 10.8104 13.5361 10.8106 13.5366 10.8108L17.381 12.4591C17.698 12.5954 17.9561 12.8414 18.1069 13.1517C18.2577 13.462 18.292 13.8161 18.2034 14.1495C18.2034 14.1496 18.2034 14.1495 18.2034 14.1495L17.4047 17.1736C17.323 17.4892 17.1363 17.7677 16.8754 17.9632C16.6136 18.1593 16.2928 18.2602 15.9659 18.2492L15.9502 18.2485C12.2487 18.0464 8.74648 16.5074 6.09421 13.9176L6.08156 13.9049C3.4925 11.2531 1.95385 7.7518 1.7514 4.05124L1.75059 4.03182C1.74123 3.70601 1.84272 3.38668 2.03847 3.12606C2.23378 2.86603 2.51138 2.67982 2.82602 2.59775L5.85046 1.79777ZM6.18256 3.26152L3.253 4.03639C3.45024 7.34642 4.83274 10.4756 7.14858 12.8506C9.52427 15.1674 12.6547 16.5502 15.9659 16.747L16.74 13.8163L12.9788 12.2038L11.4031 13.7581C11.159 13.9989 10.7827 14.0435 10.4891 13.8665C9.60348 13.3325 8.78074 12.7005 8.03644 11.9825C8.02967 11.976 8.02303 11.9694 8.01652 11.9626C7.30014 11.2176 6.66874 10.3953 6.13393 9.51086C5.9564 9.21729 6.00071 8.84068 6.24153 8.59633L7.79502 7.02001L6.18256 3.26152Z" fill="currentColor"/>
</g>
</g>
</svg>
