<svg width="20" height="20" viewBox="0 0 20 20" fill="none" xmlns="http://www.w3.org/2000/svg">
<g id="plus-circle">
<g id="Group">
<path id="Shape" fill-rule="evenodd" clip-rule="evenodd" d="M10 3.75C6.54822 3.75 3.75 6.54822 3.75 10C3.75 13.4518 6.54822 16.25 10 16.25C13.4518 16.25 16.25 13.4518 16.25 10C16.25 6.54822 13.4518 3.75 10 3.75ZM2.25 10C2.25 5.71979 5.71979 2.25 10 2.25C14.2802 2.25 17.75 5.71979 17.75 10C17.75 14.2802 14.2802 17.75 10 17.75C5.71979 17.75 2.25 14.2802 2.25 10ZM10 5.25C10.4142 5.25 10.75 5.58579 10.75 6V9.25H14C14.4142 9.25 14.75 9.58579 14.75 10C14.75 10.4142 14.4142 10.75 14 10.75H10.75V14C10.75 14.4142 10.4142 14.75 10 14.75C9.58579 14.75 9.25 14.4142 9.25 14V10.75H6C5.58579 10.75 5.25 10.4142 5.25 10C5.25 9.58579 5.58579 9.25 6 9.25H9.25V6C9.25 5.58579 9.58579 5.25 10 5.25Z" fill="currentColor"/>
</g>
</g>
</svg>
