<svg width="20" height="20" viewBox="0 0 20 20" fill="none" xmlns="http://www.w3.org/2000/svg">
<g id="printer">
<g id="Group">
<path id="Shape" fill-rule="evenodd" clip-rule="evenodd" d="M4.75 2.5C4.75 2.08579 5.08579 1.75 5.5 1.75H14.5C14.9142 1.75 15.25 2.08579 15.25 2.5V5.5C15.25 5.91421 14.9142 6.25 14.5 6.25C14.0858 6.25 13.75 5.91421 13.75 5.5V3.25H6.25V5.5C6.25 5.91421 5.91421 6.25 5.5 6.25C5.08579 6.25 4.75 5.91421 4.75 5.5V2.5ZM5.5 8.25C4.90326 8.25 4.33097 8.48705 3.90901 8.90901C3.48705 9.33097 3.25 9.90326 3.25 10.5V13.75H4.75V11.5C4.75 11.0858 5.08579 10.75 5.5 10.75H14.5C14.9142 10.75 15.25 11.0858 15.25 11.5V13.75H16.75V10.5C16.75 9.90326 16.5129 9.33097 16.091 8.90901C15.669 8.48705 15.0967 8.25 14.5 8.25H5.5ZM15.25 15.25H17.5C17.9142 15.25 18.25 14.9142 18.25 14.5V10.5C18.25 9.50544 17.8549 8.55161 17.1517 7.84835C16.4484 7.14509 15.4946 6.75 14.5 6.75H5.5C4.50544 6.75 3.55161 7.14509 2.84835 7.84835C2.14509 8.55161 1.75 9.50544 1.75 10.5V14.5C1.75 14.9142 2.08579 15.25 2.5 15.25H4.75V17.5C4.75 17.9142 5.08579 18.25 5.5 18.25H14.5C14.9142 18.25 15.25 17.9142 15.25 17.5V15.25ZM13.75 14.5V12.25H6.25V14.5V16.75H13.75V14.5Z" fill="currentColor"/>
</g>
</g>
</svg>
