<svg width="20" height="20" viewBox="0 0 20 20" fill="none" xmlns="http://www.w3.org/2000/svg">
<g id="priority-3">
<g id="Group">
<path id="Shape" fill-rule="evenodd" clip-rule="evenodd" d="M9.46967 2.46967C9.76256 2.17678 10.2374 2.17678 10.5303 2.46967L16.5303 8.46967C16.8232 8.76256 16.8232 9.23744 16.5303 9.53033C16.2374 9.82322 15.7626 9.82322 15.4697 9.53033L10 4.06066L4.53033 9.53033C4.23744 9.82322 3.76256 9.82322 3.46967 9.53033C3.17678 9.23744 3.17678 8.76256 3.46967 8.46967L9.46967 2.46967ZM10.5303 6.46967L16.5303 12.4697C16.8232 12.7626 16.8232 13.2374 16.5303 13.5303C16.2374 13.8232 15.7626 13.8232 15.4697 13.5303L10 8.06066L4.53033 13.5303C4.23744 13.8232 3.76256 13.8232 3.46967 13.5303C3.17678 13.2374 3.17678 12.7626 3.46967 12.4697L9.46967 6.46967C9.76256 6.17678 10.2374 6.17678 10.5303 6.46967ZM16.5303 16.4697L10.5303 10.4697C10.2374 10.1768 9.76256 10.1768 9.46967 10.4697L3.46967 16.4697C3.17678 16.7626 3.17678 17.2374 3.46967 17.5303C3.76256 17.8232 4.23744 17.8232 4.53033 17.5303L10 12.0607L15.4697 17.5303C15.7626 17.8232 16.2374 17.8232 16.5303 17.5303C16.8232 17.2374 16.8232 16.7626 16.5303 16.4697Z" fill="currentColor"/>
</g>
</g>
</svg>
