<svg width="20" height="20" viewBox="0 0 20 20" fill="none" xmlns="http://www.w3.org/2000/svg">
<g id="priority-2">
<g id="Group">
<path id="Shape" fill-rule="evenodd" clip-rule="evenodd" d="M10.5303 3.46967C10.2374 3.17678 9.76256 3.17678 9.46967 3.46967L3.46967 9.46967C3.17678 9.76256 3.17678 10.2374 3.46967 10.5303C3.76256 10.8232 4.23744 10.8232 4.53033 10.5303L10 5.06066L15.4697 10.5303C15.7626 10.8232 16.2374 10.8232 16.5303 10.5303C16.8232 10.2374 16.8232 9.76256 16.5303 9.46967L10.5303 3.46967ZM16.5303 15.4697L10.5303 9.46967C10.2374 9.17678 9.76256 9.17678 9.46967 9.46967L3.46967 15.4697C3.17678 15.7626 3.17678 16.2374 3.46967 16.5303C3.76256 16.8232 4.23744 16.8232 4.53033 16.5303L10 11.0607L15.4697 16.5303C15.7626 16.8232 16.2374 16.8232 16.5303 16.5303C16.8232 16.2374 16.8232 15.7626 16.5303 15.4697Z" fill="currentColor"/>
</g>
</g>
</svg>
