<svg viewBox="0 0 10 10" fill="none" xmlns="http://www.w3.org/2000/svg">
<path fill-rule="evenodd" clip-rule="evenodd" d="M4.99999 0.949805C2.76323 0.949805 0.949988 2.76305 0.949988 4.9998C0.949988 7.23656 2.76323 9.0498 4.99999 9.0498C7.23674 9.0498 9.04999 7.23656 9.04999 4.9998C9.04999 2.76305 7.23674 0.949805 4.99999 0.949805ZM0.0499878 4.9998C0.0499878 2.266 2.26618 0.0498047 4.99999 0.0498047C7.7338 0.0498047 9.94999 2.266 9.94999 4.9998C9.94999 7.73361 7.7338 9.9498 4.99999 9.9498C2.26618 9.9498 0.0499878 7.73361 0.0499878 4.9998ZM5.00179 7.9998C5.33316 7.9998 5.60179 7.73117 5.60179 7.3998C5.60179 7.06843 5.33316 6.7998 5.00179 6.7998C4.67042 6.7998 4.40179 7.06843 4.40179 7.3998C4.40179 7.73117 4.67042 7.9998 5.00179 7.9998ZM4.38681 2.96396C4.56328 2.81799 4.88877 2.72263 5.20162 2.7566C5.50937 2.79001 5.67177 2.92495 5.72259 3.09519L5.72286 3.0961C5.76924 3.25026 5.74602 3.32512 5.71123 3.38989C5.65633 3.49211 5.5601 3.58888 5.37721 3.77262C5.02677 4.12468 4.54999 4.62934 4.54999 5.5998C4.54999 5.84833 4.75146 6.0498 4.99999 6.0498C5.24852 6.0498 5.44999 5.84833 5.44999 5.5998C5.44999 4.99841 5.70911 4.71493 6.01507 4.40755L6.05432 4.36831C6.19659 4.22639 6.3839 4.03953 6.50409 3.81577C6.65577 3.53341 6.6973 3.21146 6.58485 2.83728C6.39253 2.19386 5.81408 1.9178 5.29876 1.86185C4.7884 1.80645 4.2085 1.94345 3.81316 2.27048C3.62166 2.42888 3.59483 2.71254 3.75324 2.90404C3.91165 3.09555 4.19531 3.12237 4.38681 2.96396Z" fill="#001E49"/>
</svg>
