<svg width="20" height="20" viewBox="0 0 20 20" fill="none" xmlns="http://www.w3.org/2000/svg">
<g id="question-mark-circle">
<g id="Group">
<path id="Shape" fill-rule="evenodd" clip-rule="evenodd" d="M10 3.25C6.27208 3.25 3.25 6.27208 3.25 10C3.25 13.7279 6.27208 16.75 10 16.75C13.7279 16.75 16.75 13.7279 16.75 10C16.75 6.27208 13.7279 3.25 10 3.25ZM1.75 10C1.75 5.44365 5.44365 1.75 10 1.75C14.5563 1.75 18.25 5.44365 18.25 10C18.25 14.5563 14.5563 18.25 10 18.25C5.44365 18.25 1.75 14.5563 1.75 10ZM10.003 15C10.5553 15 11.003 14.5523 11.003 14C11.003 13.4477 10.5553 13 10.003 13C9.45071 13 9.003 13.4477 9.003 14C9.003 14.5523 9.45071 15 10.003 15ZM8.97804 6.60693C9.27215 6.36365 9.81464 6.20471 10.3361 6.26132C10.849 6.31701 11.1196 6.54192 11.2043 6.82564L11.2048 6.82715C11.2821 7.0841 11.2434 7.20887 11.1854 7.31681C11.0939 7.48718 10.9335 7.64846 10.6287 7.9547C10.0446 8.54146 9.25 9.38255 9.25 11C9.25 11.4142 9.58579 11.75 10 11.75C10.4142 11.75 10.75 11.4142 10.75 11C10.75 9.99767 11.1819 9.5252 11.6918 9.01291L11.7572 8.9475C11.9943 8.71097 12.3065 8.39955 12.5068 8.02662C12.7596 7.556 12.8289 7.01943 12.6414 6.39579C12.3209 5.32342 11.3568 4.86333 10.498 4.77008C9.64736 4.67774 8.68085 4.90608 8.02196 5.45112C7.70279 5.71513 7.65808 6.1879 7.92209 6.50707C8.18611 6.82623 8.65887 6.87095 8.97804 6.60693Z" fill="currentColor"/>
</g>
</g>
</svg>
