<svg viewBox="0 0 8 8" fill="none" xmlns="http://www.w3.org/2000/svg">
<path d="M0.999974 8.00004H6.99997C7.27113 8.00004 7.51708 7.89212 7.69721 7.71688C7.88397 7.5352 7.99997 7.28117 7.99997 7.00004V1.00004C7.99997 0.718915 7.88397 0.464883 7.69721 0.283203L0.302734 7.71688C0.482866 7.89212 0.728816 8.00004 0.999974 8.00004Z" fill="#F7464E"/>
<path d="M7.00003 -4.20226e-05L1.00003 -4.25472e-05C0.728869 -4.25709e-05 0.482919 0.107881 0.302787 0.283118C0.116033 0.464797 2.68378e-05 0.71883 2.68132e-05 0.999957L2.62887e-05 6.99996C2.62641e-05 7.28108 0.116033 7.53512 0.302787 7.7168L7.69727 0.283119C7.51713 0.107882 7.27118 -4.19989e-05 7.00003 -4.20226e-05Z" fill="#008DE4"/>
<path fill-rule="evenodd" clip-rule="evenodd" d="M1.10455 6.82721C0.811656 6.53431 0.811656 6.05944 1.10455 5.76654L5.70074 1.17035C5.99364 0.877458 6.46851 0.877458 6.7614 1.17035C7.0543 1.46324 7.0543 1.93812 6.7614 2.23101L2.16521 6.82721C1.87232 7.1201 1.39744 7.1201 1.10455 6.82721Z" fill="white"/>
</svg>
