<svg width="20" height="20" viewBox="0 0 20 20" fill="none" xmlns="http://www.w3.org/2000/svg">
<g id="scope">
<g id="Group">
<path id="Shape" fill-rule="evenodd" clip-rule="evenodd" d="M10 2.25C14.2802 2.25 17.75 5.71979 17.75 10C17.75 14.2802 14.2802 17.75 10 17.75C5.71979 17.75 2.25 14.2802 2.25 10C2.25 5.71979 5.71979 2.25 10 2.25ZM3.79454 10.75H5C5.41421 10.75 5.75 10.4142 5.75 10C5.75 9.58579 5.41421 9.25 5 9.25H3.79454C4.13565 6.39773 6.39773 4.13565 9.25 3.79454V5C9.25 5.41421 9.58579 5.75 10 5.75C10.4142 5.75 10.75 5.41421 10.75 5V3.79454C13.6023 4.13565 15.8644 6.39773 16.2055 9.25H15C14.5858 9.25 14.25 9.58579 14.25 10C14.25 10.4142 14.5858 10.75 15 10.75H16.2055C15.8644 13.6023 13.6023 15.8644 10.75 16.2055V15C10.75 14.5858 10.4142 14.25 10 14.25C9.58579 14.25 9.25 14.5858 9.25 15V16.2055C6.39773 15.8644 4.13565 13.6023 3.79454 10.75ZM10 8.75C9.30964 8.75 8.75 9.30964 8.75 10C8.75 10.6904 9.30964 11.25 10 11.25C10.6904 11.25 11.25 10.6904 11.25 10C11.25 9.30964 10.6904 8.75 10 8.75ZM7.25 10C7.25 8.48122 8.48122 7.25 10 7.25C11.5188 7.25 12.75 8.48122 12.75 10C12.75 11.5188 11.5188 12.75 10 12.75C8.48122 12.75 7.25 11.5188 7.25 10Z" fill="currentColor"/>
</g>
</g>
</svg>
