<svg width="20" height="20" viewBox="0 0 20 20" fill="none" xmlns="http://www.w3.org/2000/svg">
<g id="split">
<g id="Group">
<g id="Shape">
<path fill-rule="evenodd" clip-rule="evenodd" d="M2.46967 2.11957C2.76256 1.82668 3.23744 1.82668 3.53033 2.11957L10.5303 9.11957C10.671 9.26022 10.75 9.45099 10.75 9.6499V17.3499C10.75 17.7641 10.4142 18.0999 10 18.0999C9.58579 18.0999 9.25 17.7641 9.25 17.3499V9.96056L2.46967 3.18023C2.17678 2.88734 2.17678 2.41247 2.46967 2.11957Z" fill="currentColor"/>
<path fill-rule="evenodd" clip-rule="evenodd" d="M17.5303 2.11957C17.8232 2.41247 17.8232 2.88734 17.5303 3.18023L12.6303 8.08023C12.3374 8.37313 11.8626 8.37313 11.5697 8.08023C11.2768 7.78734 11.2768 7.31247 11.5697 7.01957L16.4697 2.11957C16.7626 1.82668 17.2374 1.82668 17.5303 2.11957Z" fill="currentColor"/>
<path fill-rule="evenodd" clip-rule="evenodd" d="M2.25 2.6499C2.25 2.23569 2.58579 1.8999 3 1.8999H7.2C7.61421 1.8999 7.95 2.23569 7.95 2.6499C7.95 3.06412 7.61421 3.3999 7.2 3.3999H3.75V6.8499C3.75 7.26412 3.41421 7.5999 3 7.5999C2.58579 7.5999 2.25 7.26412 2.25 6.8499V2.6499Z" fill="currentColor"/>
<path fill-rule="evenodd" clip-rule="evenodd" d="M12.05 2.6499C12.05 2.23569 12.3858 1.8999 12.8 1.8999H17C17.4142 1.8999 17.75 2.23569 17.75 2.6499V6.8499C17.75 7.26412 17.4142 7.5999 17 7.5999C16.5858 7.5999 16.25 7.26412 16.25 6.8499V3.3999H12.8C12.3858 3.3999 12.05 3.06412 12.05 2.6499Z" fill="currentColor"/>
</g>
</g>
</g>
</svg>
