<svg width="20" height="20" viewBox="0 0 20 20" fill="none" xmlns="http://www.w3.org/2000/svg">
<g id="stop-sign">
<g id="Group">
<path id="Shape" fill-rule="evenodd" clip-rule="evenodd" d="M3.25 10C3.25 6.27208 6.27208 3.25 10 3.25C11.5938 3.25 13.0585 3.80236 14.2133 4.72608L4.72608 14.2133C3.80236 13.0585 3.25 11.5938 3.25 10ZM5.78675 15.2739C6.9415 16.1976 8.40625 16.75 10 16.75C13.7279 16.75 16.75 13.7279 16.75 10C16.75 8.40625 16.1976 6.9415 15.2739 5.78675L5.78675 15.2739ZM10 1.75C5.44365 1.75 1.75 5.44365 1.75 10C1.75 14.5563 5.44365 18.25 10 18.25C14.5563 18.25 18.25 14.5563 18.25 10C18.25 5.44365 14.5563 1.75 10 1.75Z" fill="currentColor"/>
</g>
</g>
</svg>
