<svg width="20" height="20" viewBox="0 0 20 20" fill="none" xmlns="http://www.w3.org/2000/svg">
<g id="stripes">
<g id="Group">
<path id="Shape" fill-rule="evenodd" clip-rule="evenodd" d="M2.25 4C2.25 3.58579 2.58579 3.25 3 3.25H17C17.4142 3.25 17.75 3.58579 17.75 4C17.75 4.41421 17.4142 4.75 17 4.75H3C2.58579 4.75 2.25 4.41421 2.25 4ZM2.25 10C2.25 9.58579 2.58579 9.25 3 9.25H17C17.4142 9.25 17.75 9.58579 17.75 10C17.75 10.4142 17.4142 10.75 17 10.75H3C2.58579 10.75 2.25 10.4142 2.25 10ZM3 15.25C2.58579 15.25 2.25 15.5858 2.25 16C2.25 16.4142 2.58579 16.75 3 16.75H17C17.4142 16.75 17.75 16.4142 17.75 16C17.75 15.5858 17.4142 15.25 17 15.25H3Z" fill="currentColor"/>
</g>
</g>
</svg>
