<svg width="20" height="20" viewBox="0 0 20 20" fill="none" xmlns="http://www.w3.org/2000/svg">
<g id="trash-can">
<g id="Group">
<path id="Shape" fill-rule="evenodd" clip-rule="evenodd" d="M7.25 2.5C7.25 2.08579 7.58579 1.75 8 1.75H12C12.4142 1.75 12.75 2.08579 12.75 2.5V4.75H17C17.4142 4.75 17.75 5.08579 17.75 5.5C17.75 5.91421 17.4142 6.25 17 6.25H12H8H3C2.58579 6.25 2.25 5.91421 2.25 5.5C2.25 5.08579 2.58579 4.75 3 4.75H7.25V2.5ZM11.25 3.25V4.75H8.75V3.25H11.25ZM4.75 8.5C4.75 8.08579 4.41421 7.75 4 7.75C3.58579 7.75 3.25 8.08579 3.25 8.5V15.5C3.25 17.0192 4.48079 18.25 6 18.25H14C15.5192 18.25 16.75 17.0192 16.75 15.5V8.5C16.75 8.08579 16.4142 7.75 16 7.75C15.5858 7.75 15.25 8.08579 15.25 8.5V15.5C15.25 16.1908 14.6908 16.75 14 16.75H6C5.30921 16.75 4.75 16.1908 4.75 15.5V8.5ZM10.75 9.5C10.75 9.08579 10.4142 8.75 10 8.75C9.58579 8.75 9.25 9.08579 9.25 9.5V14.5C9.25 14.9142 9.58579 15.25 10 15.25C10.4142 15.25 10.75 14.9142 10.75 14.5V9.5ZM13 8.75C13.4142 8.75 13.75 9.08579 13.75 9.5V14.5C13.75 14.9142 13.4142 15.25 13 15.25C12.5858 15.25 12.25 14.9142 12.25 14.5V9.5C12.25 9.08579 12.5858 8.75 13 8.75ZM7.75 9.5C7.75 9.08579 7.41421 8.75 7 8.75C6.58579 8.75 6.25 9.08579 6.25 9.5V14.5C6.25 14.9142 6.58579 15.25 7 15.25C7.41421 15.25 7.75 14.9142 7.75 14.5V9.5Z" fill="currentColor"/>
</g>
</g>
</svg>
