<svg width="20" height="20" viewBox="0 0 20 20" fill="none" xmlns="http://www.w3.org/2000/svg">
<g id="tree">
<g id="Group">
<path id="Shape" fill-rule="evenodd" clip-rule="evenodd" d="M10.6103 2.06407C10.4695 1.86697 10.2422 1.75 10 1.75C9.75779 1.75 9.53049 1.86697 9.3897 2.06407L4.3897 9.06407C4.22641 9.29268 4.20457 9.59338 4.33313 9.84319C4.46168 10.093 4.71906 10.25 5 10.25H5.93169L3.37594 14.084C3.22253 14.3141 3.20824 14.61 3.33875 14.8539C3.46927 15.0978 3.72341 15.25 4 15.25H9.25V16.75H7C6.58579 16.75 6.25 17.0858 6.25 17.5C6.25 17.9142 6.58579 18.25 7 18.25H10H13C13.4142 18.25 13.75 17.9142 13.75 17.5C13.75 17.0858 13.4142 16.75 13 16.75H10.75V15.25H16C16.2766 15.25 16.5307 15.0978 16.6612 14.8539C16.7918 14.61 16.7775 14.3141 16.6241 14.084L14.0683 10.25H15C15.2809 10.25 15.5383 10.093 15.6669 9.84319C15.7954 9.59338 15.7736 9.29268 15.6103 9.06407L10.6103 2.06407ZM10 13.75H14.5987L12.0429 9.916C11.8895 9.68585 11.8752 9.38995 12.0058 9.14609C12.1363 8.90223 12.3904 8.75 12.667 8.75H13.5426L10 3.79035L6.45739 8.75H7.333C7.60959 8.75 7.86373 8.90223 7.99425 9.14609C8.12477 9.38995 8.11047 9.68585 7.95706 9.916L5.40131 13.75H10Z" fill="currentColor"/>
</g>
</g>
</svg>
