<svg width="20" height="20" viewBox="0 0 20 20" fill="none" xmlns="http://www.w3.org/2000/svg">
<g id="trolley">
<g id="Group">
<path id="Shape" fill-rule="evenodd" clip-rule="evenodd" d="M14.75 2.5C14.75 2.08579 15.0858 1.75 15.5 1.75H17.5C17.9142 1.75 18.25 2.08579 18.25 2.5C18.25 2.91421 17.9142 3.25 17.5 3.25H16.25V15.5C16.25 15.9142 15.9142 16.25 15.5 16.25H14.25V17.5C14.25 17.9142 13.9142 18.25 13.5 18.25C13.0858 18.25 12.75 17.9142 12.75 17.5V16.25H5.25V17.5C5.25 17.9142 4.91421 18.25 4.5 18.25C4.08579 18.25 3.75 17.9142 3.75 17.5V16.25H2.5C2.08579 16.25 1.75 15.9142 1.75 15.5C1.75 15.0858 2.08579 14.75 2.5 14.75H4.5H13.5H14.75V2.5ZM1.75 5.5C1.75 5.08579 2.08579 4.75 2.5 4.75H4.75V2.5C4.75 2.08579 5.08579 1.75 5.5 1.75H9.5C9.91421 1.75 10.25 2.08579 10.25 2.5V4.75H12.5C12.9142 4.75 13.25 5.08579 13.25 5.5V12.5C13.25 12.9142 12.9142 13.25 12.5 13.25H2.5C2.08579 13.25 1.75 12.9142 1.75 12.5V5.5ZM8.75 4.75V3.25H6.25V4.75H8.75ZM5.5 6.25H9.5H11.75V11.75H3.25V6.25H5.5Z" fill="currentColor"/>
</g>
</g>
</svg>
