<svg width="20" height="20" viewBox="0 0 20 20" fill="none" xmlns="http://www.w3.org/2000/svg">
<g id="type-underline">
<g id="Group">
<path id="Shape" fill-rule="evenodd" clip-rule="evenodd" d="M11 2H17V3L15.5528 3.7236C15.214 3.89299 15 4.23926 15 4.61803V9C15 11.9217 12.4805 14.2665 9.50018 13.9755C6.90274 13.722 5 11.3868 5 8.777V4.61803C5 4.23926 4.786 3.893 4.44721 3.72361L3 3V2H9V3L7.55279 3.72361C7.214 3.893 7 4.23926 7 4.61803V9C7 10.8499 8.68269 12.3139 10.5979 11.9418C12.0222 11.6652 13 10.3325 13 8.8816V4.61803C13 4.23926 12.786 3.893 12.4472 3.72361L11 3V2ZM2 16H18V18H2V16Z" fill="currentColor"/>
</g>
</g>
</svg>
