<svg width="20" height="20" viewBox="0 0 20 20" fill="none" xmlns="http://www.w3.org/2000/svg">
<g id="type-bold">
<g id="Group">
<path id="Shape" d="M13.5609 9.31641C14.5259 8.60877 15.1231 7.42833 14.9785 6.10878C14.7809 4.30548 13.1432 2.99999 11.3292 3H4V4L5.44721 4.72361C5.786 4.893 6 5.23926 6 5.61803V14.382C6 14.7607 5.786 15.107 5.44721 15.2764L4 16V17H11.8227C13.9265 17 15.8031 15.4525 15.9845 13.3565C16.1409 11.5507 15.0963 9.96788 13.5609 9.31641ZM9 5H10C11.1045 5 12 5.89539 12 7C12 8.10455 11.1045 9 10 9H9V5ZM11 15H9V11H11C12.1046 11 13 11.8954 13 13C13 14.1046 12.1046 15 11 15Z" fill="currentColor"/>
</g>
</g>
</svg>
