<svg width="20" height="20" viewBox="0 0 20 20" fill="none" xmlns="http://www.w3.org/2000/svg">
<g id="user-circle">
<g id="Group">
<path id="Shape" fill-rule="evenodd" clip-rule="evenodd" d="M3.25 10C3.25 6.27208 6.27208 3.25 10 3.25C13.7279 3.25 16.75 6.27208 16.75 10C16.75 11.6855 16.1322 13.2267 15.1108 14.4096C14.6368 13.7333 14.0313 13.155 13.3268 12.7111C12.3307 12.0835 11.1774 11.7505 10 11.7505C8.82264 11.7505 7.6693 12.0835 6.67316 12.7111C5.96871 13.155 5.3632 13.7333 4.88924 14.4096C3.86777 13.2267 3.25 11.6855 3.25 10ZM6.00381 15.4405C7.12259 16.2637 8.5045 16.75 10 16.75C11.4955 16.75 12.8774 16.2637 13.9962 15.4405C13.6214 14.8534 13.1205 14.354 12.5272 13.9802C11.7705 13.5035 10.8944 13.2505 10 13.2505C9.10562 13.2505 8.22947 13.5035 7.47276 13.9802C6.87947 14.354 6.37858 14.8534 6.00381 15.4405ZM10 1.75C5.44365 1.75 1.75 5.44365 1.75 10C1.75 14.5563 5.44365 18.25 10 18.25C14.5563 18.25 18.25 14.5563 18.25 10C18.25 5.44365 14.5563 1.75 10 1.75ZM10 6.25C9.0335 6.25 8.25 7.0335 8.25 8C8.25 8.9665 9.0335 9.75 10 9.75C10.9665 9.75 11.75 8.9665 11.75 8C11.75 7.0335 10.9665 6.25 10 6.25ZM6.75 8C6.75 6.20507 8.20507 4.75 10 4.75C11.7949 4.75 13.25 6.20507 13.25 8C13.25 9.79493 11.7949 11.25 10 11.25C8.20507 11.25 6.75 9.79493 6.75 8Z" fill="currentColor"/>
</g>
</g>
</svg>
