<svg width="20" height="20" viewBox="0 0 20 20" fill="none" xmlns="http://www.w3.org/2000/svg">
<g id="wheelchair">
<g id="Group">
<path id="Shape" fill-rule="evenodd" clip-rule="evenodd" d="M2.75 2.5C2.75 2.08579 3.08579 1.75 3.5 1.75H6C6.37894 1.75 6.69834 2.03266 6.74443 2.40878L7.15384 5.75H14.5C14.9142 5.75 15.25 6.08579 15.25 6.5C15.25 6.91421 14.9142 7.25 14.5 7.25H7.33764L7.52145 8.75005C8.61225 8.75487 9.61622 9.12737 10.4158 9.75H14.5C14.9641 9.75 15.4092 9.93437 15.7374 10.2626C16.0656 10.5908 16.25 11.0359 16.25 11.5V12C16.25 12.4142 15.9142 12.75 15.5 12.75C15.0858 12.75 14.75 12.4142 14.75 12V11.5C14.75 11.4337 14.7237 11.3701 14.6768 11.3232C14.6299 11.2763 14.5663 11.25 14.5 11.25H11.6843C12.0452 11.9197 12.25 12.6859 12.25 13.5C12.25 16.1234 10.1234 18.25 7.5 18.25C4.87665 18.25 2.75 16.1234 2.75 13.5C2.75 11.3866 4.13015 9.59564 6.0383 8.97915L5.33629 3.25H3.5C3.08579 3.25 2.75 2.91421 2.75 2.5ZM7.5 10.25C8.30641 10.25 9.04422 10.5437 9.61231 11.03C9.63486 11.0525 9.65884 11.0737 9.6841 11.0933C10.3389 11.6878 10.75 12.5459 10.75 13.5C10.75 15.2949 9.29493 16.75 7.5 16.75C5.70507 16.75 4.25 15.2949 4.25 13.5C4.25 11.7051 5.70507 10.25 7.5 10.25ZM14.75 16C14.75 15.5858 15.0858 15.25 15.5 15.25C15.9142 15.25 16.25 15.5858 16.25 16C16.25 16.4142 15.9142 16.75 15.5 16.75C15.0858 16.75 14.75 16.4142 14.75 16ZM15.5 13.75C14.2574 13.75 13.25 14.7574 13.25 16C13.25 17.2426 14.2574 18.25 15.5 18.25C16.7426 18.25 17.75 17.2426 17.75 16C17.75 14.7574 16.7426 13.75 15.5 13.75Z" fill="currentColor"/>
</g>
</g>
</svg>
